<svg width="41" height="24" viewBox="0 0 41 24" fill="none" xmlns="http://www.w3.org/2000/svg">
<path d="M9.54801 17.42L8.48701 18.48L2.70801 12.703C2.61486 12.6104 2.54093 12.5004 2.49048 12.3791C2.44003 12.2579 2.41406 12.1278 2.41406 11.9965C2.41406 11.8652 2.44003 11.7352 2.49048 11.6139C2.54093 11.4927 2.61486 11.3826 2.70801 11.29L8.48701 5.51001L9.54701 6.57001L4.12301 11.995L9.54801 17.42Z" fill="black"/>
<path d="M23.6 14.01C23.6 15.31 22.43 16 20.75 16H17.3V15.75C18.1 15.7 18.27 15.64 18.27 14.88V10.12C18.27 9.35 18.1 9.3 17.3 9.25V9H20.58C22.23 9 23.4 9.43 23.4 10.73C23.4 11.55 22.84 12.05 21.85 12.24C22.97 12.46 23.6 13.15 23.6 14.01ZM22.3 10.73C22.3 9.82 21.74 9.45 20.61 9.45H19.56C19.37 9.45 19.26 9.56 19.26 9.75V12.02H20.67C21.68 12.02 22.3 11.65 22.3 10.73ZM22.5 14.01C22.5 13.09 21.89 12.46 20.87 12.46H19.26V15.25C19.26 15.44 19.37 15.55 19.56 15.55H20.75C21.95 15.55 22.5 14.93 22.5 14.01ZM28.381 16.11C27.981 16.11 27.681 15.92 27.601 15.49C27.141 15.81 26.551 16.13 25.941 16.13C25.111 16.13 24.591 15.76 24.591 15.06C24.591 13.98 25.871 13.61 27.581 13.33V12.73C27.581 12 27.421 11.72 26.861 11.72C26.281 11.72 25.941 11.96 25.821 12.45C25.731 12.79 25.541 12.93 25.321 12.93C25.071 12.93 24.931 12.78 24.931 12.48C24.931 11.91 25.691 11.34 26.911 11.34C27.761 11.34 28.471 11.65 28.471 12.75V15.1C28.471 15.47 28.571 15.64 28.791 15.64C28.891 15.64 29.011 15.61 29.161 15.53V15.89C28.951 16.03 28.711 16.11 28.381 16.11ZM26.261 15.62C26.711 15.62 27.151 15.4 27.581 15.1V13.71C26.361 13.89 25.551 14.17 25.551 14.94C25.551 15.41 25.851 15.62 26.261 15.62ZM33.9568 12.47C33.9568 12.77 33.7468 12.93 33.4968 12.93C33.2768 12.93 33.0868 12.79 33.0168 12.45C32.9468 12.02 32.7068 11.73 32.1868 11.73C31.2468 11.73 30.9268 12.58 30.9268 13.74C30.9268 14.9 31.3968 15.73 32.3968 15.73C33.1068 15.73 33.5368 15.28 33.8468 14.56L34.2068 14.75C33.8668 15.58 33.2968 16.15 32.3068 16.15C30.8168 16.15 29.9668 15.11 29.9668 13.74C29.9668 12.38 30.8968 11.34 32.1868 11.34C33.2468 11.34 33.9568 11.92 33.9568 12.47ZM34.8327 16V15.75C35.3827 15.7 35.5127 15.59 35.5127 15.23V10.16C35.5127 9.92 35.4227 9.83 35.2027 9.83H34.8327V9.63L36.0827 8.85H36.3927V13.68L37.7427 12.32C37.9827 12.09 38.0727 11.79 37.2827 11.74V11.49H39.6327V11.74C39.0627 11.79 38.7627 11.94 38.3027 12.39L37.6027 13.09L39.2627 15.16C39.6327 15.61 39.8127 15.7 40.1327 15.75V16H37.6527V15.75C38.3427 15.7 38.3527 15.4 38.1427 15.14L36.9727 13.71L36.3927 14.29V15.23C36.3927 15.59 36.5227 15.7 37.0627 15.75V16H34.8327Z" fill="black"/>
</svg>
