<svg width="292" height="58" viewBox="0 0 292 58" fill="none" xmlns="http://www.w3.org/2000/svg">
<rect x="1.5" y="1.5" width="289" height="55" fill="white" stroke="#0FA44B" stroke-width="3"/>
<mask id="path-2-outside-1_227_167" maskUnits="userSpaceOnUse" x="100" y="18" width="92" height="19" fill="black">
<rect fill="white" x="100" y="18" width="92" height="19"/>
<path d="M110.122 19.2L115.618 33.648C116.026 34.776 116.506 35.28 117.634 35.4V36H111.394V35.4C113.194 35.28 113.602 34.92 113.218 33.912L112.018 30.84H105.49L104.338 33.912C103.978 34.824 104.53 35.28 106.378 35.4V36H101.074V35.4C102.25 35.28 102.826 34.776 103.21 33.768L108.754 19.2H110.122ZM108.73 22.272L105.898 29.784H111.61L108.73 22.272ZM134.363 31.224C134.363 34.344 131.555 36 127.523 36H119.243V35.4C121.163 35.28 121.571 35.136 121.571 33.312V21.888C121.571 20.04 121.163 19.92 119.243 19.8V19.2H127.115C131.075 19.2 133.883 20.232 133.883 23.352C133.883 25.32 132.539 26.52 130.163 26.976C132.851 27.504 134.363 29.16 134.363 31.224ZM131.243 23.352C131.243 21.168 129.899 20.28 127.187 20.28H124.667C124.211 20.28 123.947 20.544 123.947 21V26.448H127.331C129.755 26.448 131.243 25.56 131.243 23.352ZM131.723 31.224C131.723 29.016 130.259 27.504 127.811 27.504H123.947V34.2C123.947 34.656 124.211 34.92 124.667 34.92H127.523C130.403 34.92 131.723 33.432 131.723 31.224ZM137.677 27.6C137.677 22.536 140.725 18.84 145.645 18.84C150.589 18.84 153.637 22.536 153.637 27.6C153.637 32.664 150.589 36.36 145.645 36.36C140.725 36.36 137.677 32.664 137.677 27.6ZM140.317 27.6C140.317 32.088 141.733 35.304 145.645 35.304C149.581 35.304 150.997 32.088 150.997 27.6C150.997 23.112 149.581 19.872 145.645 19.872C141.733 19.872 140.317 23.112 140.317 27.6ZM161.099 31.056C161.099 33.984 163.091 35.256 165.851 35.256C168.227 35.256 170.219 33.936 170.219 31.104V21.888C170.219 20.04 169.811 19.92 167.891 19.8V19.2H173.771V19.8C171.851 19.92 171.443 20.04 171.443 21.888V31.104C171.443 33.936 169.499 36.36 165.443 36.36C161.267 36.36 158.723 34.584 158.723 31.104V21.888C158.723 20.04 158.315 19.92 156.395 19.8V19.2H163.427V19.8C161.507 19.92 161.099 20.04 161.099 21.888V31.056ZM184.754 33.312C184.754 35.136 185.162 35.28 187.082 35.4V36H180.05V35.4C181.97 35.28 182.378 35.136 182.378 33.312V21C182.378 20.544 182.114 20.28 181.658 20.28C178.874 20.28 177.914 20.928 176.378 23.376L175.85 23.112L177.698 18.672H178.322C178.442 19.032 178.658 19.2 179.018 19.2H188.09C188.45 19.2 188.69 19.032 188.81 18.672H189.41L191.258 23.112L190.73 23.376C189.218 20.928 188.066 20.28 185.474 20.28C185.018 20.28 184.754 20.544 184.754 21V33.312Z"/>
</mask>
<path d="M110.122 19.2L115.618 33.648C116.026 34.776 116.506 35.28 117.634 35.4V36H111.394V35.4C113.194 35.28 113.602 34.92 113.218 33.912L112.018 30.84H105.49L104.338 33.912C103.978 34.824 104.53 35.28 106.378 35.4V36H101.074V35.4C102.25 35.28 102.826 34.776 103.21 33.768L108.754 19.2H110.122ZM108.73 22.272L105.898 29.784H111.61L108.73 22.272ZM134.363 31.224C134.363 34.344 131.555 36 127.523 36H119.243V35.4C121.163 35.28 121.571 35.136 121.571 33.312V21.888C121.571 20.04 121.163 19.92 119.243 19.8V19.2H127.115C131.075 19.2 133.883 20.232 133.883 23.352C133.883 25.32 132.539 26.52 130.163 26.976C132.851 27.504 134.363 29.16 134.363 31.224ZM131.243 23.352C131.243 21.168 129.899 20.28 127.187 20.28H124.667C124.211 20.28 123.947 20.544 123.947 21V26.448H127.331C129.755 26.448 131.243 25.56 131.243 23.352ZM131.723 31.224C131.723 29.016 130.259 27.504 127.811 27.504H123.947V34.2C123.947 34.656 124.211 34.92 124.667 34.92H127.523C130.403 34.92 131.723 33.432 131.723 31.224ZM137.677 27.6C137.677 22.536 140.725 18.84 145.645 18.84C150.589 18.84 153.637 22.536 153.637 27.6C153.637 32.664 150.589 36.36 145.645 36.36C140.725 36.36 137.677 32.664 137.677 27.6ZM140.317 27.6C140.317 32.088 141.733 35.304 145.645 35.304C149.581 35.304 150.997 32.088 150.997 27.6C150.997 23.112 149.581 19.872 145.645 19.872C141.733 19.872 140.317 23.112 140.317 27.6ZM161.099 31.056C161.099 33.984 163.091 35.256 165.851 35.256C168.227 35.256 170.219 33.936 170.219 31.104V21.888C170.219 20.04 169.811 19.92 167.891 19.8V19.2H173.771V19.8C171.851 19.92 171.443 20.04 171.443 21.888V31.104C171.443 33.936 169.499 36.36 165.443 36.36C161.267 36.36 158.723 34.584 158.723 31.104V21.888C158.723 20.04 158.315 19.92 156.395 19.8V19.2H163.427V19.8C161.507 19.92 161.099 20.04 161.099 21.888V31.056ZM184.754 33.312C184.754 35.136 185.162 35.28 187.082 35.4V36H180.05V35.4C181.97 35.28 182.378 35.136 182.378 33.312V21C182.378 20.544 182.114 20.28 181.658 20.28C178.874 20.28 177.914 20.928 176.378 23.376L175.85 23.112L177.698 18.672H178.322C178.442 19.032 178.658 19.2 179.018 19.2H188.09C188.45 19.2 188.69 19.032 188.81 18.672H189.41L191.258 23.112L190.73 23.376C189.218 20.928 188.066 20.28 185.474 20.28C185.018 20.28 184.754 20.544 184.754 21V33.312Z" fill="#F9A574"/>
<path d="M110.122 19.2L110.589 19.0222L110.466 18.7H110.122V19.2ZM115.618 33.648L116.088 33.4779L116.085 33.4702L115.618 33.648ZM117.634 35.4H118.134V34.9504L117.687 34.9028L117.634 35.4ZM117.634 36V36.5H118.134V36H117.634ZM111.394 36H110.894V36.5H111.394V36ZM111.394 35.4L111.36 34.9011L110.894 34.9322V35.4H111.394ZM113.218 33.912L113.685 33.734L113.683 33.7301L113.218 33.912ZM112.018 30.84L112.483 30.6581L112.359 30.34H112.018V30.84ZM105.49 30.84V30.34H105.143L105.022 30.6644L105.49 30.84ZM104.338 33.912L104.803 34.0956L104.806 34.0876L104.338 33.912ZM106.378 35.4H106.878V34.9314L106.41 34.9011L106.378 35.4ZM106.378 36V36.5H106.878V36H106.378ZM101.074 36H100.574V36.5H101.074V36ZM101.074 35.4L101.023 34.9026L100.574 34.9484V35.4H101.074ZM103.21 33.768L103.677 33.946L103.677 33.9458L103.21 33.768ZM108.754 19.2V18.7H108.409L108.286 19.0222L108.754 19.2ZM108.73 22.272L109.197 22.093L108.726 20.865L108.262 22.0956L108.73 22.272ZM105.898 29.784L105.43 29.6076L105.175 30.284H105.898V29.784ZM111.61 29.784V30.284H112.337L112.077 29.605L111.61 29.784ZM110.122 19.2L109.654 19.3778L115.15 33.8258L115.618 33.648L116.085 33.4702L110.589 19.0222L110.122 19.2ZM115.618 33.648L115.148 33.8181C115.361 34.4094 115.618 34.9091 116.02 35.2729C116.435 35.6472 116.949 35.8299 117.581 35.8972L117.634 35.4L117.687 34.9028C117.191 34.8501 116.901 34.7208 116.691 34.5311C116.47 34.3309 116.282 34.0146 116.088 33.4779L115.618 33.648ZM117.634 35.4H117.134V36H117.634H118.134V35.4H117.634ZM117.634 36V35.5H111.394V36V36.5H117.634V36ZM111.394 36H111.894V35.4H111.394H110.894V36H111.394ZM111.394 35.4L111.427 35.8989C111.888 35.8681 112.282 35.8209 112.605 35.7456C112.923 35.6718 113.218 35.5613 113.444 35.3741C113.691 35.1694 113.825 34.8984 113.847 34.5877C113.866 34.3041 113.791 34.0126 113.685 33.734L113.218 33.912L112.75 34.09C112.836 34.3154 112.854 34.4469 112.849 34.5181C112.846 34.5621 112.838 34.5776 112.806 34.6039C112.753 34.6477 112.632 34.7127 112.379 34.7716C112.132 34.8291 111.799 34.8719 111.36 34.9011L111.394 35.4ZM113.218 33.912L113.683 33.7301L112.483 30.6581L112.018 30.84L111.552 31.0219L112.752 34.0939L113.218 33.912ZM112.018 30.84V30.34H105.49V30.84V31.34H112.018V30.84ZM105.49 30.84L105.022 30.6644L103.87 33.7364L104.338 33.912L104.806 34.0876L105.958 31.0156L105.49 30.84ZM104.338 33.912L103.873 33.7284C103.764 34.0036 103.701 34.3011 103.752 34.5979C103.807 34.9118 103.979 35.1651 104.23 35.353C104.468 35.5314 104.772 35.6491 105.111 35.7312C105.455 35.8142 105.867 35.8679 106.345 35.8989L106.378 35.4L106.41 34.9011C105.964 34.8721 105.614 34.8238 105.346 34.7591C105.074 34.6934 104.916 34.6176 104.83 34.553C104.756 34.4979 104.743 34.4587 104.737 34.4269C104.729 34.3779 104.731 34.2764 104.803 34.0956L104.338 33.912ZM106.378 35.4H105.878V36H106.378H106.878V35.4H106.378ZM106.378 36V35.5H101.074V36V36.5H106.378V36ZM101.074 36H101.574V35.4H101.074H100.574V36H101.074ZM101.074 35.4L101.124 35.8974C101.774 35.8311 102.312 35.6529 102.748 35.3098C103.182 34.9677 103.466 34.5001 103.677 33.946L103.21 33.768L102.742 33.59C102.57 34.0439 102.373 34.3323 102.129 34.5242C101.887 34.7151 101.549 34.8489 101.023 34.9026L101.074 35.4ZM103.21 33.768L103.677 33.9458L109.221 19.3778L108.754 19.2L108.286 19.0222L102.742 33.5902L103.21 33.768ZM108.754 19.2V19.7H110.122V19.2V18.7H108.754V19.2ZM108.73 22.272L108.262 22.0956L105.43 29.6076L105.898 29.784L106.366 29.9604L109.198 22.4484L108.73 22.272ZM105.898 29.784V30.284H111.61V29.784V29.284H105.898V29.784ZM111.61 29.784L112.077 29.605L109.197 22.093L108.73 22.272L108.263 22.451L111.143 29.963L111.61 29.784ZM119.243 36H118.743V36.5H119.243V36ZM119.243 35.4L119.211 34.901L118.743 34.9303V35.4H119.243ZM119.243 19.8H118.743V20.2697L119.211 20.299L119.243 19.8ZM119.243 19.2V18.7H118.743V19.2H119.243ZM130.163 26.976L130.068 26.485L130.066 27.4666L130.163 26.976ZM123.947 26.448H123.447V26.948H123.947V26.448ZM123.947 27.504V27.004H123.447V27.504H123.947ZM134.363 31.224H133.863C133.863 32.6087 133.251 33.6501 132.177 34.366C131.081 35.0965 129.48 35.5 127.523 35.5V36V36.5C129.597 36.5 131.416 36.0755 132.732 35.198C134.07 34.3059 134.863 32.9593 134.863 31.224H134.363ZM127.523 36V35.5H119.243V36V36.5H127.523V36ZM119.243 36H119.743V35.4H119.243H118.743V36H119.243ZM119.243 35.4L119.274 35.899C119.752 35.8692 120.167 35.8363 120.51 35.7707C120.854 35.7051 121.179 35.5978 121.443 35.3824C121.99 34.9361 122.071 34.1994 122.071 33.312H121.571H121.071C121.071 34.2486 120.947 34.4959 120.811 34.6076C120.733 34.6712 120.596 34.7364 120.323 34.7885C120.05 34.8407 119.694 34.8708 119.211 34.901L119.243 35.4ZM121.571 33.312H122.071V21.888H121.571H121.071V33.312H121.571ZM121.571 21.888H122.071C122.071 21.4164 122.046 21.0122 121.962 20.6777C121.875 20.3302 121.718 20.0308 121.441 19.8069C121.176 19.5929 120.85 19.4886 120.507 19.4253C120.165 19.362 119.75 19.3307 119.274 19.301L119.243 19.8L119.211 20.299C119.695 20.3292 120.051 20.358 120.325 20.4087C120.6 20.4594 120.736 20.5231 120.813 20.5851C120.877 20.6372 120.942 20.7218 120.992 20.9203C121.045 21.1318 121.071 21.4356 121.071 21.888H121.571ZM119.243 19.8H119.743V19.2H119.243H118.743V19.8H119.243ZM119.243 19.2V19.7H127.115V19.2V18.7H119.243V19.2ZM127.115 19.2V19.7C129.068 19.7 130.659 19.9576 131.746 20.5457C132.281 20.8354 132.683 21.1998 132.955 21.6465C133.225 22.0925 133.383 22.6493 133.383 23.352H133.883H134.383C134.383 22.4947 134.189 21.7525 133.809 21.1275C133.43 20.5032 132.884 20.0246 132.222 19.6663C130.914 18.9584 129.121 18.7 127.115 18.7V19.2ZM133.883 23.352H133.383C133.383 24.2098 133.095 24.8674 132.569 25.369C132.029 25.8831 131.201 26.2676 130.068 26.485L130.163 26.976L130.257 27.467C131.501 27.2284 132.532 26.7849 133.259 26.093C133.998 25.3886 134.383 24.4622 134.383 23.352H133.883ZM130.163 26.976L130.066 27.4666C132.591 27.9626 133.863 29.465 133.863 31.224H134.363H134.863C134.863 28.855 133.11 27.0454 130.259 26.4854L130.163 26.976ZM131.243 23.352H131.743C131.743 22.1497 131.366 21.2086 130.527 20.5938C129.723 20.004 128.578 19.78 127.187 19.78V20.28V20.78C128.507 20.78 129.39 21 129.936 21.4002C130.448 21.7754 130.743 22.3703 130.743 23.352H131.243ZM127.187 20.28V19.78H124.667V20.28V20.78H127.187V20.28ZM124.667 20.28V19.78C124.343 19.78 124.022 19.8755 123.782 20.1154C123.542 20.3554 123.447 20.6763 123.447 21H123.947H124.447C124.447 20.8677 124.483 20.8286 124.489 20.8226C124.495 20.8165 124.534 20.78 124.667 20.78V20.28ZM123.947 21H123.447V26.448H123.947H124.447V21H123.947ZM123.947 26.448V26.948H127.331V26.448V25.948H123.947V26.448ZM127.331 26.448V26.948C128.589 26.948 129.693 26.7202 130.493 26.1303C131.321 25.5193 131.743 24.5802 131.743 23.352H131.243H130.743C130.743 24.3318 130.421 24.9407 129.899 25.3257C129.348 25.7318 128.497 25.948 127.331 25.948V26.448ZM131.723 31.224H132.223C132.223 30.007 131.817 28.9401 131.033 28.1777C130.251 27.416 129.139 27.004 127.811 27.004V27.504V28.004C128.931 28.004 129.775 28.348 130.336 28.8943C130.897 29.4399 131.223 30.233 131.223 31.224H131.723ZM127.811 27.504V27.004H123.947V27.504V28.004H127.811V27.504ZM123.947 27.504H123.447V34.2H123.947H124.447V27.504H123.947ZM123.947 34.2H123.447C123.447 34.5237 123.542 34.8446 123.782 35.0846C124.022 35.3245 124.343 35.42 124.667 35.42V34.92V34.42C124.534 34.42 124.495 34.3835 124.489 34.3774C124.483 34.3714 124.447 34.3323 124.447 34.2H123.947ZM124.667 34.92V35.42H127.523V34.92V34.42H124.667V34.92ZM127.523 34.92V35.42C129.044 35.42 130.234 35.0264 131.045 34.2645C131.86 33.4987 132.223 32.428 132.223 31.224H131.723H131.223C131.223 32.228 130.925 33.0053 130.36 33.5355C129.792 34.0696 128.881 34.42 127.523 34.42V34.92ZM137.677 27.6H138.177C138.177 25.1662 138.909 23.1014 140.191 21.6522C141.467 20.2094 143.319 19.34 145.645 19.34V18.84V18.34C143.051 18.34 140.92 19.3186 139.442 20.9898C137.969 22.6546 137.177 24.9698 137.177 27.6H137.677ZM145.645 18.84V19.34C147.984 19.34 149.842 20.21 151.121 21.6526C152.405 23.1017 153.137 25.1662 153.137 27.6H153.637H154.137C154.137 24.9698 153.345 22.6543 151.869 20.9894C150.388 19.318 148.25 18.34 145.645 18.34V18.84ZM153.637 27.6H153.137C153.137 30.0338 152.405 32.0983 151.121 33.5474C149.842 34.99 147.984 35.86 145.645 35.86V36.36V36.86C148.25 36.86 150.388 35.882 151.869 34.2106C153.345 32.5457 154.137 30.2302 154.137 27.6H153.637ZM145.645 36.36V35.86C143.319 35.86 141.467 34.9906 140.191 33.5478C138.909 32.0986 138.177 30.0338 138.177 27.6H137.677H137.177C137.177 30.2302 137.969 32.5454 139.442 34.2102C140.92 35.8814 143.051 36.86 145.645 36.86V36.36ZM140.317 27.6H139.817C139.817 29.8809 140.174 31.9169 141.089 33.3977C142.027 34.9169 143.524 35.804 145.645 35.804V35.304V34.804C143.854 34.804 142.687 34.0831 141.94 32.8723C141.168 31.6231 140.817 29.8071 140.817 27.6H140.317ZM145.645 35.304V35.804C147.777 35.804 149.28 34.918 150.222 33.3984C151.14 31.9172 151.497 29.8808 151.497 27.6H150.997H150.497C150.497 29.8072 150.146 31.6228 149.372 32.8716C148.622 34.082 147.449 34.804 145.645 34.804V35.304ZM150.997 27.6H151.497C151.497 25.3191 151.14 23.2772 150.223 21.7904C149.282 20.2653 147.779 19.372 145.645 19.372V19.872V20.372C147.447 20.372 148.621 21.0987 149.372 22.3156C150.146 23.5708 150.497 25.3929 150.497 27.6H150.997ZM145.645 19.872V19.372C143.522 19.372 142.026 20.2664 141.088 21.7911C140.174 23.2776 139.817 25.319 139.817 27.6H140.317H140.817C140.817 25.393 141.168 23.5704 141.94 22.3149C142.689 21.0976 143.856 20.372 145.645 20.372V19.872ZM167.891 19.8H167.391V20.2697L167.86 20.299L167.891 19.8ZM167.891 19.2V18.7H167.391V19.2H167.891ZM173.771 19.2H174.271V18.7H173.771V19.2ZM173.771 19.8L173.803 20.299L174.271 20.2697V19.8H173.771ZM156.395 19.8H155.895V20.2697L156.364 20.299L156.395 19.8ZM156.395 19.2V18.7H155.895V19.2H156.395ZM163.427 19.2H163.927V18.7H163.427V19.2ZM163.427 19.8L163.459 20.299L163.927 20.2697V19.8H163.427ZM161.099 31.056H160.599C160.599 32.6431 161.145 33.8472 162.125 34.6423C163.088 35.4235 164.404 35.756 165.851 35.756V35.256V34.756C164.539 34.756 163.479 34.4525 162.755 33.8657C162.049 33.2928 161.599 32.3969 161.599 31.056H161.099ZM165.851 35.256V35.756C167.127 35.756 168.345 35.402 169.253 34.621C170.171 33.8304 170.719 32.6468 170.719 31.104H170.219H169.719C169.719 32.3932 169.271 33.2856 168.6 33.863C167.918 34.45 166.952 34.756 165.851 34.756V35.256ZM170.219 31.104H170.719V21.888H170.219H169.719V31.104H170.219ZM170.219 21.888H170.719C170.719 21.4164 170.694 21.0122 170.611 20.6777C170.524 20.3302 170.367 20.0308 170.089 19.8069C169.824 19.5929 169.498 19.4886 169.156 19.4253C168.814 19.362 168.399 19.3307 167.923 19.301L167.891 19.8L167.86 20.299C168.344 20.3292 168.7 20.358 168.974 20.4087C169.248 20.4594 169.385 20.5231 169.461 20.5851C169.526 20.6372 169.591 20.7218 169.641 20.9203C169.693 21.1318 169.719 21.4356 169.719 21.888H170.219ZM167.891 19.8H168.391V19.2H167.891H167.391V19.8H167.891ZM167.891 19.2V19.7H173.771V19.2V18.7H167.891V19.2ZM173.771 19.2H173.271V19.8H173.771H174.271V19.2H173.771ZM173.771 19.8L173.74 19.301C173.264 19.3307 172.849 19.362 172.507 19.4253C172.164 19.4886 171.839 19.5929 171.573 19.8069C171.296 20.0308 171.139 20.3302 171.052 20.6777C170.968 21.0122 170.943 21.4164 170.943 21.888H171.443H171.943C171.943 21.4356 171.969 21.1318 172.022 20.9203C172.072 20.7218 172.137 20.6372 172.201 20.5851C172.278 20.5231 172.414 20.4594 172.689 20.4087C172.963 20.358 173.319 20.3292 173.803 20.299L173.771 19.8ZM171.443 21.888H170.943V31.104H171.443H171.943V21.888H171.443ZM171.443 31.104H170.943C170.943 32.4046 170.499 33.5819 169.617 34.4345C168.736 35.2863 167.37 35.86 165.443 35.86V36.36V36.86C167.572 36.86 169.207 36.2217 170.312 35.1535C171.416 34.0861 171.943 32.6354 171.943 31.104H171.443ZM165.443 36.36V35.86C163.416 35.86 161.859 35.4274 160.82 34.6387C159.802 33.8661 159.223 32.7083 159.223 31.104H158.723H158.223C158.223 32.9797 158.917 34.4499 160.215 35.4353C161.492 36.4046 163.295 36.86 165.443 36.86V36.36ZM158.723 31.104H159.223V21.888H158.723H158.223V31.104H158.723ZM158.723 21.888H159.223C159.223 21.4164 159.198 21.0122 159.115 20.6777C159.028 20.3302 158.871 20.0308 158.593 19.8069C158.328 19.5929 158.002 19.4886 157.66 19.4253C157.318 19.362 156.903 19.3307 156.427 19.301L156.395 19.8L156.364 20.299C156.848 20.3292 157.204 20.358 157.478 20.4087C157.752 20.4594 157.889 20.5231 157.965 20.5851C158.03 20.6372 158.095 20.7218 158.145 20.9203C158.197 21.1318 158.223 21.4356 158.223 21.888H158.723ZM156.395 19.8H156.895V19.2H156.395H155.895V19.8H156.395ZM156.395 19.2V19.7H163.427V19.2V18.7H156.395V19.2ZM163.427 19.2H162.927V19.8H163.427H163.927V19.2H163.427ZM163.427 19.8L163.396 19.301C162.92 19.3307 162.505 19.362 162.163 19.4253C161.82 19.4886 161.495 19.5929 161.229 19.8069C160.952 20.0308 160.795 20.3302 160.708 20.6777C160.624 21.0122 160.599 21.4164 160.599 21.888H161.099H161.599C161.599 21.4356 161.625 21.1318 161.678 20.9203C161.728 20.7218 161.793 20.6372 161.857 20.5851C161.934 20.5231 162.07 20.4594 162.345 20.4087C162.619 20.358 162.975 20.3292 163.459 20.299L163.427 19.8ZM161.099 21.888H160.599V31.056H161.099H161.599V21.888H161.099ZM187.082 35.4H187.582V34.9303L187.114 34.901L187.082 35.4ZM187.082 36V36.5H187.582V36H187.082ZM180.05 36H179.55V36.5H180.05V36ZM180.05 35.4L180.019 34.901L179.55 34.9303V35.4H180.05ZM176.378 23.376L176.155 23.8232L176.561 24.0262L176.802 23.6417L176.378 23.376ZM175.85 23.112L175.389 22.9199L175.21 23.3506L175.627 23.5592L175.85 23.112ZM177.698 18.672V18.172H177.365L177.237 18.4799L177.698 18.672ZM178.322 18.672L178.797 18.5139L178.683 18.172H178.322V18.672ZM188.81 18.672V18.172H188.45L188.336 18.5139L188.81 18.672ZM189.41 18.672L189.872 18.4799L189.744 18.172H189.41V18.672ZM191.258 23.112L191.482 23.5592L191.899 23.3506L191.72 22.9199L191.258 23.112ZM190.73 23.376L190.305 23.6387L190.545 24.0276L190.954 23.8232L190.73 23.376ZM184.754 33.312H184.254C184.254 34.1994 184.335 34.9361 184.882 35.3824C185.146 35.5978 185.471 35.7051 185.815 35.7707C186.158 35.8363 186.573 35.8692 187.051 35.899L187.082 35.4L187.114 34.901C186.631 34.8708 186.276 34.8407 186.002 34.7885C185.729 34.7364 185.593 34.6712 185.514 34.6076C185.378 34.4959 185.254 34.2486 185.254 33.312H184.754ZM187.082 35.4H186.582V36H187.082H187.582V35.4H187.082ZM187.082 36V35.5H180.05V36V36.5H187.082V36ZM180.05 36H180.55V35.4H180.05H179.55V36H180.05ZM180.05 35.4L180.082 35.899C180.559 35.8692 180.975 35.8363 181.318 35.7707C181.661 35.7051 181.987 35.5978 182.25 35.3824C182.798 34.9361 182.878 34.1994 182.878 33.312H182.378H181.878C181.878 34.2486 181.755 34.4959 181.618 34.6076C181.54 34.6712 181.403 34.7364 181.13 34.7885C180.857 34.8407 180.501 34.8708 180.019 34.901L180.05 35.4ZM182.378 33.312H182.878V21H182.378H181.878V33.312H182.378ZM182.378 21H182.878C182.878 20.6763 182.783 20.3554 182.543 20.1154C182.303 19.8755 181.982 19.78 181.658 19.78V20.28V20.78C181.791 20.78 181.83 20.8165 181.836 20.8226C181.842 20.8286 181.878 20.8677 181.878 21H182.378ZM181.658 20.28V19.78C180.236 19.78 179.19 19.9431 178.293 20.4813C177.405 21.014 176.729 21.8764 175.955 23.1103L176.378 23.376L176.802 23.6417C177.564 22.4276 178.136 21.742 178.808 21.3387C179.471 20.9409 180.297 20.78 181.658 20.78V20.28ZM176.378 23.376L176.602 22.9288L176.074 22.6648L175.85 23.112L175.627 23.5592L176.155 23.8232L176.378 23.376ZM175.85 23.112L176.312 23.3041L178.16 18.8641L177.698 18.672L177.237 18.4799L175.389 22.9199L175.85 23.112ZM177.698 18.672V19.172H178.322V18.672V18.172H177.698V18.672ZM178.322 18.672L177.848 18.8301C177.928 19.0709 178.059 19.3019 178.277 19.4685C178.499 19.6381 178.759 19.7 179.018 19.7V19.2V18.7C178.918 18.7 178.889 18.6779 178.884 18.6735C178.874 18.6661 178.836 18.6331 178.797 18.5139L178.322 18.672ZM179.018 19.2V19.7H188.09V19.2V18.7H179.018V19.2ZM188.09 19.2V19.7C188.349 19.7 188.609 19.6387 188.834 19.4758C189.058 19.3132 189.2 19.0834 189.285 18.8301L188.81 18.672L188.336 18.5139C188.3 18.6206 188.263 18.6548 188.247 18.6662C188.232 18.6773 188.192 18.7 188.09 18.7V19.2ZM188.81 18.672V19.172H189.41V18.672V18.172H188.81V18.672ZM189.41 18.672L188.949 18.8641L190.797 23.3041L191.258 23.112L191.72 22.9199L189.872 18.4799L189.41 18.672ZM191.258 23.112L191.035 22.6648L190.507 22.9288L190.73 23.376L190.954 23.8232L191.482 23.5592L191.258 23.112ZM190.73 23.376L191.156 23.1133C190.385 21.8658 189.667 21.0083 188.76 20.4783C187.847 19.945 186.807 19.78 185.474 19.78V20.28V20.78C186.734 20.78 187.566 20.939 188.255 21.3417C188.95 21.7477 189.563 22.4382 190.305 23.6387L190.73 23.376ZM185.474 20.28V19.78C185.151 19.78 184.83 19.8755 184.59 20.1154C184.35 20.3554 184.254 20.6763 184.254 21H184.754H185.254C185.254 20.8677 185.291 20.8286 185.297 20.8226C185.303 20.8165 185.342 20.78 185.474 20.78V20.28ZM184.754 21H184.254V33.312H184.754H185.254V21H184.754Z" fill="black" mask="url(#path-2-outside-1_227_167)"/>
</svg>
