<svg width="292" height="58" viewBox="0 0 292 58" fill="none" xmlns="http://www.w3.org/2000/svg">
<rect x="1.5" y="1.5" width="289" height="55" fill="white" stroke="#0FA44B" stroke-width="3"/>
<mask id="path-2-outside-1_227_170" maskUnits="userSpaceOnUse" x="86" y="18" width="122" height="19" fill="black">
<rect fill="white" x="86" y="18" width="122" height="19"/>
<path d="M100.176 34.632C99.1195 35.616 97.4635 36.36 95.1355 36.36C90.4555 36.36 87.1435 32.664 87.1435 27.6C87.1435 22.536 90.4555 18.84 95.1595 18.84C96.9835 18.84 98.3995 19.344 99.3595 20.04L99.6955 19.2H100.416L101.88 23.88L101.328 24.072C99.8395 21.36 97.8715 19.872 95.3275 19.872C91.4875 19.872 89.7835 23.112 89.7835 27.6C89.7835 32.088 91.4875 35.304 95.2555 35.304C97.3675 35.304 98.9275 34.272 99.4315 33.6V31.008C99.4315 29.184 99.0475 29.04 97.1275 28.92V28.32H104.064V28.92C102.24 29.04 101.808 29.184 101.808 31.008V36H101.088L100.176 34.632ZM114.258 19.2L119.754 33.648C120.162 34.776 120.642 35.28 121.77 35.4V36H115.53V35.4C117.33 35.28 117.738 34.92 117.354 33.912L116.154 30.84H109.626L108.474 33.912C108.114 34.824 108.666 35.28 110.514 35.4V36H105.21V35.4C106.386 35.28 106.962 34.776 107.346 33.768L112.89 19.2H114.258ZM112.866 22.272L110.034 29.784H115.746L112.866 22.272ZM130.363 34.92C133.747 34.92 135.571 33.432 137.323 31.272L137.803 31.584L135.451 36H123.379V35.4C125.299 35.28 125.707 35.136 125.707 33.312V21.888C125.707 20.04 125.299 19.92 123.379 19.8V19.2H130.411V19.8C128.491 19.92 128.083 20.04 128.083 21.888V34.2C128.083 34.656 128.347 34.92 128.803 34.92H130.363ZM146.892 34.92C150.276 34.92 152.1 33.432 153.852 31.272L154.332 31.584L151.98 36H139.908V35.4C141.828 35.28 142.236 35.136 142.236 33.312V21.888C142.236 20.04 141.828 19.92 139.908 19.8V19.2H146.94V19.8C145.02 19.92 144.612 20.04 144.612 21.888V34.2C144.612 34.656 144.876 34.92 145.332 34.92H146.892ZM164.356 34.92C167.98 34.92 169.804 33.432 171.556 31.272L172.06 31.584L169.708 36H156.436V35.4C158.356 35.28 158.764 35.136 158.764 33.312V21.888C158.764 20.04 158.356 19.92 156.436 19.8V19.2H169.732L171.34 23.112L170.836 23.376C169.324 21.336 167.62 20.28 164.548 20.28H161.86C161.404 20.28 161.14 20.544 161.14 21V26.688H165.028C166.804 26.688 167.14 25.896 167.284 24.36H167.908V30.096H167.284C167.14 28.56 166.804 27.768 165.028 27.768H161.14V34.2C161.14 34.656 161.404 34.92 161.86 34.92H164.356ZM189.279 23.472C189.279 26.232 186.951 27.48 183.783 27.672L188.271 33.96C188.847 34.752 189.471 35.28 191.055 35.4V36H186.951L181.119 27.744H178.863V33.312C178.863 35.136 179.271 35.28 181.191 35.4V36H174.159V35.4C176.079 35.28 176.487 35.136 176.487 33.312V21.888C176.487 20.04 176.199 19.92 174.159 19.8V19.2H182.487C186.471 19.2 189.279 20.352 189.279 23.472ZM186.639 23.472C186.639 21.288 185.151 20.28 182.487 20.28H179.583C179.127 20.28 178.863 20.544 178.863 21V26.688H182.463C185.151 26.688 186.639 25.68 186.639 23.472ZM195.899 35.4C197.819 35.28 198.227 35.136 198.227 33.312V28.992L193.859 21.888C192.923 20.352 192.611 19.92 191.507 19.8V19.2H197.795V19.8C196.139 19.92 195.707 20.472 196.547 21.864L200.051 27.648L203.387 21.888C204.203 20.472 203.747 19.92 202.067 19.8V19.2H207.227V19.8C205.883 19.92 205.499 20.472 204.683 21.888L200.603 28.944V33.312C200.603 35.136 201.011 35.28 202.931 35.4V36H195.899V35.4Z"/>
</mask>
<path d="M100.176 34.632C99.1195 35.616 97.4635 36.36 95.1355 36.36C90.4555 36.36 87.1435 32.664 87.1435 27.6C87.1435 22.536 90.4555 18.84 95.1595 18.84C96.9835 18.84 98.3995 19.344 99.3595 20.04L99.6955 19.2H100.416L101.88 23.88L101.328 24.072C99.8395 21.36 97.8715 19.872 95.3275 19.872C91.4875 19.872 89.7835 23.112 89.7835 27.6C89.7835 32.088 91.4875 35.304 95.2555 35.304C97.3675 35.304 98.9275 34.272 99.4315 33.6V31.008C99.4315 29.184 99.0475 29.04 97.1275 28.92V28.32H104.064V28.92C102.24 29.04 101.808 29.184 101.808 31.008V36H101.088L100.176 34.632ZM114.258 19.2L119.754 33.648C120.162 34.776 120.642 35.28 121.77 35.4V36H115.53V35.4C117.33 35.28 117.738 34.92 117.354 33.912L116.154 30.84H109.626L108.474 33.912C108.114 34.824 108.666 35.28 110.514 35.4V36H105.21V35.4C106.386 35.28 106.962 34.776 107.346 33.768L112.89 19.2H114.258ZM112.866 22.272L110.034 29.784H115.746L112.866 22.272ZM130.363 34.92C133.747 34.92 135.571 33.432 137.323 31.272L137.803 31.584L135.451 36H123.379V35.4C125.299 35.28 125.707 35.136 125.707 33.312V21.888C125.707 20.04 125.299 19.92 123.379 19.8V19.2H130.411V19.8C128.491 19.92 128.083 20.04 128.083 21.888V34.2C128.083 34.656 128.347 34.92 128.803 34.92H130.363ZM146.892 34.92C150.276 34.92 152.1 33.432 153.852 31.272L154.332 31.584L151.98 36H139.908V35.4C141.828 35.28 142.236 35.136 142.236 33.312V21.888C142.236 20.04 141.828 19.92 139.908 19.8V19.2H146.94V19.8C145.02 19.92 144.612 20.04 144.612 21.888V34.2C144.612 34.656 144.876 34.92 145.332 34.92H146.892ZM164.356 34.92C167.98 34.92 169.804 33.432 171.556 31.272L172.06 31.584L169.708 36H156.436V35.4C158.356 35.28 158.764 35.136 158.764 33.312V21.888C158.764 20.04 158.356 19.92 156.436 19.8V19.2H169.732L171.34 23.112L170.836 23.376C169.324 21.336 167.62 20.28 164.548 20.28H161.86C161.404 20.28 161.14 20.544 161.14 21V26.688H165.028C166.804 26.688 167.14 25.896 167.284 24.36H167.908V30.096H167.284C167.14 28.56 166.804 27.768 165.028 27.768H161.14V34.2C161.14 34.656 161.404 34.92 161.86 34.92H164.356ZM189.279 23.472C189.279 26.232 186.951 27.48 183.783 27.672L188.271 33.96C188.847 34.752 189.471 35.28 191.055 35.4V36H186.951L181.119 27.744H178.863V33.312C178.863 35.136 179.271 35.28 181.191 35.4V36H174.159V35.4C176.079 35.28 176.487 35.136 176.487 33.312V21.888C176.487 20.04 176.199 19.92 174.159 19.8V19.2H182.487C186.471 19.2 189.279 20.352 189.279 23.472ZM186.639 23.472C186.639 21.288 185.151 20.28 182.487 20.28H179.583C179.127 20.28 178.863 20.544 178.863 21V26.688H182.463C185.151 26.688 186.639 25.68 186.639 23.472ZM195.899 35.4C197.819 35.28 198.227 35.136 198.227 33.312V28.992L193.859 21.888C192.923 20.352 192.611 19.92 191.507 19.8V19.2H197.795V19.8C196.139 19.92 195.707 20.472 196.547 21.864L200.051 27.648L203.387 21.888C204.203 20.472 203.747 19.92 202.067 19.8V19.2H207.227V19.8C205.883 19.92 205.499 20.472 204.683 21.888L200.603 28.944V33.312C200.603 35.136 201.011 35.28 202.931 35.4V36H195.899V35.4Z" fill="#F9A574"/>
<path d="M100.176 34.632L100.592 34.3547L100.265 33.8651L99.8346 34.2662L100.176 34.632ZM99.3595 20.04L99.066 20.4448L99.5855 20.8214L99.8237 20.2257L99.3595 20.04ZM99.6955 19.2V18.7H99.357L99.2313 19.0143L99.6955 19.2ZM100.416 19.2L100.893 19.0507L100.783 18.7H100.416V19.2ZM101.88 23.88L102.044 24.3522L102.501 24.1931L102.357 23.7307L101.88 23.88ZM101.328 24.072L100.889 24.3125L101.092 24.6831L101.492 24.5442L101.328 24.072ZM99.4315 33.6L99.8315 33.9L99.9315 33.7667V33.6H99.4315ZM97.1275 28.92H96.6275V29.3897L97.0963 29.419L97.1275 28.92ZM97.1275 28.32V27.82H96.6275V28.32H97.1275ZM104.064 28.32H104.564V27.82H104.064V28.32ZM104.064 28.92L104.096 29.4189L104.564 29.3882V28.92H104.064ZM101.808 36V36.5H102.308V36H101.808ZM101.088 36L100.671 36.2773L100.82 36.5H101.088V36ZM100.176 34.632L99.8346 34.2662C98.8821 35.1538 97.3527 35.86 95.1355 35.86V36.36V36.86C97.5743 36.86 99.3569 36.0782 100.516 34.9978L100.176 34.632ZM95.1355 36.36V35.86C90.7762 35.86 87.6435 32.4346 87.6435 27.6H87.1435H86.6435C86.6435 32.8934 90.1348 36.86 95.1355 36.86V36.36ZM87.1435 27.6H87.6435C87.6435 22.7664 90.7752 19.34 95.1595 19.34V18.84V18.34C90.1358 18.34 86.6435 22.3056 86.6435 27.6H87.1435ZM95.1595 18.84V19.34C96.8918 19.34 98.2019 19.8183 99.066 20.4448L99.3595 20.04L99.653 19.6352C98.5971 18.8697 97.0752 18.34 95.1595 18.34V18.84ZM99.3595 20.04L99.8237 20.2257L100.16 19.3857L99.6955 19.2L99.2313 19.0143L98.8953 19.8543L99.3595 20.04ZM99.6955 19.2V19.7H100.416V19.2V18.7H99.6955V19.2ZM100.416 19.2L99.9383 19.3493L101.402 24.0293L101.88 23.88L102.357 23.7307L100.893 19.0507L100.416 19.2ZM101.88 23.88L101.715 23.4078L101.163 23.5998L101.328 24.072L101.492 24.5442L102.044 24.3522L101.88 23.88ZM101.328 24.072L101.766 23.8315C100.224 21.0216 98.1154 19.372 95.3275 19.372V19.872V20.372C97.6276 20.372 99.4548 21.6984 100.889 24.3125L101.328 24.072ZM95.3275 19.872V19.372C93.2417 19.372 91.6981 20.2646 90.6984 21.7773C89.7173 23.262 89.2835 25.3048 89.2835 27.6H89.7835H90.2835C90.2835 25.4072 90.7017 23.586 91.5326 22.3287C92.345 21.0994 93.5733 20.372 95.3275 20.372V19.872ZM89.7835 27.6H89.2835C89.2835 29.8953 89.7173 31.9315 90.6886 33.4096C91.6783 34.9156 93.2035 35.804 95.2555 35.804V35.304V34.804C93.5395 34.804 92.3287 34.0844 91.5244 32.8604C90.7017 31.6085 90.2835 29.7927 90.2835 27.6H89.7835ZM95.2555 35.304V35.804C97.5108 35.804 99.2249 34.7088 99.8315 33.9L99.4315 33.6L99.0315 33.3C98.6301 33.8352 97.2242 34.804 95.2555 34.804V35.304ZM99.4315 33.6H99.9315V31.008H99.4315H98.9315V33.6H99.4315ZM99.4315 31.008H99.9315C99.9315 30.5432 99.908 30.1432 99.8274 29.8112C99.7438 29.4668 99.5918 29.1669 99.3189 28.9403C99.0572 28.723 98.7337 28.6151 98.392 28.5494C98.0504 28.4837 97.6364 28.4508 97.1587 28.421L97.1275 28.92L97.0963 29.419C97.5786 29.4492 97.9326 29.4793 98.203 29.5314C98.4733 29.5834 98.6058 29.648 98.6801 29.7097C98.7432 29.7621 98.8072 29.8477 98.8556 30.0471C98.907 30.2588 98.9315 30.5608 98.9315 31.008H99.4315ZM97.1275 28.92H97.6275V28.32H97.1275H96.6275V28.92H97.1275ZM97.1275 28.32V28.82H104.064V28.32V27.82H97.1275V28.32ZM104.064 28.32H103.564V28.92H104.064H104.564V28.32H104.064ZM104.064 28.92L104.031 28.4211C103.577 28.4509 103.177 28.4839 102.844 28.5499C102.51 28.6161 102.192 28.7246 101.932 28.9403C101.396 29.3852 101.308 30.115 101.308 31.008H101.808H102.308C102.308 30.077 102.435 29.8228 102.571 29.7097C102.647 29.6464 102.779 29.5823 103.039 29.5308C103.3 29.4791 103.638 29.4491 104.096 29.4189L104.064 28.92ZM101.808 31.008H101.308V36H101.808H102.308V31.008H101.808ZM101.808 36V35.5H101.088V36V36.5H101.808V36ZM101.088 36L101.504 35.7227L100.592 34.3547L100.176 34.632L99.7595 34.9093L100.671 36.2773L101.088 36ZM114.258 19.2L114.726 19.0222L114.603 18.7H114.258V19.2ZM119.754 33.648L120.225 33.4779L120.222 33.4702L119.754 33.648ZM121.77 35.4H122.27V34.9504L121.823 34.9028L121.77 35.4ZM121.77 36V36.5H122.27V36H121.77ZM115.53 36H115.03V36.5H115.53V36ZM115.53 35.4L115.497 34.9011L115.03 34.9322V35.4H115.53ZM117.354 33.912L117.822 33.734L117.82 33.7301L117.354 33.912ZM116.154 30.84L116.62 30.6581L116.496 30.34H116.154V30.84ZM109.626 30.84V30.34H109.28L109.158 30.6644L109.626 30.84ZM108.474 33.912L108.94 34.0956L108.943 34.0876L108.474 33.912ZM110.514 35.4H111.014V34.9314L110.547 34.9011L110.514 35.4ZM110.514 36V36.5H111.014V36H110.514ZM105.21 36H104.71V36.5H105.21V36ZM105.21 35.4L105.16 34.9026L104.71 34.9484V35.4H105.21ZM107.346 33.768L107.814 33.946L107.814 33.9458L107.346 33.768ZM112.89 19.2V18.7H112.546L112.423 19.0222L112.89 19.2ZM112.866 22.272L113.333 22.093L112.863 20.865L112.399 22.0956L112.866 22.272ZM110.034 29.784L109.567 29.6076L109.312 30.284H110.034V29.784ZM115.746 29.784V30.284H116.474L116.213 29.605L115.746 29.784ZM114.258 19.2L113.791 19.3778L119.287 33.8258L119.754 33.648L120.222 33.4702L114.726 19.0222L114.258 19.2ZM119.754 33.648L119.284 33.8181C119.498 34.4094 119.755 34.9091 120.157 35.2729C120.571 35.6472 121.085 35.8299 121.718 35.8972L121.77 35.4L121.823 34.9028C121.328 34.8501 121.038 34.7208 120.828 34.5311C120.606 34.3309 120.419 34.0146 120.225 33.4779L119.754 33.648ZM121.77 35.4H121.27V36H121.77H122.27V35.4H121.77ZM121.77 36V35.5H115.53V36V36.5H121.77V36ZM115.53 36H116.03V35.4H115.53H115.03V36H115.53ZM115.53 35.4L115.564 35.8989C116.025 35.8681 116.419 35.8209 116.742 35.7456C117.06 35.6718 117.354 35.5613 117.58 35.3741C117.828 35.1694 117.962 34.8984 117.983 34.5877C118.003 34.3041 117.928 34.0126 117.822 33.734L117.354 33.912L116.887 34.09C116.973 34.3154 116.991 34.4469 116.986 34.5181C116.983 34.5621 116.974 34.5776 116.943 34.6039C116.89 34.6477 116.769 34.7127 116.516 34.7716C116.268 34.8291 115.936 34.8719 115.497 34.9011L115.53 35.4ZM117.354 33.912L117.82 33.7301L116.62 30.6581L116.154 30.84L115.689 31.0219L116.889 34.0939L117.354 33.912ZM116.154 30.84V30.34H109.626V30.84V31.34H116.154V30.84ZM109.626 30.84L109.158 30.6644L108.006 33.7364L108.474 33.912L108.943 34.0876L110.095 31.0156L109.626 30.84ZM108.474 33.912L108.009 33.7284C107.901 34.0036 107.837 34.3011 107.889 34.5979C107.943 34.9118 108.116 35.1651 108.366 35.353C108.604 35.5314 108.908 35.6491 109.248 35.7312C109.592 35.8142 110.004 35.8679 110.482 35.8989L110.514 35.4L110.547 34.9011C110.101 34.8721 109.751 34.8238 109.483 34.7591C109.211 34.6934 109.053 34.6176 108.966 34.553C108.893 34.4979 108.88 34.4587 108.874 34.4269C108.866 34.3779 108.868 34.2764 108.94 34.0956L108.474 33.912ZM110.514 35.4H110.014V36H110.514H111.014V35.4H110.514ZM110.514 36V35.5H105.21V36V36.5H110.514V36ZM105.21 36H105.71V35.4H105.21H104.71V36H105.21ZM105.21 35.4L105.261 35.8974C105.911 35.8311 106.449 35.6529 106.885 35.3098C107.319 34.9677 107.603 34.5001 107.814 33.946L107.346 33.768L106.879 33.59C106.706 34.0439 106.51 34.3323 106.266 34.5242C106.024 34.7151 105.686 34.8489 105.16 34.9026L105.21 35.4ZM107.346 33.768L107.814 33.9458L113.358 19.3778L112.89 19.2L112.423 19.0222L106.879 33.5902L107.346 33.768ZM112.89 19.2V19.7H114.258V19.2V18.7H112.89V19.2ZM112.866 22.272L112.399 22.0956L109.567 29.6076L110.034 29.784L110.502 29.9604L113.334 22.4484L112.866 22.272ZM110.034 29.784V30.284H115.746V29.784V29.284H110.034V29.784ZM115.746 29.784L116.213 29.605L113.333 22.093L112.866 22.272L112.4 22.451L115.28 29.963L115.746 29.784ZM137.323 31.272L137.596 30.8528L137.219 30.6075L136.935 30.957L137.323 31.272ZM137.803 31.584L138.245 31.819L138.46 31.4145L138.076 31.1648L137.803 31.584ZM135.451 36V36.5H135.752L135.893 36.235L135.451 36ZM123.379 36H122.879V36.5H123.379V36ZM123.379 35.4L123.348 34.901L122.879 34.9303V35.4H123.379ZM123.379 19.8H122.879V20.2697L123.348 20.299L123.379 19.8ZM123.379 19.2V18.7H122.879V19.2H123.379ZM130.411 19.2H130.911V18.7H130.411V19.2ZM130.411 19.8L130.443 20.299L130.911 20.2697V19.8H130.411ZM130.363 34.92V35.42C132.135 35.42 133.526 35.0288 134.708 34.3376C135.882 33.6513 136.82 32.686 137.712 31.587L137.323 31.272L136.935 30.957C136.075 32.018 135.225 32.8767 134.203 33.4744C133.189 34.0672 131.976 34.42 130.363 34.42V34.92ZM137.323 31.272L137.051 31.6912L137.531 32.0032L137.803 31.584L138.076 31.1648L137.596 30.8528L137.323 31.272ZM137.803 31.584L137.362 31.349L135.01 35.765L135.451 36L135.893 36.235L138.245 31.819L137.803 31.584ZM135.451 36V35.5H123.379V36V36.5H135.451V36ZM123.379 36H123.879V35.4H123.379H122.879V36H123.379ZM123.379 35.4L123.411 35.899C123.888 35.8692 124.304 35.8363 124.647 35.7707C124.99 35.7051 125.315 35.5978 125.579 35.3824C126.127 34.9361 126.207 34.1994 126.207 33.312H125.707H125.207C125.207 34.2486 125.084 34.4959 124.947 34.6076C124.869 34.6712 124.732 34.7364 124.459 34.7885C124.186 34.8407 123.83 34.8708 123.348 34.901L123.379 35.4ZM125.707 33.312H126.207V21.888H125.707H125.207V33.312H125.707ZM125.707 21.888H126.207C126.207 21.4164 126.182 21.0122 126.099 20.6777C126.012 20.3302 125.855 20.0308 125.577 19.8069C125.312 19.5929 124.986 19.4886 124.644 19.4253C124.302 19.362 123.887 19.3307 123.411 19.301L123.379 19.8L123.348 20.299C123.832 20.3292 124.188 20.358 124.462 20.4087C124.736 20.4594 124.872 20.5231 124.949 20.5851C125.014 20.6372 125.079 20.7218 125.129 20.9203C125.181 21.1318 125.207 21.4356 125.207 21.888H125.707ZM123.379 19.8H123.879V19.2H123.379H122.879V19.8H123.379ZM123.379 19.2V19.7H130.411V19.2V18.7H123.379V19.2ZM130.411 19.2H129.911V19.8H130.411H130.911V19.2H130.411ZM130.411 19.8L130.38 19.301C129.904 19.3307 129.489 19.362 129.147 19.4253C128.804 19.4886 128.478 19.5929 128.213 19.8069C127.936 20.0308 127.779 20.3302 127.692 20.6777C127.608 21.0122 127.583 21.4164 127.583 21.888H128.083H128.583C128.583 21.4356 128.609 21.1318 128.662 20.9203C128.712 20.7218 128.777 20.6372 128.841 20.5851C128.918 20.5231 129.054 20.4594 129.329 20.4087C129.603 20.358 129.959 20.3292 130.443 20.299L130.411 19.8ZM128.083 21.888H127.583V34.2H128.083H128.583V21.888H128.083ZM128.083 34.2H127.583C127.583 34.5237 127.679 34.8446 127.919 35.0846C128.159 35.3245 128.48 35.42 128.803 35.42V34.92V34.42C128.671 34.42 128.632 34.3835 128.626 34.3774C128.62 34.3714 128.583 34.3323 128.583 34.2H128.083ZM128.803 34.92V35.42H130.363V34.92V34.42H128.803V34.92ZM153.852 31.272L154.124 30.8528L153.747 30.6075L153.463 30.957L153.852 31.272ZM154.331 31.584L154.773 31.819L154.988 31.4145L154.604 31.1648L154.331 31.584ZM151.979 36V36.5H152.28L152.421 36.235L151.979 36ZM139.908 36H139.408V36.5H139.908V36ZM139.908 35.4L139.876 34.901L139.408 34.9303V35.4H139.908ZM139.908 19.8H139.408V20.2697L139.876 20.299L139.908 19.8ZM139.908 19.2V18.7H139.408V19.2H139.908ZM146.939 19.2H147.439V18.7H146.939V19.2ZM146.939 19.8L146.971 20.299L147.439 20.2697V19.8H146.939ZM146.891 34.92V35.42C148.663 35.42 150.054 35.0288 151.236 34.3376C152.41 33.6513 153.348 32.686 154.24 31.587L153.852 31.272L153.463 30.957C152.603 32.018 151.753 32.8767 150.731 33.4744C149.717 34.0672 148.504 34.42 146.891 34.42V34.92ZM153.852 31.272L153.579 31.6912L154.059 32.0032L154.331 31.584L154.604 31.1648L154.124 30.8528L153.852 31.272ZM154.331 31.584L153.89 31.349L151.538 35.765L151.979 36L152.421 36.235L154.773 31.819L154.331 31.584ZM151.979 36V35.5H139.908V36V36.5H151.979V36ZM139.908 36H140.408V35.4H139.908H139.408V36H139.908ZM139.908 35.4L139.939 35.899C140.416 35.8692 140.832 35.8363 141.175 35.7707C141.519 35.7051 141.844 35.5978 142.108 35.3824C142.655 34.9361 142.736 34.1994 142.736 33.312H142.236H141.736C141.736 34.2486 141.612 34.4959 141.475 34.6076C141.397 34.6712 141.26 34.7364 140.987 34.7885C140.714 34.8407 140.359 34.8708 139.876 34.901L139.908 35.4ZM142.236 33.312H142.736V21.888H142.236H141.736V33.312H142.236ZM142.236 21.888H142.736C142.736 21.4164 142.71 21.0122 142.627 20.6777C142.54 20.3302 142.383 20.0308 142.106 19.8069C141.84 19.5929 141.514 19.4886 141.172 19.4253C140.83 19.362 140.415 19.3307 139.939 19.301L139.908 19.8L139.876 20.299C140.36 20.3292 140.716 20.358 140.99 20.4087C141.265 20.4594 141.401 20.5231 141.477 20.5851C141.542 20.6372 141.607 20.7218 141.657 20.9203C141.71 21.1318 141.736 21.4356 141.736 21.888H142.236ZM139.908 19.8H140.408V19.2H139.908H139.408V19.8H139.908ZM139.908 19.2V19.7H146.939V19.2V18.7H139.908V19.2ZM146.939 19.2H146.439V19.8H146.939H147.439V19.2H146.939ZM146.939 19.8L146.908 19.301C146.432 19.3307 146.017 19.362 145.675 19.4253C145.333 19.4886 145.007 19.5929 144.741 19.8069C144.464 20.0308 144.307 20.3302 144.22 20.6777C144.137 21.0122 144.111 21.4164 144.111 21.888H144.611H145.111C145.111 21.4356 145.137 21.1318 145.19 20.9203C145.24 20.7218 145.305 20.6372 145.37 20.5851C145.446 20.5231 145.582 20.4594 145.857 20.4087C146.131 20.358 146.487 20.3292 146.971 20.299L146.939 19.8ZM144.611 21.888H144.111V34.2H144.611H145.111V21.888H144.611ZM144.611 34.2H144.111C144.111 34.5237 144.207 34.8446 144.447 35.0846C144.687 35.3245 145.008 35.42 145.332 35.42V34.92V34.42C145.199 34.42 145.16 34.3835 145.154 34.3774C145.148 34.3714 145.111 34.3323 145.111 34.2H144.611ZM145.332 34.92V35.42H146.891V34.92V34.42H145.332V34.92ZM171.556 31.272L171.819 30.8469L171.445 30.6152L171.167 30.957L171.556 31.272ZM172.06 31.584L172.501 31.819L172.721 31.4055L172.323 31.1589L172.06 31.584ZM169.708 36V36.5H170.008L170.149 36.235L169.708 36ZM156.436 36H155.936V36.5H156.436V36ZM156.436 35.4L156.404 34.901L155.936 34.9303V35.4H156.436ZM156.436 19.8H155.936V20.2697L156.404 20.299L156.436 19.8ZM156.436 19.2V18.7H155.936V19.2H156.436ZM169.732 19.2L170.194 19.0099L170.067 18.7H169.732V19.2ZM171.34 23.112L171.572 23.5549L171.975 23.3434L171.802 22.9219L171.34 23.112ZM170.836 23.376L170.434 23.6737L170.689 24.0174L171.068 23.8189L170.836 23.376ZM161.14 26.688H160.64V27.188H161.14V26.688ZM167.284 24.36V23.86H166.828L166.786 24.3133L167.284 24.36ZM167.908 24.36H168.408V23.86H167.908V24.36ZM167.908 30.096V30.596H168.408V30.096H167.908ZM167.284 30.096L166.786 30.1427L166.828 30.596H167.284V30.096ZM161.14 27.768V27.268H160.64V27.768H161.14ZM164.356 34.92V35.42C166.241 35.42 167.691 35.0316 168.905 34.3405C170.112 33.6536 171.052 32.6864 171.944 31.587L171.556 31.272L171.167 30.957C170.307 32.0176 169.459 32.8744 168.41 33.4715C167.368 34.0644 166.094 34.42 164.356 34.42V34.92ZM171.556 31.272L171.292 31.6971L171.796 32.0091L172.06 31.584L172.323 31.1589L171.819 30.8469L171.556 31.272ZM172.06 31.584L171.618 31.349L169.266 35.765L169.708 36L170.149 36.235L172.501 31.819L172.06 31.584ZM169.708 36V35.5H156.436V36V36.5H169.708V36ZM156.436 36H156.936V35.4H156.436H155.936V36H156.436ZM156.436 35.4L156.467 35.899C156.945 35.8692 157.36 35.8363 157.703 35.7707C158.047 35.7051 158.372 35.5978 158.636 35.3824C159.183 34.9361 159.264 34.1994 159.264 33.312H158.764H158.264C158.264 34.2486 158.14 34.4959 158.004 34.6076C157.926 34.6712 157.789 34.7364 157.516 34.7885C157.242 34.8407 156.887 34.8708 156.404 34.901L156.436 35.4ZM158.764 33.312H159.264V21.888H158.764H158.264V33.312H158.764ZM158.764 21.888H159.264C159.264 21.4164 159.239 21.0122 159.155 20.6777C159.068 20.3302 158.911 20.0308 158.634 19.8069C158.369 19.5929 158.043 19.4886 157.7 19.4253C157.358 19.362 156.943 19.3307 156.467 19.301L156.436 19.8L156.404 20.299C156.888 20.3292 157.244 20.358 157.518 20.4087C157.793 20.4594 157.929 20.5231 158.006 20.5851C158.07 20.6372 158.135 20.7218 158.185 20.9203C158.238 21.1318 158.264 21.4356 158.264 21.888H158.764ZM156.436 19.8H156.936V19.2H156.436H155.936V19.8H156.436ZM156.436 19.2V19.7H169.732V19.2V18.7H156.436V19.2ZM169.732 19.2L169.269 19.3901L170.877 23.3021L171.34 23.112L171.802 22.9219L170.194 19.0099L169.732 19.2ZM171.34 23.112L171.108 22.6691L170.604 22.9331L170.836 23.376L171.068 23.8189L171.572 23.5549L171.34 23.112ZM170.836 23.376L171.237 23.0783C170.452 22.0189 169.594 21.1839 168.507 20.6193C167.42 20.0544 166.142 19.78 164.548 19.78V20.28V20.78C166.025 20.78 167.135 21.0336 168.046 21.5067C168.957 21.9801 169.707 22.6931 170.434 23.6737L170.836 23.376ZM164.548 20.28V19.78H161.86V20.28V20.78H164.548V20.28ZM161.86 20.28V19.78C161.536 19.78 161.215 19.8755 160.975 20.1154C160.735 20.3554 160.64 20.6763 160.64 21H161.14H161.64C161.64 20.8677 161.676 20.8286 161.682 20.8226C161.688 20.8165 161.727 20.78 161.86 20.78V20.28ZM161.14 21H160.64V26.688H161.14H161.64V21H161.14ZM161.14 26.688V27.188H165.028V26.688V26.188H161.14V26.688ZM165.028 26.688V27.188C165.978 27.188 166.689 26.9767 167.152 26.4195C167.585 25.8984 167.71 25.1698 167.781 24.4067L167.284 24.36L166.786 24.3133C166.713 25.0862 166.598 25.5216 166.383 25.7805C166.198 26.0033 165.853 26.188 165.028 26.188V26.688ZM167.284 24.36V24.86H167.908V24.36V23.86H167.284V24.36ZM167.908 24.36H167.408V30.096H167.908H168.408V24.36H167.908ZM167.908 30.096V29.596H167.284V30.096V30.596H167.908V30.096ZM167.284 30.096L167.781 30.0493C167.71 29.2862 167.585 28.5576 167.152 28.0365C166.689 27.4793 165.978 27.268 165.028 27.268V27.768V28.268C165.853 28.268 166.198 28.4527 166.383 28.6755C166.598 28.9344 166.713 29.3698 166.786 30.1427L167.284 30.096ZM165.028 27.768V27.268H161.14V27.768V28.268H165.028V27.768ZM161.14 27.768H160.64V34.2H161.14H161.64V27.768H161.14ZM161.14 34.2H160.64C160.64 34.5237 160.735 34.8446 160.975 35.0846C161.215 35.3245 161.536 35.42 161.86 35.42V34.92V34.42C161.727 34.42 161.688 34.3835 161.682 34.3774C161.676 34.3714 161.64 34.3323 161.64 34.2H161.14ZM161.86 34.92V35.42H164.356V34.92V34.42H161.86V34.92ZM183.783 27.672L183.753 27.1729L182.852 27.2275L183.376 27.9625L183.783 27.672ZM188.271 33.96L187.864 34.2505L187.867 34.2541L188.271 33.96ZM191.055 35.4H191.555V34.9364L191.093 34.9014L191.055 35.4ZM191.055 36V36.5H191.555V36H191.055ZM186.951 36L186.543 36.2885L186.692 36.5H186.951V36ZM181.119 27.744L181.527 27.4555L181.378 27.244H181.119V27.744ZM178.863 27.744V27.244H178.363V27.744H178.863ZM181.191 35.4H181.691V34.9303L181.222 34.901L181.191 35.4ZM181.191 36V36.5H181.691V36H181.191ZM174.159 36H173.659V36.5H174.159V36ZM174.159 35.4L174.128 34.901L173.659 34.9303V35.4H174.159ZM174.159 19.8H173.659V20.2715L174.13 20.2991L174.159 19.8ZM174.159 19.2V18.7H173.659V19.2H174.159ZM178.863 26.688H178.363V27.188H178.863V26.688ZM189.279 23.472H188.779C188.779 24.6856 188.279 25.5356 187.433 26.1247C186.561 26.7321 185.291 27.0797 183.753 27.1729L183.783 27.672L183.813 28.1711C185.443 28.0723 186.921 27.6999 188.005 26.9453C189.115 26.1724 189.779 25.0184 189.779 23.472H189.279ZM183.783 27.672L183.376 27.9625L187.864 34.2505L188.271 33.96L188.678 33.6695L184.19 27.3815L183.783 27.672ZM188.271 33.96L187.867 34.2541C188.174 34.6773 188.523 35.0695 189.035 35.365C189.545 35.6595 190.176 35.8348 191.017 35.8986L191.055 35.4L191.093 34.9014C190.35 34.8452 189.877 34.6965 189.535 34.499C189.195 34.3025 188.944 34.0347 188.675 33.6659L188.271 33.96ZM191.055 35.4H190.555V36H191.055H191.555V35.4H191.055ZM191.055 36V35.5H186.951V36V36.5H191.055V36ZM186.951 36L187.359 35.7115L181.527 27.4555L181.119 27.744L180.711 28.0325L186.543 36.2885L186.951 36ZM181.119 27.744V27.244H178.863V27.744V28.244H181.119V27.744ZM178.863 27.744H178.363V33.312H178.863H179.363V27.744H178.863ZM178.863 33.312H178.363C178.363 34.1994 178.444 34.9361 178.991 35.3824C179.255 35.5978 179.58 35.7051 179.924 35.7707C180.267 35.8363 180.682 35.8692 181.16 35.899L181.191 35.4L181.222 34.901C180.74 34.8708 180.384 34.8407 180.111 34.7885C179.838 34.7364 179.701 34.6712 179.623 34.6076C179.486 34.4959 179.363 34.2486 179.363 33.312H178.863ZM181.191 35.4H180.691V36H181.191H181.691V35.4H181.191ZM181.191 36V35.5H174.159V36V36.5H181.191V36ZM174.159 36H174.659V35.4H174.159H173.659V36H174.159ZM174.159 35.4L174.19 35.899C174.668 35.8692 175.083 35.8363 175.427 35.7707C175.77 35.7051 176.095 35.5978 176.359 35.3824C176.906 34.9361 176.987 34.1994 176.987 33.312H176.487H175.987C175.987 34.2486 175.864 34.4959 175.727 34.6076C175.649 34.6712 175.512 34.7364 175.239 34.7885C174.966 34.8407 174.61 34.8708 174.128 34.901L174.159 35.4ZM176.487 33.312H176.987V21.888H176.487H175.987V33.312H176.487ZM176.487 21.888H176.987C176.987 21.4229 176.97 21.0227 176.899 20.6936C176.825 20.352 176.685 20.0455 176.411 19.8139C176.149 19.5929 175.82 19.4881 175.473 19.425C175.125 19.3618 174.695 19.3306 174.188 19.3009L174.159 19.8L174.13 20.2991C174.644 20.3294 175.015 20.3582 175.294 20.409C175.575 20.4599 175.7 20.5231 175.766 20.5781C175.818 20.6225 175.877 20.7 175.921 20.9044C175.968 21.1213 175.987 21.4291 175.987 21.888H176.487ZM174.159 19.8H174.659V19.2H174.159H173.659V19.8H174.159ZM174.159 19.2V19.7H182.487V19.2V18.7H174.159V19.2ZM182.487 19.2V19.7C184.447 19.7 186.042 19.986 187.131 20.6013C188.18 21.194 188.779 22.099 188.779 23.472H189.279H189.779C189.779 21.725 188.974 20.494 187.623 19.7307C186.312 18.99 184.511 18.7 182.487 18.7V19.2ZM186.639 23.472H187.139C187.139 22.2544 186.716 21.2931 185.861 20.656C185.032 20.0389 183.868 19.78 182.487 19.78V20.28V20.78C183.77 20.78 184.682 21.0251 185.263 21.458C185.818 21.8709 186.139 22.5056 186.139 23.472H186.639ZM182.487 20.28V19.78H179.583V20.28V20.78H182.487V20.28ZM179.583 20.28V19.78C179.259 19.78 178.938 19.8755 178.699 20.1154C178.459 20.3554 178.363 20.6763 178.363 21H178.863H179.363C179.363 20.8677 179.4 20.8286 179.406 20.8226C179.412 20.8165 179.451 20.78 179.583 20.78V20.28ZM178.863 21H178.363V26.688H178.863H179.363V21H178.863ZM178.863 26.688V27.188H182.463V26.688V26.188H178.863V26.688ZM182.463 26.688V27.188C183.855 27.188 185.026 26.9295 185.858 26.3088C186.717 25.6678 187.139 24.6999 187.139 23.472H186.639H186.139C186.139 24.4521 185.817 25.0922 185.26 25.5072C184.676 25.9425 183.759 26.188 182.463 26.188V26.688ZM195.899 35.4L195.868 34.901L195.399 34.9303V35.4H195.899ZM198.227 28.992H198.727V28.8506L198.653 28.7301L198.227 28.992ZM193.859 21.888L193.432 22.1482L193.433 22.1499L193.859 21.888ZM191.507 19.8H191.007V20.2486L191.453 20.2971L191.507 19.8ZM191.507 19.2V18.7H191.007V19.2H191.507ZM197.795 19.2H198.295V18.7H197.795V19.2ZM197.795 19.8L197.831 20.2987L198.295 20.2651V19.8H197.795ZM196.547 21.864L196.119 22.1223L196.12 22.1231L196.547 21.864ZM200.051 27.648L199.624 27.9071L200.061 28.6289L200.484 27.8986L200.051 27.648ZM203.387 21.888L203.82 22.1386L203.821 22.1376L203.387 21.888ZM202.067 19.8H201.567V20.2656L202.032 20.2987L202.067 19.8ZM202.067 19.2V18.7H201.567V19.2H202.067ZM207.227 19.2H207.727V18.7H207.227V19.2ZM207.227 19.8L207.272 20.298L207.727 20.2573V19.8H207.227ZM204.683 21.888L205.116 22.1383L205.117 22.1376L204.683 21.888ZM200.603 28.944L200.17 28.6937L200.103 28.8098V28.944H200.603ZM202.931 35.4H203.431V34.9303L202.963 34.901L202.931 35.4ZM202.931 36V36.5H203.431V36H202.931ZM195.899 36H195.399V36.5H195.899V36ZM195.899 35.4L195.931 35.899C196.408 35.8692 196.823 35.8363 197.167 35.7707C197.51 35.7051 197.835 35.5978 198.099 35.3824C198.646 34.9361 198.727 34.1994 198.727 33.312H198.227H197.727C197.727 34.2486 197.604 34.4959 197.467 34.6076C197.389 34.6712 197.252 34.7364 196.979 34.7885C196.706 34.8407 196.35 34.8708 195.868 34.901L195.899 35.4ZM198.227 33.312H198.727V28.992H198.227H197.727V33.312H198.227ZM198.227 28.992L198.653 28.7301L194.285 21.6261L193.859 21.888L193.433 22.1499L197.801 29.2539L198.227 28.992ZM193.859 21.888L194.286 21.6278C193.83 20.8785 193.482 20.3205 193.09 19.9498C192.656 19.5394 192.188 19.3711 191.561 19.3029L191.507 19.8L191.453 20.2971C191.93 20.3489 192.17 20.4566 192.403 20.6762C192.677 20.9355 192.953 21.3615 193.432 22.1482L193.859 21.888ZM191.507 19.8H192.007V19.2H191.507H191.007V19.8H191.507ZM191.507 19.2V19.7H197.795V19.2V18.7H191.507V19.2ZM197.795 19.2H197.295V19.8H197.795H198.295V19.2H197.795ZM197.795 19.8L197.759 19.3013C197.325 19.3328 196.939 19.3942 196.62 19.505C196.302 19.6154 196.003 19.7917 195.815 20.0848C195.62 20.3885 195.595 20.7349 195.665 21.0727C195.734 21.4011 195.896 21.7523 196.119 22.1223L196.547 21.864L196.975 21.6057C196.779 21.2797 196.68 21.0399 196.645 20.8695C196.611 20.7086 196.641 20.6485 196.656 20.6252C196.678 20.5913 196.745 20.5201 196.948 20.4497C197.149 20.3798 197.438 20.3272 197.831 20.2987L197.795 19.8ZM196.547 21.864L196.12 22.1231L199.624 27.9071L200.051 27.648L200.479 27.3889L196.975 21.6049L196.547 21.864ZM200.051 27.648L200.484 27.8986L203.82 22.1386L203.387 21.888L202.955 21.6374L199.619 27.3974L200.051 27.648ZM203.387 21.888L203.821 22.1376C204.038 21.7608 204.193 21.4036 204.254 21.0703C204.316 20.7266 204.28 20.3796 204.078 20.0789C203.883 19.7892 203.581 19.6145 203.258 19.5045C202.934 19.394 202.543 19.3327 202.103 19.3013L202.067 19.8L202.032 20.2987C202.432 20.3273 202.727 20.38 202.936 20.451C203.145 20.5225 203.221 20.5968 203.248 20.6371C203.268 20.6664 203.299 20.7304 203.27 20.8922C203.238 21.0644 203.145 21.3072 202.954 21.6384L203.387 21.888ZM202.067 19.8H202.567V19.2H202.067H201.567V19.8H202.067ZM202.067 19.2V19.7H207.227V19.2V18.7H202.067V19.2ZM207.227 19.2H206.727V19.8H207.227H207.727V19.2H207.227ZM207.227 19.8L207.183 19.302C206.438 19.3685 205.892 19.5636 205.422 19.9867C204.987 20.3795 204.649 20.9461 204.25 21.6384L204.683 21.888L205.117 22.1376C205.534 21.4139 205.796 20.9965 206.092 20.7293C206.355 20.4924 206.673 20.3515 207.272 20.298L207.227 19.8ZM204.683 21.888L204.25 21.6377L200.17 28.6937L200.603 28.944L201.036 29.1943L205.116 22.1383L204.683 21.888ZM200.603 28.944H200.103V33.312H200.603H201.103V28.944H200.603ZM200.603 33.312H200.103C200.103 34.1994 200.184 34.9361 200.731 35.3824C200.995 35.5978 201.32 35.7051 201.664 35.7707C202.007 35.8363 202.422 35.8692 202.9 35.899L202.931 35.4L202.963 34.901C202.48 34.8708 202.124 34.8407 201.851 34.7885C201.578 34.7364 201.441 34.6712 201.363 34.6076C201.227 34.4959 201.103 34.2486 201.103 33.312H200.603ZM202.931 35.4H202.431V36H202.931H203.431V35.4H202.931ZM202.931 36V35.5H195.899V36V36.5H202.931V36ZM195.899 36H196.399V35.4H195.899H195.399V36H195.899Z" fill="black" mask="url(#path-2-outside-1_227_170)"/>
</svg>
