<svg width="292" height="58" viewBox="0 0 292 58" fill="none" xmlns="http://www.w3.org/2000/svg">
<rect x="1.5" y="1.5" width="289" height="55" fill="white" stroke="#0FA44B" stroke-width="3"/>
<mask id="path-2-outside-1_227_173" maskUnits="userSpaceOnUse" x="47" y="18" width="199" height="19" fill="black">
<rect fill="white" x="47" y="18" width="199" height="19"/>
<path d="M56.299 25.8C59.419 26.592 62.851 27.528 62.851 31.128C62.851 34.2 60.115 36.36 56.323 36.36C54.259 36.36 52.435 35.832 50.971 35.016L50.563 36H49.843L48.283 30.84L48.835 30.672C50.515 33.864 53.275 35.328 56.251 35.328C58.723 35.328 60.715 33.888 60.691 31.872C60.667 29.592 58.315 28.944 55.171 28.128C52.219 27.36 49.219 26.472 49.219 23.256C49.219 20.688 51.763 18.84 54.955 18.84C57.163 18.84 58.747 19.416 59.731 20.04L60.067 19.2H60.787L62.251 23.88L61.723 24.072C60.403 21.384 58.291 19.872 55.099 19.872C52.723 19.872 51.331 21.096 51.331 22.536C51.331 24.48 53.611 25.104 56.299 25.8ZM73.7361 34.92C77.3601 34.92 79.1841 33.432 80.9361 31.272L81.4401 31.584L79.0881 36H65.8161V35.4C67.7361 35.28 68.1441 35.136 68.1441 33.312V21.888C68.1441 20.04 67.7361 19.92 65.8161 19.8V19.2H79.1121L80.7201 23.112L80.2161 23.376C78.7041 21.336 77.0001 20.28 73.9281 20.28H71.2401C70.7841 20.28 70.5201 20.544 70.5201 21V26.688H74.4081C76.1841 26.688 76.5201 25.896 76.6641 24.36H77.2881V30.096H76.6641C76.5201 28.56 76.1841 27.768 74.4081 27.768H70.5201V34.2C70.5201 34.656 70.7841 34.92 71.2401 34.92H73.7361ZM91.4595 34.92C95.0835 34.92 96.9075 33.432 98.6595 31.272L99.1635 31.584L96.8115 36H83.5395V35.4C85.4595 35.28 85.8675 35.136 85.8675 33.312V21.888C85.8675 20.04 85.4595 19.92 83.5395 19.8V19.2H96.8355L98.4435 23.112L97.9395 23.376C96.4275 21.336 94.7235 20.28 91.6515 20.28H88.9635C88.5075 20.28 88.2435 20.544 88.2435 21V26.688H92.1315C93.9075 26.688 94.2435 25.896 94.3875 24.36H95.0115V30.096H94.3875C94.2435 28.56 93.9075 27.768 92.1315 27.768H88.2435V34.2C88.2435 34.656 88.5075 34.92 88.9635 34.92H91.4595ZM117.054 33.312C117.054 35.136 117.462 35.28 119.382 35.4V36H112.35V35.4C114.27 35.28 114.678 35.136 114.678 33.312V21C114.678 20.544 114.414 20.28 113.958 20.28C111.174 20.28 110.214 20.928 108.678 23.376L108.15 23.112L109.998 18.672H110.622C110.742 19.032 110.958 19.2 111.318 19.2H120.39C120.75 19.2 120.99 19.032 121.11 18.672H121.71L123.558 23.112L123.03 23.376C121.518 20.928 120.366 20.28 117.774 20.28C117.318 20.28 117.054 20.544 117.054 21V33.312ZM136.322 36V35.4C138.242 35.28 138.65 35.136 138.65 33.312V27.768H130.562V33.312C130.562 35.136 130.97 35.28 132.89 35.4V36H125.858V35.4C127.778 35.28 128.186 35.136 128.186 33.312V21.888C128.186 20.04 127.778 19.92 125.858 19.8V19.2H132.89V19.8C130.97 19.92 130.562 20.04 130.562 21.888V26.688H138.65V21.888C138.65 20.04 138.242 19.92 136.322 19.8V19.2H143.354V19.8C141.434 19.92 141.026 20.04 141.026 21.888V33.312C141.026 35.136 141.434 35.28 143.354 35.4V36H136.322ZM153.916 34.92C157.54 34.92 159.364 33.432 161.116 31.272L161.62 31.584L159.268 36H145.996V35.4C147.916 35.28 148.324 35.136 148.324 33.312V21.888C148.324 20.04 147.916 19.92 145.996 19.8V19.2H159.292L160.9 23.112L160.396 23.376C158.884 21.336 157.18 20.28 154.108 20.28H151.42C150.964 20.28 150.7 20.544 150.7 21V26.688H154.588C156.364 26.688 156.7 25.896 156.844 24.36H157.468V30.096H156.844C156.7 28.56 156.364 27.768 154.588 27.768H150.7V34.2C150.7 34.656 150.964 34.92 151.42 34.92H153.916ZM186.063 31.224C186.063 34.344 183.255 36 179.223 36H170.943V35.4C172.863 35.28 173.271 35.136 173.271 33.312V21.888C173.271 20.04 172.863 19.92 170.943 19.8V19.2H178.815C182.775 19.2 185.583 20.232 185.583 23.352C185.583 25.32 184.239 26.52 181.863 26.976C184.551 27.504 186.063 29.16 186.063 31.224ZM182.943 23.352C182.943 21.168 181.599 20.28 178.887 20.28H176.367C175.911 20.28 175.647 20.544 175.647 21V26.448H179.031C181.455 26.448 182.943 25.56 182.943 23.352ZM183.423 31.224C183.423 29.016 181.959 27.504 179.511 27.504H175.647V34.2C175.647 34.656 175.911 34.92 176.367 34.92H179.223C182.103 34.92 183.423 33.432 183.423 31.224ZM189.377 27.6C189.377 22.536 192.425 18.84 197.345 18.84C202.289 18.84 205.337 22.536 205.337 27.6C205.337 32.664 202.289 36.36 197.345 36.36C192.425 36.36 189.377 32.664 189.377 27.6ZM192.017 27.6C192.017 32.088 193.433 35.304 197.345 35.304C201.281 35.304 202.697 32.088 202.697 27.6C202.697 23.112 201.281 19.872 197.345 19.872C193.433 19.872 192.017 23.112 192.017 27.6ZM208.647 27.6C208.647 22.536 211.695 18.84 216.615 18.84C221.559 18.84 224.607 22.536 224.607 27.6C224.607 32.664 221.559 36.36 216.615 36.36C211.695 36.36 208.647 32.664 208.647 27.6ZM211.287 27.6C211.287 32.088 212.703 35.304 216.615 35.304C220.551 35.304 221.967 32.088 221.967 27.6C221.967 23.112 220.551 19.872 216.615 19.872C212.703 19.872 211.287 23.112 211.287 27.6ZM227.582 36V35.4C229.502 35.28 229.91 35.136 229.91 33.312V21.888C229.91 20.04 229.502 19.92 227.582 19.8V19.2H234.614V19.8C232.694 19.92 232.286 20.04 232.286 21.888V27.744L239.102 21.552C239.678 21.048 240.134 19.944 237.566 19.8V19.2H244.046V19.8C242.678 19.92 242.102 20.28 240.566 21.696L235.982 25.824L242.486 33.984C243.326 35.064 244.43 35.4 244.934 35.4V36H237.83V35.4C239.654 35.28 240.086 34.68 239.102 33.408L234.254 27.432L232.286 29.184V33.312C232.286 35.136 232.694 35.28 234.614 35.4V36H227.582Z"/>
</mask>
<path d="M56.299 25.8C59.419 26.592 62.851 27.528 62.851 31.128C62.851 34.2 60.115 36.36 56.323 36.36C54.259 36.36 52.435 35.832 50.971 35.016L50.563 36H49.843L48.283 30.84L48.835 30.672C50.515 33.864 53.275 35.328 56.251 35.328C58.723 35.328 60.715 33.888 60.691 31.872C60.667 29.592 58.315 28.944 55.171 28.128C52.219 27.36 49.219 26.472 49.219 23.256C49.219 20.688 51.763 18.84 54.955 18.84C57.163 18.84 58.747 19.416 59.731 20.04L60.067 19.2H60.787L62.251 23.88L61.723 24.072C60.403 21.384 58.291 19.872 55.099 19.872C52.723 19.872 51.331 21.096 51.331 22.536C51.331 24.48 53.611 25.104 56.299 25.8ZM73.7361 34.92C77.3601 34.92 79.1841 33.432 80.9361 31.272L81.4401 31.584L79.0881 36H65.8161V35.4C67.7361 35.28 68.1441 35.136 68.1441 33.312V21.888C68.1441 20.04 67.7361 19.92 65.8161 19.8V19.2H79.1121L80.7201 23.112L80.2161 23.376C78.7041 21.336 77.0001 20.28 73.9281 20.28H71.2401C70.7841 20.28 70.5201 20.544 70.5201 21V26.688H74.4081C76.1841 26.688 76.5201 25.896 76.6641 24.36H77.2881V30.096H76.6641C76.5201 28.56 76.1841 27.768 74.4081 27.768H70.5201V34.2C70.5201 34.656 70.7841 34.92 71.2401 34.92H73.7361ZM91.4595 34.92C95.0835 34.92 96.9075 33.432 98.6595 31.272L99.1635 31.584L96.8115 36H83.5395V35.4C85.4595 35.28 85.8675 35.136 85.8675 33.312V21.888C85.8675 20.04 85.4595 19.92 83.5395 19.8V19.2H96.8355L98.4435 23.112L97.9395 23.376C96.4275 21.336 94.7235 20.28 91.6515 20.28H88.9635C88.5075 20.28 88.2435 20.544 88.2435 21V26.688H92.1315C93.9075 26.688 94.2435 25.896 94.3875 24.36H95.0115V30.096H94.3875C94.2435 28.56 93.9075 27.768 92.1315 27.768H88.2435V34.2C88.2435 34.656 88.5075 34.92 88.9635 34.92H91.4595ZM117.054 33.312C117.054 35.136 117.462 35.28 119.382 35.4V36H112.35V35.4C114.27 35.28 114.678 35.136 114.678 33.312V21C114.678 20.544 114.414 20.28 113.958 20.28C111.174 20.28 110.214 20.928 108.678 23.376L108.15 23.112L109.998 18.672H110.622C110.742 19.032 110.958 19.2 111.318 19.2H120.39C120.75 19.2 120.99 19.032 121.11 18.672H121.71L123.558 23.112L123.03 23.376C121.518 20.928 120.366 20.28 117.774 20.28C117.318 20.28 117.054 20.544 117.054 21V33.312ZM136.322 36V35.4C138.242 35.28 138.65 35.136 138.65 33.312V27.768H130.562V33.312C130.562 35.136 130.97 35.28 132.89 35.4V36H125.858V35.4C127.778 35.28 128.186 35.136 128.186 33.312V21.888C128.186 20.04 127.778 19.92 125.858 19.8V19.2H132.89V19.8C130.97 19.92 130.562 20.04 130.562 21.888V26.688H138.65V21.888C138.65 20.04 138.242 19.92 136.322 19.8V19.2H143.354V19.8C141.434 19.92 141.026 20.04 141.026 21.888V33.312C141.026 35.136 141.434 35.28 143.354 35.4V36H136.322ZM153.916 34.92C157.54 34.92 159.364 33.432 161.116 31.272L161.62 31.584L159.268 36H145.996V35.4C147.916 35.28 148.324 35.136 148.324 33.312V21.888C148.324 20.04 147.916 19.92 145.996 19.8V19.2H159.292L160.9 23.112L160.396 23.376C158.884 21.336 157.18 20.28 154.108 20.28H151.42C150.964 20.28 150.7 20.544 150.7 21V26.688H154.588C156.364 26.688 156.7 25.896 156.844 24.36H157.468V30.096H156.844C156.7 28.56 156.364 27.768 154.588 27.768H150.7V34.2C150.7 34.656 150.964 34.92 151.42 34.92H153.916ZM186.063 31.224C186.063 34.344 183.255 36 179.223 36H170.943V35.4C172.863 35.28 173.271 35.136 173.271 33.312V21.888C173.271 20.04 172.863 19.92 170.943 19.8V19.2H178.815C182.775 19.2 185.583 20.232 185.583 23.352C185.583 25.32 184.239 26.52 181.863 26.976C184.551 27.504 186.063 29.16 186.063 31.224ZM182.943 23.352C182.943 21.168 181.599 20.28 178.887 20.28H176.367C175.911 20.28 175.647 20.544 175.647 21V26.448H179.031C181.455 26.448 182.943 25.56 182.943 23.352ZM183.423 31.224C183.423 29.016 181.959 27.504 179.511 27.504H175.647V34.2C175.647 34.656 175.911 34.92 176.367 34.92H179.223C182.103 34.92 183.423 33.432 183.423 31.224ZM189.377 27.6C189.377 22.536 192.425 18.84 197.345 18.84C202.289 18.84 205.337 22.536 205.337 27.6C205.337 32.664 202.289 36.36 197.345 36.36C192.425 36.36 189.377 32.664 189.377 27.6ZM192.017 27.6C192.017 32.088 193.433 35.304 197.345 35.304C201.281 35.304 202.697 32.088 202.697 27.6C202.697 23.112 201.281 19.872 197.345 19.872C193.433 19.872 192.017 23.112 192.017 27.6ZM208.647 27.6C208.647 22.536 211.695 18.84 216.615 18.84C221.559 18.84 224.607 22.536 224.607 27.6C224.607 32.664 221.559 36.36 216.615 36.36C211.695 36.36 208.647 32.664 208.647 27.6ZM211.287 27.6C211.287 32.088 212.703 35.304 216.615 35.304C220.551 35.304 221.967 32.088 221.967 27.6C221.967 23.112 220.551 19.872 216.615 19.872C212.703 19.872 211.287 23.112 211.287 27.6ZM227.582 36V35.4C229.502 35.28 229.91 35.136 229.91 33.312V21.888C229.91 20.04 229.502 19.92 227.582 19.8V19.2H234.614V19.8C232.694 19.92 232.286 20.04 232.286 21.888V27.744L239.102 21.552C239.678 21.048 240.134 19.944 237.566 19.8V19.2H244.046V19.8C242.678 19.92 242.102 20.28 240.566 21.696L235.982 25.824L242.486 33.984C243.326 35.064 244.43 35.4 244.934 35.4V36H237.83V35.4C239.654 35.28 240.086 34.68 239.102 33.408L234.254 27.432L232.286 29.184V33.312C232.286 35.136 232.694 35.28 234.614 35.4V36H227.582Z" fill="#F9A574"/>
<path d="M56.299 25.8L56.1736 26.284L56.1759 26.2846L56.299 25.8ZM50.971 35.016L51.2144 34.5793L50.7241 34.306L50.5091 34.8245L50.971 35.016ZM50.563 36V36.5H50.8969L51.0248 36.1915L50.563 36ZM49.843 36L49.3644 36.1447L49.4718 36.5H49.843V36ZM48.283 30.84L48.1374 30.3617L47.6599 30.507L47.8044 30.9847L48.283 30.84ZM48.835 30.672L49.2774 30.4391L49.0849 30.0733L48.6894 30.1937L48.835 30.672ZM60.691 31.872L60.191 31.8773L60.191 31.878L60.691 31.872ZM55.171 28.128L55.0451 28.6119L55.0454 28.612L55.171 28.128ZM59.731 20.04L59.4632 20.4623L59.9716 20.7847L60.1952 20.2257L59.731 20.04ZM60.067 19.2V18.7H59.7285L59.6027 19.0143L60.067 19.2ZM60.787 19.2L61.2642 19.0507L61.1545 18.7H60.787V19.2ZM62.251 23.88L62.4218 24.3499L62.8708 24.1866L62.7282 23.7307L62.251 23.88ZM61.723 24.072L61.2742 24.2924L61.472 24.6953L61.8938 24.5419L61.723 24.072ZM56.299 25.8L56.1759 26.2846C57.7516 26.6846 59.3095 27.1007 60.4792 27.8345C61.6105 28.5443 62.351 29.5317 62.351 31.128H62.851H63.351C63.351 29.1243 62.3755 27.8437 61.0107 26.9875C59.6844 26.1553 57.9664 25.7074 56.422 25.3154L56.299 25.8ZM62.851 31.128H62.351C62.351 33.8245 59.95 35.86 56.323 35.86V36.36V36.86C60.2799 36.86 63.351 34.5755 63.351 31.128H62.851ZM56.323 36.36V35.86C54.3448 35.86 52.6045 35.3541 51.2144 34.5793L50.971 35.016L50.7275 35.4527C52.2654 36.3099 54.1731 36.86 56.323 36.86V36.36ZM50.971 35.016L50.5091 34.8245L50.1011 35.8085L50.563 36L51.0248 36.1915L51.4328 35.2075L50.971 35.016ZM50.563 36V35.5H49.843V36V36.5H50.563V36ZM49.843 36L50.3216 35.8553L48.7616 30.6953L48.283 30.84L47.8044 30.9847L49.3644 36.1447L49.843 36ZM48.283 30.84L48.4286 31.3183L48.9806 31.1503L48.835 30.672L48.6894 30.1937L48.1374 30.3617L48.283 30.84ZM48.835 30.672L48.3925 30.9049C50.1596 34.2623 53.0907 35.828 56.251 35.828V35.328V34.828C53.4593 34.828 50.8704 33.4657 49.2774 30.4391L48.835 30.672ZM56.251 35.328V35.828C58.8591 35.828 61.2197 34.2843 61.1909 31.866L60.691 31.872L60.191 31.878C60.2102 33.4917 58.5868 34.828 56.251 34.828V35.328ZM60.691 31.872L61.1909 31.8667C61.184 31.2046 61.0057 30.6376 60.6715 30.1552C60.3418 29.6792 59.8795 29.3128 59.3446 29.0144C58.2928 28.4275 56.8487 28.0469 55.2966 27.644L55.171 28.128L55.0454 28.612C56.6373 29.0251 57.9412 29.3765 58.8574 29.8876C59.3065 30.1382 59.6331 30.4123 59.8494 30.7246C60.0613 31.0304 60.186 31.3994 60.191 31.8773L60.691 31.872ZM55.171 28.128L55.2969 27.6441C53.8075 27.2566 52.3991 26.8591 51.3585 26.1895C50.3565 25.5448 49.719 24.6651 49.719 23.256H49.219H48.719C48.719 25.0629 49.5815 26.2352 50.8174 27.0305C52.0148 27.8009 53.5824 28.2314 55.0451 28.6119L55.171 28.128ZM49.219 23.256H49.719C49.719 21.0847 51.9007 19.34 54.955 19.34V18.84V18.34C51.6252 18.34 48.719 20.2913 48.719 23.256H49.219ZM54.955 18.84V19.34C57.0754 19.34 58.5652 19.8928 59.4632 20.4623L59.731 20.04L59.9987 19.6177C58.9288 18.9392 57.2505 18.34 54.955 18.34V18.84ZM59.731 20.04L60.1952 20.2257L60.5312 19.3857L60.067 19.2L59.6027 19.0143L59.2667 19.8543L59.731 20.04ZM60.067 19.2V19.7H60.787V19.2V18.7H60.067V19.2ZM60.787 19.2L60.3098 19.3493L61.7738 24.0293L62.251 23.88L62.7282 23.7307L61.2642 19.0507L60.787 19.2ZM62.251 23.88L62.0801 23.4101L61.5521 23.6021L61.723 24.072L61.8938 24.5419L62.4218 24.3499L62.251 23.88ZM61.723 24.072L62.1718 23.8516C61.4815 22.4459 60.5696 21.319 59.3866 20.5455C58.2015 19.7706 56.7771 19.372 55.099 19.372V19.872V20.372C56.6128 20.372 57.8404 20.7294 58.8393 21.3825C59.8404 22.037 60.6444 23.01 61.2742 24.2924L61.723 24.072ZM55.099 19.872V19.372C52.5873 19.372 50.831 20.6978 50.831 22.536H51.331H51.831C51.831 21.4942 52.8587 20.372 55.099 20.372V19.872ZM51.331 22.536H50.831C50.831 23.7645 51.5778 24.544 52.5706 25.0766C53.5404 25.5968 54.8469 25.9405 56.1736 26.284L56.299 25.8L56.4243 25.316C55.0631 24.9635 53.8856 24.6472 53.0433 24.1954C52.2241 23.756 51.831 23.2515 51.831 22.536H51.331ZM80.9361 31.272L81.1993 30.8469L80.825 30.6152L80.5478 30.957L80.9361 31.272ZM81.4401 31.584L81.8814 31.819L82.1017 31.4055L81.7033 31.1589L81.4401 31.584ZM79.0881 36V36.5H79.3883L79.5294 36.235L79.0881 36ZM65.8161 36H65.3161V36.5H65.8161V36ZM65.8161 35.4L65.7849 34.901L65.3161 34.9303V35.4H65.8161ZM65.8161 19.8H65.3161V20.2697L65.7849 20.299L65.8161 19.8ZM65.8161 19.2V18.7H65.3161V19.2H65.8161ZM79.1121 19.2L79.5746 19.0099L79.4472 18.7H79.1121V19.2ZM80.7201 23.112L80.9521 23.5549L81.3558 23.3434L81.1826 22.9219L80.7201 23.112ZM80.2161 23.376L79.8144 23.6737L80.0691 24.0174L80.4481 23.8189L80.2161 23.376ZM70.5201 26.688H70.0201V27.188H70.5201V26.688ZM76.6641 24.36V23.86H76.2088L76.1663 24.3133L76.6641 24.36ZM77.2881 24.36H77.7881V23.86H77.2881V24.36ZM77.2881 30.096V30.596H77.7881V30.096H77.2881ZM76.6641 30.096L76.1663 30.1427L76.2088 30.596H76.6641V30.096ZM70.5201 27.768V27.268H70.0201V27.768H70.5201ZM73.7361 34.92V35.42C75.6214 35.42 77.0712 35.0316 78.2854 34.3405C79.4923 33.6536 80.4327 32.6864 81.3244 31.587L80.9361 31.272L80.5478 30.957C79.6875 32.0176 78.8398 32.8744 77.7908 33.4715C76.749 34.0644 75.4747 34.42 73.7361 34.42V34.92ZM80.9361 31.272L80.6729 31.6971L81.1769 32.0091L81.4401 31.584L81.7033 31.1589L81.1993 30.8469L80.9361 31.272ZM81.4401 31.584L80.9988 31.349L78.6468 35.765L79.0881 36L79.5294 36.235L81.8814 31.819L81.4401 31.584ZM79.0881 36V35.5H65.8161V36V36.5H79.0881V36ZM65.8161 36H66.3161V35.4H65.8161H65.3161V36H65.8161ZM65.8161 35.4L65.8473 35.899C66.325 35.8692 66.7402 35.8363 67.0836 35.7707C67.4272 35.7051 67.7522 35.5978 68.0162 35.3824C68.5633 34.9361 68.6441 34.1994 68.6441 33.312H68.1441H67.6441C67.6441 34.2486 67.5209 34.4959 67.384 34.6076C67.306 34.6712 67.169 34.7364 66.896 34.7885C66.623 34.8407 66.2671 34.8708 65.7849 34.901L65.8161 35.4ZM68.1441 33.312H68.6441V21.888H68.1441H67.6441V33.312H68.1441ZM68.1441 21.888H68.6441C68.6441 21.4164 68.619 21.0122 68.5354 20.6777C68.4485 20.3302 68.2916 20.0308 68.0141 19.8069C67.749 19.5929 67.423 19.4886 67.0808 19.4253C66.7384 19.362 66.3237 19.3307 65.8473 19.301L65.8161 19.8L65.7849 20.299C66.2685 20.3292 66.6248 20.358 66.8989 20.4087C67.1732 20.4594 67.3092 20.5231 67.3861 20.5851C67.4506 20.6372 67.5157 20.7218 67.5653 20.9203C67.6181 21.1318 67.6441 21.4356 67.6441 21.888H68.1441ZM65.8161 19.8H66.3161V19.2H65.8161H65.3161V19.8H65.8161ZM65.8161 19.2V19.7H79.1121V19.2V18.7H65.8161V19.2ZM79.1121 19.2L78.6496 19.3901L80.2576 23.3021L80.7201 23.112L81.1826 22.9219L79.5746 19.0099L79.1121 19.2ZM80.7201 23.112L80.4881 22.6691L79.9841 22.9331L80.2161 23.376L80.4481 23.8189L80.9521 23.5549L80.7201 23.112ZM80.2161 23.376L80.6178 23.0783C79.8326 22.0189 78.9745 21.1839 77.8876 20.6193C76.8002 20.0544 75.5225 19.78 73.9281 19.78V20.28V20.78C75.4057 20.78 76.5159 21.0336 77.4266 21.5067C78.3377 21.9801 79.0876 22.6931 79.8144 23.6737L80.2161 23.376ZM73.9281 20.28V19.78H71.2401V20.28V20.78H73.9281V20.28ZM71.2401 20.28V19.78C70.9164 19.78 70.5955 19.8755 70.3555 20.1154C70.1156 20.3554 70.0201 20.6763 70.0201 21H70.5201H71.0201C71.0201 20.8677 71.0566 20.8286 71.0627 20.8226C71.0687 20.8165 71.1078 20.78 71.2401 20.78V20.28ZM70.5201 21H70.0201V26.688H70.5201H71.0201V21H70.5201ZM70.5201 26.688V27.188H74.4081V26.688V26.188H70.5201V26.688ZM74.4081 26.688V27.188C75.3588 27.188 76.0698 26.9767 76.5327 26.4195C76.9657 25.8984 77.0904 25.1698 77.1619 24.4067L76.6641 24.36L76.1663 24.3133C76.0938 25.0862 75.9785 25.5216 75.7635 25.7805C75.5784 26.0033 75.2334 26.188 74.4081 26.188V26.688ZM76.6641 24.36V24.86H77.2881V24.36V23.86H76.6641V24.36ZM77.2881 24.36H76.7881V30.096H77.2881H77.7881V24.36H77.2881ZM77.2881 30.096V29.596H76.6641V30.096V30.596H77.2881V30.096ZM76.6641 30.096L77.1619 30.0493C77.0904 29.2862 76.9657 28.5576 76.5327 28.0365C76.0698 27.4793 75.3588 27.268 74.4081 27.268V27.768V28.268C75.2334 28.268 75.5784 28.4527 75.7635 28.6755C75.9785 28.9344 76.0938 29.3698 76.1663 30.1427L76.6641 30.096ZM74.4081 27.768V27.268H70.5201V27.768V28.268H74.4081V27.768ZM70.5201 27.768H70.0201V34.2H70.5201H71.0201V27.768H70.5201ZM70.5201 34.2H70.0201C70.0201 34.5237 70.1156 34.8446 70.3555 35.0846C70.5955 35.3245 70.9164 35.42 71.2401 35.42V34.92V34.42C71.1078 34.42 71.0687 34.3835 71.0627 34.3774C71.0566 34.3714 71.0201 34.3323 71.0201 34.2H70.5201ZM71.2401 34.92V35.42H73.7361V34.92V34.42H71.2401V34.92ZM98.6595 31.272L98.9227 30.8469L98.5485 30.6152L98.2712 30.957L98.6595 31.272ZM99.1635 31.584L99.6048 31.819L99.8251 31.4055L99.4267 31.1589L99.1635 31.584ZM96.8115 36V36.5H97.1117L97.2528 36.235L96.8115 36ZM83.5395 36H83.0395V36.5H83.5395V36ZM83.5395 35.4L83.5083 34.901L83.0395 34.9303V35.4H83.5395ZM83.5395 19.8H83.0395V20.2697L83.5083 20.299L83.5395 19.8ZM83.5395 19.2V18.7H83.0395V19.2H83.5395ZM96.8355 19.2L97.298 19.0099L97.1706 18.7H96.8355V19.2ZM98.4435 23.112L98.6755 23.5549L99.0793 23.3434L98.906 22.9219L98.4435 23.112ZM97.9395 23.376L97.5378 23.6737L97.7926 24.0174L98.1715 23.8189L97.9395 23.376ZM88.2435 26.688H87.7435V27.188H88.2435V26.688ZM94.3875 24.36V23.86H93.9322L93.8897 24.3133L94.3875 24.36ZM95.0115 24.36H95.5115V23.86H95.0115V24.36ZM95.0115 30.096V30.596H95.5115V30.096H95.0115ZM94.3875 30.096L93.8897 30.1427L93.9322 30.596H94.3875V30.096ZM88.2435 27.768V27.268H87.7435V27.768H88.2435ZM91.4595 34.92V35.42C93.3449 35.42 94.7947 35.0316 96.0089 34.3405C97.2158 33.6536 98.1561 32.6864 99.0479 31.587L98.6595 31.272L98.2712 30.957C97.411 32.0176 96.5633 32.8744 95.5142 33.4715C94.4724 34.0644 93.1982 34.42 91.4595 34.42V34.92ZM98.6595 31.272L98.3964 31.6971L98.9004 32.0091L99.1635 31.584L99.4267 31.1589L98.9227 30.8469L98.6595 31.272ZM99.1635 31.584L98.7222 31.349L96.3702 35.765L96.8115 36L97.2528 36.235L99.6048 31.819L99.1635 31.584ZM96.8115 36V35.5H83.5395V36V36.5H96.8115V36ZM83.5395 36H84.0395V35.4H83.5395H83.0395V36H83.5395ZM83.5395 35.4L83.5707 35.899C84.0485 35.8692 84.4637 35.8363 84.8071 35.7707C85.1506 35.7051 85.4756 35.5978 85.7396 35.3824C86.2867 34.9361 86.3675 34.1994 86.3675 33.312H85.8675H85.3675C85.3675 34.2486 85.2443 34.4959 85.1075 34.6076C85.0294 34.6712 84.8925 34.7364 84.6195 34.7885C84.3464 34.8407 83.9906 34.8708 83.5083 34.901L83.5395 35.4ZM85.8675 33.312H86.3675V21.888H85.8675H85.3675V33.312H85.8675ZM85.8675 21.888H86.3675C86.3675 21.4164 86.3425 21.0122 86.2589 20.6777C86.172 20.3302 86.015 20.0308 85.7375 19.8069C85.4724 19.5929 85.1464 19.4886 84.8042 19.4253C84.4619 19.362 84.0471 19.3307 83.5707 19.301L83.5395 19.8L83.5083 20.299C83.9919 20.3292 84.3482 20.358 84.6224 20.4087C84.8966 20.4594 85.0326 20.5231 85.1095 20.5851C85.174 20.6372 85.2391 20.7218 85.2887 20.9203C85.3416 21.1318 85.3675 21.4356 85.3675 21.888H85.8675ZM83.5395 19.8H84.0395V19.2H83.5395H83.0395V19.8H83.5395ZM83.5395 19.2V19.7H96.8355V19.2V18.7H83.5395V19.2ZM96.8355 19.2L96.3731 19.3901L97.9811 23.3021L98.4435 23.112L98.906 22.9219L97.298 19.0099L96.8355 19.2ZM98.4435 23.112L98.2115 22.6691L97.7075 22.9331L97.9395 23.376L98.1715 23.8189L98.6755 23.5549L98.4435 23.112ZM97.9395 23.376L98.3412 23.0783C97.5561 22.0189 96.6979 21.1839 95.611 20.6193C94.5237 20.0544 93.2459 19.78 91.6515 19.78V20.28V20.78C93.1292 20.78 94.2394 21.0336 95.15 21.5067C96.0612 21.9801 96.811 22.6931 97.5378 23.6737L97.9395 23.376ZM91.6515 20.28V19.78H88.9635V20.28V20.78H91.6515V20.28ZM88.9635 20.28V19.78C88.6398 19.78 88.319 19.8755 88.079 20.1154C87.839 20.3554 87.7435 20.6763 87.7435 21H88.2435H88.7435C88.7435 20.8677 88.7801 20.8286 88.7861 20.8226C88.7921 20.8165 88.8312 20.78 88.9635 20.78V20.28ZM88.2435 21H87.7435V26.688H88.2435H88.7435V21H88.2435ZM88.2435 26.688V27.188H92.1315V26.688V26.188H88.2435V26.688ZM92.1315 26.688V27.188C93.0822 27.188 93.7933 26.9767 94.2561 26.4195C94.6891 25.8984 94.8138 25.1698 94.8854 24.4067L94.3875 24.36L93.8897 24.3133C93.8173 25.0862 93.702 25.5216 93.4869 25.7805C93.3018 26.0033 92.9569 26.188 92.1315 26.188V26.688ZM94.3875 24.36V24.86H95.0115V24.36V23.86H94.3875V24.36ZM95.0115 24.36H94.5115V30.096H95.0115H95.5115V24.36H95.0115ZM95.0115 30.096V29.596H94.3875V30.096V30.596H95.0115V30.096ZM94.3875 30.096L94.8854 30.0493C94.8138 29.2862 94.6891 28.5576 94.2561 28.0365C93.7933 27.4793 93.0822 27.268 92.1315 27.268V27.768V28.268C92.9569 28.268 93.3018 28.4527 93.4869 28.6755C93.702 28.9344 93.8173 29.3698 93.8897 30.1427L94.3875 30.096ZM92.1315 27.768V27.268H88.2435V27.768V28.268H92.1315V27.768ZM88.2435 27.768H87.7435V34.2H88.2435H88.7435V27.768H88.2435ZM88.2435 34.2H87.7435C87.7435 34.5237 87.839 34.8446 88.079 35.0846C88.319 35.3245 88.6398 35.42 88.9635 35.42V34.92V34.42C88.8312 34.42 88.7921 34.3835 88.7861 34.3774C88.7801 34.3714 88.7435 34.3323 88.7435 34.2H88.2435ZM88.9635 34.92V35.42H91.4595V34.92V34.42H88.9635V34.92ZM119.382 35.4H119.882V34.9303L119.414 34.901L119.382 35.4ZM119.382 36V36.5H119.882V36H119.382ZM112.35 36H111.85V36.5H112.35V36ZM112.35 35.4L112.319 34.901L111.85 34.9303V35.4H112.35ZM108.678 23.376L108.455 23.8232L108.861 24.0262L109.102 23.6417L108.678 23.376ZM108.15 23.112L107.689 22.9199L107.51 23.3506L107.927 23.5592L108.15 23.112ZM109.998 18.672V18.172H109.665L109.537 18.4799L109.998 18.672ZM110.622 18.672L111.097 18.5139L110.983 18.172H110.622V18.672ZM121.11 18.672V18.172H120.75L120.636 18.5139L121.11 18.672ZM121.71 18.672L122.172 18.4799L122.044 18.172H121.71V18.672ZM123.558 23.112L123.782 23.5592L124.199 23.3506L124.02 22.9199L123.558 23.112ZM123.03 23.376L122.605 23.6387L122.845 24.0276L123.254 23.8232L123.03 23.376ZM117.054 33.312H116.554C116.554 34.1994 116.635 34.9361 117.182 35.3824C117.446 35.5978 117.771 35.7051 118.115 35.7707C118.458 35.8363 118.873 35.8692 119.351 35.899L119.382 35.4L119.414 34.901C118.931 34.8708 118.576 34.8407 118.302 34.7885C118.029 34.7364 117.893 34.6712 117.814 34.6076C117.678 34.4959 117.554 34.2486 117.554 33.312H117.054ZM119.382 35.4H118.882V36H119.382H119.882V35.4H119.382ZM119.382 36V35.5H112.35V36V36.5H119.382V36ZM112.35 36H112.85V35.4H112.35H111.85V36H112.35ZM112.35 35.4L112.382 35.899C112.859 35.8692 113.275 35.8363 113.618 35.7707C113.961 35.7051 114.287 35.5978 114.55 35.3824C115.098 34.9361 115.178 34.1994 115.178 33.312H114.678H114.178C114.178 34.2486 114.055 34.4959 113.918 34.6076C113.84 34.6712 113.703 34.7364 113.43 34.7885C113.157 34.8407 112.801 34.8708 112.319 34.901L112.35 35.4ZM114.678 33.312H115.178V21H114.678H114.178V33.312H114.678ZM114.678 21H115.178C115.178 20.6763 115.083 20.3554 114.843 20.1154C114.603 19.8755 114.282 19.78 113.958 19.78V20.28V20.78C114.091 20.78 114.13 20.8165 114.136 20.8226C114.142 20.8286 114.178 20.8677 114.178 21H114.678ZM113.958 20.28V19.78C112.536 19.78 111.49 19.9431 110.593 20.4813C109.705 21.014 109.029 21.8764 108.255 23.1103L108.678 23.376L109.102 23.6417C109.864 22.4276 110.436 21.742 111.108 21.3387C111.771 20.9409 112.597 20.78 113.958 20.78V20.28ZM108.678 23.376L108.902 22.9288L108.374 22.6648L108.15 23.112L107.927 23.5592L108.455 23.8232L108.678 23.376ZM108.15 23.112L108.612 23.3041L110.46 18.8641L109.998 18.672L109.537 18.4799L107.689 22.9199L108.15 23.112ZM109.998 18.672V19.172H110.622V18.672V18.172H109.998V18.672ZM110.622 18.672L110.148 18.8301C110.228 19.0709 110.359 19.3019 110.577 19.4685C110.799 19.6381 111.059 19.7 111.318 19.7V19.2V18.7C111.218 18.7 111.189 18.6779 111.184 18.6735C111.174 18.6661 111.136 18.6331 111.097 18.5139L110.622 18.672ZM111.318 19.2V19.7H120.39V19.2V18.7H111.318V19.2ZM120.39 19.2V19.7C120.649 19.7 120.909 19.6387 121.134 19.4758C121.358 19.3132 121.5 19.0834 121.585 18.8301L121.11 18.672L120.636 18.5139C120.6 18.6206 120.563 18.6548 120.547 18.6662C120.532 18.6773 120.492 18.7 120.39 18.7V19.2ZM121.11 18.672V19.172H121.71V18.672V18.172H121.11V18.672ZM121.71 18.672L121.249 18.8641L123.097 23.3041L123.558 23.112L124.02 22.9199L122.172 18.4799L121.71 18.672ZM123.558 23.112L123.335 22.6648L122.807 22.9288L123.03 23.376L123.254 23.8232L123.782 23.5592L123.558 23.112ZM123.03 23.376L123.456 23.1133C122.685 21.8658 121.967 21.0083 121.06 20.4783C120.147 19.945 119.107 19.78 117.774 19.78V20.28V20.78C119.034 20.78 119.866 20.939 120.555 21.3417C121.25 21.7477 121.863 22.4382 122.605 23.6387L123.03 23.376ZM117.774 20.28V19.78C117.451 19.78 117.13 19.8755 116.89 20.1154C116.65 20.3554 116.554 20.6763 116.554 21H117.054H117.554C117.554 20.8677 117.591 20.8286 117.597 20.8226C117.603 20.8165 117.642 20.78 117.774 20.78V20.28ZM117.054 21H116.554V33.312H117.054H117.554V21H117.054ZM136.322 36H135.822V36.5H136.322V36ZM136.322 35.4L136.291 34.901L135.822 34.9303V35.4H136.322ZM138.65 27.768H139.15V27.268H138.65V27.768ZM130.562 27.768V27.268H130.062V27.768H130.562ZM132.89 35.4H133.39V34.9303L132.921 34.901L132.89 35.4ZM132.89 36V36.5H133.39V36H132.89ZM125.858 36H125.358V36.5H125.858V36ZM125.858 35.4L125.827 34.901L125.358 34.9303V35.4H125.858ZM125.858 19.8H125.358V20.2697L125.827 20.299L125.858 19.8ZM125.858 19.2V18.7H125.358V19.2H125.858ZM132.89 19.2H133.39V18.7H132.89V19.2ZM132.89 19.8L132.921 20.299L133.39 20.2697V19.8H132.89ZM130.562 26.688H130.062V27.188H130.562V26.688ZM138.65 26.688V27.188H139.15V26.688H138.65ZM136.322 19.8H135.822V20.2697L136.291 20.299L136.322 19.8ZM136.322 19.2V18.7H135.822V19.2H136.322ZM143.354 19.2H143.854V18.7H143.354V19.2ZM143.354 19.8L143.385 20.299L143.854 20.2697V19.8H143.354ZM143.354 35.4H143.854V34.9303L143.385 34.901L143.354 35.4ZM143.354 36V36.5H143.854V36H143.354ZM136.322 36H136.822V35.4H136.322H135.822V36H136.322ZM136.322 35.4L136.353 35.899C136.831 35.8692 137.246 35.8363 137.59 35.7707C137.933 35.7051 138.258 35.5978 138.522 35.3824C139.069 34.9361 139.15 34.1994 139.15 33.312H138.65H138.15C138.15 34.2486 138.027 34.4959 137.89 34.6076C137.812 34.6712 137.675 34.7364 137.402 34.7885C137.129 34.8407 136.773 34.8708 136.291 34.901L136.322 35.4ZM138.65 33.312H139.15V27.768H138.65H138.15V33.312H138.65ZM138.65 27.768V27.268H130.562V27.768V28.268H138.65V27.768ZM130.562 27.768H130.062V33.312H130.562H131.062V27.768H130.562ZM130.562 33.312H130.062C130.062 34.1994 130.143 34.9361 130.69 35.3824C130.954 35.5978 131.279 35.7051 131.623 35.7707C131.966 35.8363 132.381 35.8692 132.859 35.899L132.89 35.4L132.921 34.901C132.439 34.8708 132.083 34.8407 131.81 34.7885C131.537 34.7364 131.4 34.6712 131.322 34.6076C131.185 34.4959 131.062 34.2486 131.062 33.312H130.562ZM132.89 35.4H132.39V36H132.89H133.39V35.4H132.89ZM132.89 36V35.5H125.858V36V36.5H132.89V36ZM125.858 36H126.358V35.4H125.858H125.358V36H125.858ZM125.858 35.4L125.889 35.899C126.367 35.8692 126.782 35.8363 127.126 35.7707C127.469 35.7051 127.794 35.5978 128.058 35.3824C128.605 34.9361 128.686 34.1994 128.686 33.312H128.186H127.686C127.686 34.2486 127.563 34.4959 127.426 34.6076C127.348 34.6712 127.211 34.7364 126.938 34.7885C126.665 34.8407 126.309 34.8708 125.827 34.901L125.858 35.4ZM128.186 33.312H128.686V21.888H128.186H127.686V33.312H128.186ZM128.186 21.888H128.686C128.686 21.4164 128.661 21.0122 128.578 20.6777C128.491 20.3302 128.334 20.0308 128.056 19.8069C127.791 19.5929 127.465 19.4886 127.123 19.4253C126.781 19.362 126.366 19.3307 125.889 19.301L125.858 19.8L125.827 20.299C126.311 20.3292 126.667 20.358 126.941 20.4087C127.215 20.4594 127.351 20.5231 127.428 20.5851C127.493 20.6372 127.558 20.7218 127.607 20.9203C127.66 21.1318 127.686 21.4356 127.686 21.888H128.186ZM125.858 19.8H126.358V19.2H125.858H125.358V19.8H125.858ZM125.858 19.2V19.7H132.89V19.2V18.7H125.858V19.2ZM132.89 19.2H132.39V19.8H132.89H133.39V19.2H132.89ZM132.89 19.8L132.859 19.301C132.383 19.3307 131.968 19.362 131.626 19.4253C131.283 19.4886 130.957 19.5929 130.692 19.8069C130.415 20.0308 130.258 20.3302 130.171 20.6777C130.087 21.0122 130.062 21.4164 130.062 21.888H130.562H131.062C131.062 21.4356 131.088 21.1318 131.141 20.9203C131.191 20.7218 131.256 20.6372 131.32 20.5851C131.397 20.5231 131.533 20.4594 131.807 20.4087C132.082 20.358 132.438 20.3292 132.921 20.299L132.89 19.8ZM130.562 21.888H130.062V26.688H130.562H131.062V21.888H130.562ZM130.562 26.688V27.188H138.65V26.688V26.188H130.562V26.688ZM138.65 26.688H139.15V21.888H138.65H138.15V26.688H138.65ZM138.65 21.888H139.15C139.15 21.4164 139.125 21.0122 139.042 20.6777C138.955 20.3302 138.798 20.0308 138.52 19.8069C138.255 19.5929 137.929 19.4886 137.587 19.4253C137.245 19.362 136.83 19.3307 136.353 19.301L136.322 19.8L136.291 20.299C136.775 20.3292 137.131 20.358 137.405 20.4087C137.679 20.4594 137.815 20.5231 137.892 20.5851C137.957 20.6372 138.022 20.7218 138.071 20.9203C138.124 21.1318 138.15 21.4356 138.15 21.888H138.65ZM136.322 19.8H136.822V19.2H136.322H135.822V19.8H136.322ZM136.322 19.2V19.7H143.354V19.2V18.7H136.322V19.2ZM143.354 19.2H142.854V19.8H143.354H143.854V19.2H143.354ZM143.354 19.8L143.323 19.301C142.847 19.3307 142.432 19.362 142.09 19.4253C141.747 19.4886 141.421 19.5929 141.156 19.8069C140.879 20.0308 140.722 20.3302 140.635 20.6777C140.551 21.0122 140.526 21.4164 140.526 21.888H141.026H141.526C141.526 21.4356 141.552 21.1318 141.605 20.9203C141.655 20.7218 141.72 20.6372 141.784 20.5851C141.861 20.5231 141.997 20.4594 142.271 20.4087C142.546 20.358 142.902 20.3292 143.385 20.299L143.354 19.8ZM141.026 21.888H140.526V33.312H141.026H141.526V21.888H141.026ZM141.026 33.312H140.526C140.526 34.1994 140.607 34.9361 141.154 35.3824C141.418 35.5978 141.743 35.7051 142.087 35.7707C142.43 35.8363 142.845 35.8692 143.323 35.899L143.354 35.4L143.385 34.901C142.903 34.8708 142.547 34.8407 142.274 34.7885C142.001 34.7364 141.864 34.6712 141.786 34.6076C141.649 34.4959 141.526 34.2486 141.526 33.312H141.026ZM143.354 35.4H142.854V36H143.354H143.854V35.4H143.354ZM143.354 36V35.5H136.322V36V36.5H143.354V36ZM161.116 31.272L161.379 30.8469L161.005 30.6152L160.727 30.957L161.116 31.272ZM161.62 31.584L162.061 31.819L162.281 31.4055L161.883 31.1589L161.62 31.584ZM159.268 36V36.5H159.568L159.709 36.235L159.268 36ZM145.996 36H145.496V36.5H145.996V36ZM145.996 35.4L145.965 34.901L145.496 34.9303V35.4H145.996ZM145.996 19.8H145.496V20.2697L145.965 20.299L145.996 19.8ZM145.996 19.2V18.7H145.496V19.2H145.996ZM159.292 19.2L159.754 19.0099L159.627 18.7H159.292V19.2ZM160.9 23.112L161.132 23.5549L161.536 23.3434L161.362 22.9219L160.9 23.112ZM160.396 23.376L159.994 23.6737L160.249 24.0174L160.628 23.8189L160.396 23.376ZM150.7 26.688H150.2V27.188H150.7V26.688ZM156.844 24.36V23.86H156.388L156.346 24.3133L156.844 24.36ZM157.468 24.36H157.968V23.86H157.468V24.36ZM157.468 30.096V30.596H157.968V30.096H157.468ZM156.844 30.096L156.346 30.1427L156.388 30.596H156.844V30.096ZM150.7 27.768V27.268H150.2V27.768H150.7ZM153.916 34.92V35.42C155.801 35.42 157.251 35.0316 158.465 34.3405C159.672 33.6536 160.612 32.6864 161.504 31.587L161.116 31.272L160.727 30.957C159.867 32.0176 159.02 32.8744 157.97 33.4715C156.929 34.0644 155.654 34.42 153.916 34.42V34.92ZM161.116 31.272L160.853 31.6971L161.357 32.0091L161.62 31.584L161.883 31.1589L161.379 30.8469L161.116 31.272ZM161.62 31.584L161.178 31.349L158.826 35.765L159.268 36L159.709 36.235L162.061 31.819L161.62 31.584ZM159.268 36V35.5H145.996V36V36.5H159.268V36ZM145.996 36H146.496V35.4H145.996H145.496V36H145.996ZM145.996 35.4L146.027 35.899C146.505 35.8692 146.92 35.8363 147.263 35.7707C147.607 35.7051 147.932 35.5978 148.196 35.3824C148.743 34.9361 148.824 34.1994 148.824 33.312H148.324H147.824C147.824 34.2486 147.701 34.4959 147.564 34.6076C147.486 34.6712 147.349 34.7364 147.076 34.7885C146.803 34.8407 146.447 34.8708 145.965 34.901L145.996 35.4ZM148.324 33.312H148.824V21.888H148.324H147.824V33.312H148.324ZM148.324 21.888H148.824C148.824 21.4164 148.799 21.0122 148.715 20.6777C148.628 20.3302 148.471 20.0308 148.194 19.8069C147.929 19.5929 147.603 19.4886 147.26 19.4253C146.918 19.362 146.503 19.3307 146.027 19.301L145.996 19.8L145.965 20.299C146.448 20.3292 146.804 20.358 147.079 20.4087C147.353 20.4594 147.489 20.5231 147.566 20.5851C147.63 20.6372 147.695 20.7218 147.745 20.9203C147.798 21.1318 147.824 21.4356 147.824 21.888H148.324ZM145.996 19.8H146.496V19.2H145.996H145.496V19.8H145.996ZM145.996 19.2V19.7H159.292V19.2V18.7H145.996V19.2ZM159.292 19.2L158.829 19.3901L160.437 23.3021L160.9 23.112L161.362 22.9219L159.754 19.0099L159.292 19.2ZM160.9 23.112L160.668 22.6691L160.164 22.9331L160.396 23.376L160.628 23.8189L161.132 23.5549L160.9 23.112ZM160.396 23.376L160.797 23.0783C160.012 22.0189 159.154 21.1839 158.067 20.6193C156.98 20.0544 155.702 19.78 154.108 19.78V20.28V20.78C155.585 20.78 156.696 21.0336 157.606 21.5067C158.517 21.9801 159.267 22.6931 159.994 23.6737L160.396 23.376ZM154.108 20.28V19.78H151.42V20.28V20.78H154.108V20.28ZM151.42 20.28V19.78C151.096 19.78 150.775 19.8755 150.535 20.1154C150.295 20.3554 150.2 20.6763 150.2 21H150.7H151.2C151.2 20.8677 151.236 20.8286 151.242 20.8226C151.248 20.8165 151.287 20.78 151.42 20.78V20.28ZM150.7 21H150.2V26.688H150.7H151.2V21H150.7ZM150.7 26.688V27.188H154.588V26.688V26.188H150.7V26.688ZM154.588 26.688V27.188C155.538 27.188 156.25 26.9767 156.712 26.4195C157.145 25.8984 157.27 25.1698 157.342 24.4067L156.844 24.36L156.346 24.3133C156.274 25.0862 156.158 25.5216 155.943 25.7805C155.758 26.0033 155.413 26.188 154.588 26.188V26.688ZM156.844 24.36V24.86H157.468V24.36V23.86H156.844V24.36ZM157.468 24.36H156.968V30.096H157.468H157.968V24.36H157.468ZM157.468 30.096V29.596H156.844V30.096V30.596H157.468V30.096ZM156.844 30.096L157.342 30.0493C157.27 29.2862 157.145 28.5576 156.712 28.0365C156.25 27.4793 155.538 27.268 154.588 27.268V27.768V28.268C155.413 28.268 155.758 28.4527 155.943 28.6755C156.158 28.9344 156.274 29.3698 156.346 30.1427L156.844 30.096ZM154.588 27.768V27.268H150.7V27.768V28.268H154.588V27.768ZM150.7 27.768H150.2V34.2H150.7H151.2V27.768H150.7ZM150.7 34.2H150.2C150.2 34.5237 150.295 34.8446 150.535 35.0846C150.775 35.3245 151.096 35.42 151.42 35.42V34.92V34.42C151.287 34.42 151.248 34.3835 151.242 34.3774C151.236 34.3714 151.2 34.3323 151.2 34.2H150.7ZM151.42 34.92V35.42H153.916V34.92V34.42H151.42V34.92ZM170.943 36H170.443V36.5H170.943V36ZM170.943 35.4L170.911 34.901L170.443 34.9303V35.4H170.943ZM170.943 19.8H170.443V20.2697L170.911 20.299L170.943 19.8ZM170.943 19.2V18.7H170.443V19.2H170.943ZM181.863 26.976L181.768 26.485L181.766 27.4666L181.863 26.976ZM175.647 26.448H175.147V26.948H175.647V26.448ZM175.647 27.504V27.004H175.147V27.504H175.647ZM186.063 31.224H185.563C185.563 32.6087 184.951 33.6501 183.877 34.366C182.781 35.0965 181.18 35.5 179.223 35.5V36V36.5C181.297 36.5 183.116 36.0755 184.432 35.198C185.77 34.3059 186.563 32.9593 186.563 31.224H186.063ZM179.223 36V35.5H170.943V36V36.5H179.223V36ZM170.943 36H171.443V35.4H170.943H170.443V36H170.943ZM170.943 35.4L170.974 35.899C171.452 35.8692 171.867 35.8363 172.21 35.7707C172.554 35.7051 172.879 35.5978 173.143 35.3824C173.69 34.9361 173.771 34.1994 173.771 33.312H173.271H172.771C172.771 34.2486 172.647 34.4959 172.511 34.6076C172.433 34.6712 172.296 34.7364 172.023 34.7885C171.75 34.8407 171.394 34.8708 170.911 34.901L170.943 35.4ZM173.271 33.312H173.771V21.888H173.271H172.771V33.312H173.271ZM173.271 21.888H173.771C173.771 21.4164 173.746 21.0122 173.662 20.6777C173.575 20.3302 173.418 20.0308 173.141 19.8069C172.876 19.5929 172.55 19.4886 172.207 19.4253C171.865 19.362 171.45 19.3307 170.974 19.301L170.943 19.8L170.911 20.299C171.395 20.3292 171.751 20.358 172.025 20.4087C172.3 20.4594 172.436 20.5231 172.513 20.5851C172.577 20.6372 172.642 20.7218 172.692 20.9203C172.745 21.1318 172.771 21.4356 172.771 21.888H173.271ZM170.943 19.8H171.443V19.2H170.943H170.443V19.8H170.943ZM170.943 19.2V19.7H178.815V19.2V18.7H170.943V19.2ZM178.815 19.2V19.7C180.768 19.7 182.359 19.9576 183.446 20.5457C183.981 20.8354 184.383 21.1998 184.655 21.6465C184.925 22.0925 185.083 22.6493 185.083 23.352H185.583H186.083C186.083 22.4947 185.889 21.7525 185.509 21.1275C185.13 20.5032 184.584 20.0246 183.922 19.6663C182.614 18.9584 180.821 18.7 178.815 18.7V19.2ZM185.583 23.352H185.083C185.083 24.2098 184.795 24.8674 184.269 25.369C183.729 25.8831 182.901 26.2676 181.768 26.485L181.863 26.976L181.957 27.467C183.201 27.2284 184.232 26.7849 184.959 26.093C185.698 25.3886 186.083 24.4622 186.083 23.352H185.583ZM181.863 26.976L181.766 27.4666C184.291 27.9626 185.563 29.465 185.563 31.224H186.063H186.563C186.563 28.855 184.81 27.0454 181.959 26.4854L181.863 26.976ZM182.943 23.352H183.443C183.443 22.1497 183.066 21.2086 182.227 20.5938C181.423 20.004 180.278 19.78 178.887 19.78V20.28V20.78C180.207 20.78 181.09 21 181.636 21.4002C182.148 21.7754 182.443 22.3703 182.443 23.352H182.943ZM178.887 20.28V19.78H176.367V20.28V20.78H178.887V20.28ZM176.367 20.28V19.78C176.043 19.78 175.722 19.8755 175.482 20.1154C175.242 20.3554 175.147 20.6763 175.147 21H175.647H176.147C176.147 20.8677 176.183 20.8286 176.189 20.8226C176.195 20.8165 176.234 20.78 176.367 20.78V20.28ZM175.647 21H175.147V26.448H175.647H176.147V21H175.647ZM175.647 26.448V26.948H179.031V26.448V25.948H175.647V26.448ZM179.031 26.448V26.948C180.289 26.948 181.393 26.7202 182.193 26.1303C183.021 25.5193 183.443 24.5802 183.443 23.352H182.943H182.443C182.443 24.3318 182.121 24.9407 181.599 25.3257C181.048 25.7318 180.197 25.948 179.031 25.948V26.448ZM183.423 31.224H183.923C183.923 30.007 183.517 28.9401 182.733 28.1777C181.951 27.416 180.839 27.004 179.511 27.004V27.504V28.004C180.631 28.004 181.475 28.348 182.036 28.8943C182.597 29.4399 182.923 30.233 182.923 31.224H183.423ZM179.511 27.504V27.004H175.647V27.504V28.004H179.511V27.504ZM175.647 27.504H175.147V34.2H175.647H176.147V27.504H175.647ZM175.647 34.2H175.147C175.147 34.5237 175.242 34.8446 175.482 35.0846C175.722 35.3245 176.043 35.42 176.367 35.42V34.92V34.42C176.234 34.42 176.195 34.3835 176.189 34.3774C176.183 34.3714 176.147 34.3323 176.147 34.2H175.647ZM176.367 34.92V35.42H179.223V34.92V34.42H176.367V34.92ZM179.223 34.92V35.42C180.744 35.42 181.934 35.0264 182.745 34.2645C183.56 33.4987 183.923 32.428 183.923 31.224H183.423H182.923C182.923 32.228 182.625 33.0053 182.06 33.5355C181.492 34.0696 180.581 34.42 179.223 34.42V34.92ZM189.377 27.6H189.877C189.877 25.1662 190.609 23.1014 191.891 21.6522C193.167 20.2094 195.019 19.34 197.345 19.34V18.84V18.34C194.751 18.34 192.62 19.3186 191.142 20.9898C189.669 22.6546 188.877 24.9698 188.877 27.6H189.377ZM197.345 18.84V19.34C199.684 19.34 201.542 20.21 202.821 21.6526C204.105 23.1017 204.837 25.1662 204.837 27.6H205.337H205.837C205.837 24.9698 205.045 22.6543 203.569 20.9894C202.088 19.318 199.95 18.34 197.345 18.34V18.84ZM205.337 27.6H204.837C204.837 30.0338 204.105 32.0983 202.821 33.5474C201.542 34.99 199.684 35.86 197.345 35.86V36.36V36.86C199.95 36.86 202.088 35.882 203.569 34.2106C205.045 32.5457 205.837 30.2302 205.837 27.6H205.337ZM197.345 36.36V35.86C195.019 35.86 193.167 34.9906 191.891 33.5478C190.609 32.0986 189.877 30.0338 189.877 27.6H189.377H188.877C188.877 30.2302 189.669 32.5454 191.142 34.2102C192.62 35.8814 194.751 36.86 197.345 36.86V36.36ZM192.017 27.6H191.517C191.517 29.8809 191.874 31.9169 192.789 33.3977C193.727 34.9169 195.224 35.804 197.345 35.804V35.304V34.804C195.554 34.804 194.387 34.0831 193.64 32.8723C192.868 31.6231 192.517 29.8071 192.517 27.6H192.017ZM197.345 35.304V35.804C199.477 35.804 200.98 34.918 201.922 33.3984C202.84 31.9172 203.197 29.8808 203.197 27.6H202.697H202.197C202.197 29.8072 201.846 31.6228 201.072 32.8716C200.322 34.082 199.149 34.804 197.345 34.804V35.304ZM202.697 27.6H203.197C203.197 25.3191 202.84 23.2772 201.923 21.7904C200.982 20.2653 199.479 19.372 197.345 19.372V19.872V20.372C199.147 20.372 200.321 21.0987 201.072 22.3156C201.846 23.5708 202.197 25.3929 202.197 27.6H202.697ZM197.345 19.872V19.372C195.222 19.372 193.726 20.2664 192.788 21.7911C191.874 23.2776 191.517 25.319 191.517 27.6H192.017H192.517C192.517 25.393 192.868 23.5704 193.64 22.3149C194.389 21.0976 195.556 20.372 197.345 20.372V19.872ZM208.647 27.6H209.147C209.147 25.1662 209.879 23.1014 211.161 21.6522C212.437 20.2094 214.289 19.34 216.615 19.34V18.84V18.34C214.022 18.34 211.89 19.3186 210.412 20.9898C208.94 22.6546 208.147 24.9698 208.147 27.6H208.647ZM216.615 18.84V19.34C218.954 19.34 220.813 20.21 222.091 21.6526C223.376 23.1017 224.107 25.1662 224.107 27.6H224.607H225.107C225.107 24.9698 224.315 22.6543 222.84 20.9894C221.358 19.318 219.221 18.34 216.615 18.34V18.84ZM224.607 27.6H224.107C224.107 30.0338 223.376 32.0983 222.091 33.5474C220.813 34.99 218.954 35.86 216.615 35.86V36.36V36.86C219.221 36.86 221.358 35.882 222.84 34.2106C224.315 32.5457 225.107 30.2302 225.107 27.6H224.607ZM216.615 36.36V35.86C214.289 35.86 212.437 34.9906 211.161 33.5478C209.879 32.0986 209.147 30.0338 209.147 27.6H208.647H208.147C208.147 30.2302 208.94 32.5454 210.412 34.2102C211.89 35.8814 214.022 36.86 216.615 36.86V36.36ZM211.287 27.6H210.787C210.787 29.8809 211.144 31.9169 212.059 33.3977C212.997 34.9169 214.494 35.804 216.615 35.804V35.304V34.804C214.825 34.804 213.658 34.0831 212.91 32.8723C212.138 31.6231 211.787 29.8071 211.787 27.6H211.287ZM216.615 35.304V35.804C218.747 35.804 220.251 34.918 221.192 33.3984C222.11 31.9172 222.467 29.8808 222.467 27.6H221.967H221.467C221.467 29.8072 221.116 31.6228 220.342 32.8716C219.592 34.082 218.419 34.804 216.615 34.804V35.304ZM221.967 27.6H222.467C222.467 25.3191 222.11 23.2772 221.193 21.7904C220.252 20.2653 218.749 19.372 216.615 19.372V19.872V20.372C218.418 20.372 219.591 21.0987 220.342 22.3156C221.116 23.5708 221.467 25.3929 221.467 27.6H221.967ZM216.615 19.872V19.372C214.493 19.372 212.996 20.2664 212.058 21.7911C211.144 23.2776 210.787 25.319 210.787 27.6H211.287H211.787C211.787 25.393 212.138 23.5704 212.91 22.3149C213.659 21.0976 214.826 20.372 216.615 20.372V19.872ZM227.582 36H227.082V36.5H227.582V36ZM227.582 35.4L227.551 34.901L227.082 34.9303V35.4H227.582ZM227.582 19.8H227.082V20.2697L227.551 20.299L227.582 19.8ZM227.582 19.2V18.7H227.082V19.2H227.582ZM234.614 19.2H235.114V18.7H234.614V19.2ZM234.614 19.8L234.645 20.299L235.114 20.2697V19.8H234.614ZM232.286 27.744H231.786V28.8737L232.622 28.1141L232.286 27.744ZM239.102 21.552L238.772 21.1756L238.766 21.1819L239.102 21.552ZM237.566 19.8H237.066V20.2727L237.538 20.2992L237.566 19.8ZM237.566 19.2V18.7H237.066V19.2H237.566ZM244.046 19.2H244.546V18.7H244.046V19.2ZM244.046 19.8L244.089 20.2981L244.546 20.2581V19.8H244.046ZM240.566 21.696L240.9 22.0676L240.905 22.0636L240.566 21.696ZM235.982 25.824L235.647 25.4524L235.297 25.7675L235.591 26.1356L235.982 25.824ZM242.486 33.984L242.88 33.677L242.877 33.6724L242.486 33.984ZM244.934 35.4H245.434V34.9H244.934V35.4ZM244.934 36V36.5H245.434V36H244.934ZM237.83 36H237.33V36.5H237.83V36ZM237.83 35.4L237.797 34.9011L237.33 34.9318V35.4H237.83ZM239.102 33.408L239.497 33.102L239.49 33.093L239.102 33.408ZM234.254 27.432L234.642 27.117L234.312 26.7105L233.921 27.0585L234.254 27.432ZM232.286 29.184L231.953 28.8105L231.786 28.9597V29.184H232.286ZM234.614 35.4H235.114V34.9303L234.645 34.901L234.614 35.4ZM234.614 36V36.5H235.114V36H234.614ZM227.582 36H228.082V35.4H227.582H227.082V36H227.582ZM227.582 35.4L227.613 35.899C228.091 35.8692 228.506 35.8363 228.849 35.7707C229.193 35.7051 229.518 35.5978 229.782 35.3824C230.329 34.9361 230.41 34.1994 230.41 33.312H229.91H229.41C229.41 34.2486 229.287 34.4959 229.15 34.6076C229.072 34.6712 228.935 34.7364 228.662 34.7885C228.389 34.8407 228.033 34.8708 227.551 34.901L227.582 35.4ZM229.91 33.312H230.41V21.888H229.91H229.41V33.312H229.91ZM229.91 21.888H230.41C230.41 21.4164 230.385 21.0122 230.301 20.6777C230.214 20.3302 230.057 20.0308 229.78 19.8069C229.515 19.5929 229.189 19.4886 228.846 19.4253C228.504 19.362 228.089 19.3307 227.613 19.301L227.582 19.8L227.551 20.299C228.034 20.3292 228.39 20.358 228.665 20.4087C228.939 20.4594 229.075 20.5231 229.152 20.5851C229.216 20.6372 229.281 20.7218 229.331 20.9203C229.384 21.1318 229.41 21.4356 229.41 21.888H229.91ZM227.582 19.8H228.082V19.2H227.582H227.082V19.8H227.582ZM227.582 19.2V19.7H234.614V19.2V18.7H227.582V19.2ZM234.614 19.2H234.114V19.8H234.614H235.114V19.2H234.614ZM234.614 19.8L234.583 19.301C234.106 19.3307 233.691 19.362 233.349 19.4253C233.007 19.4886 232.681 19.5929 232.416 19.8069C232.138 20.0308 231.981 20.3302 231.894 20.6777C231.811 21.0122 231.786 21.4164 231.786 21.888H232.286H232.786C232.786 21.4356 232.812 21.1318 232.865 20.9203C232.914 20.7218 232.979 20.6372 233.044 20.5851C233.121 20.5231 233.257 20.4594 233.531 20.4087C233.805 20.358 234.161 20.3292 234.645 20.299L234.614 19.8ZM232.286 21.888H231.786V27.744H232.286H232.786V21.888H232.286ZM232.286 27.744L232.622 28.1141L239.438 21.9221L239.102 21.552L238.766 21.1819L231.95 27.3739L232.286 27.744ZM239.102 21.552L239.431 21.9283C239.613 21.7689 239.798 21.5527 239.918 21.2998C240.038 21.0462 240.111 20.7103 239.98 20.3641C239.849 20.016 239.552 19.7679 239.166 19.6035C238.782 19.4403 238.265 19.3384 237.594 19.3008L237.566 19.8L237.538 20.2992C238.15 20.3336 238.539 20.4237 238.774 20.5237C239.007 20.6226 239.042 20.709 239.045 20.7179C239.049 20.7287 239.061 20.7723 239.014 20.8719C238.966 20.9723 238.878 21.0831 238.772 21.1757L239.102 21.552ZM237.566 19.8H238.066V19.2H237.566H237.066V19.8H237.566ZM237.566 19.2V19.7H244.046V19.2V18.7H237.566V19.2ZM244.046 19.2H243.546V19.8H244.046H244.546V19.2H244.046ZM244.046 19.8L244.002 19.3019C243.273 19.3658 242.713 19.4983 242.126 19.825C241.56 20.1395 240.993 20.6224 240.227 21.3284L240.566 21.696L240.905 22.0636C241.675 21.3536 242.163 20.9485 242.612 20.699C243.038 20.4617 243.45 20.3542 244.089 20.2981L244.046 19.8ZM240.566 21.696L240.231 21.3244L235.647 25.4524L235.982 25.824L236.316 26.1955L240.9 22.0676L240.566 21.696ZM235.982 25.824L235.591 26.1356L242.095 34.2956L242.486 33.984L242.877 33.6724L236.373 25.5124L235.982 25.824ZM242.486 33.984L242.091 34.291C243.024 35.4908 244.273 35.9 244.934 35.9V35.4V34.9C244.587 34.9 243.627 34.6372 242.88 33.677L242.486 33.984ZM244.934 35.4H244.434V36H244.934H245.434V35.4H244.934ZM244.934 36V35.5H237.83V36V36.5H244.934V36ZM237.83 36H238.33V35.4H237.83H237.33V36H237.83ZM237.83 35.4L237.863 35.8989C238.339 35.8676 238.755 35.8035 239.093 35.6918C239.426 35.582 239.742 35.4067 239.937 35.1107C240.144 34.7945 240.153 34.4354 240.054 34.0985C239.96 33.7753 239.76 33.4418 239.497 33.1021L239.102 33.408L238.706 33.7139C238.935 34.0103 239.051 34.2287 239.095 34.3795C239.135 34.5166 239.106 34.5535 239.101 34.5613C239.083 34.5893 239.01 34.666 238.78 34.7422C238.555 34.8165 238.232 34.8724 237.797 34.9011L237.83 35.4ZM239.102 33.408L239.49 33.093L234.642 27.117L234.254 27.432L233.865 27.747L238.713 33.723L239.102 33.408ZM234.254 27.432L233.921 27.0585L231.953 28.8105L232.286 29.184L232.618 29.5575L234.586 27.8055L234.254 27.432ZM232.286 29.184H231.786V33.312H232.286H232.786V29.184H232.286ZM232.286 33.312H231.786C231.786 34.1994 231.867 34.9361 232.414 35.3824C232.678 35.5978 233.003 35.7051 233.346 35.7707C233.69 35.8363 234.105 35.8692 234.583 35.899L234.614 35.4L234.645 34.901C234.163 34.8708 233.807 34.8407 233.534 34.7885C233.261 34.7364 233.124 34.6712 233.046 34.6076C232.909 34.4959 232.786 34.2486 232.786 33.312H232.286ZM234.614 35.4H234.114V36H234.614H235.114V35.4H234.614ZM234.614 36V35.5H227.582V36V36.5H234.614V36Z" fill="black" mask="url(#path-2-outside-1_227_173)"/>
</svg>
