<svg width="103" height="25" viewBox="0 0 103 25" fill="none" xmlns="http://www.w3.org/2000/svg">
<path d="M8.00004 15.1667C8.70728 15.1667 9.38556 14.8858 9.88566 14.3857C10.3858 13.8856 10.6667 13.2073 10.6667 12.5C10.6667 11.7928 10.3858 11.1145 9.88566 10.6144C9.38556 10.1143 8.70728 9.83337 8.00004 9.83337C7.2928 9.83337 6.61452 10.1143 6.11442 10.6144C5.61433 11.1145 5.33337 11.7928 5.33337 12.5C5.33337 13.2073 5.61433 13.8856 6.11442 14.3857C6.61452 14.8858 7.2928 15.1667 8.00004 15.1667Z" stroke="black" stroke-width="1.5" stroke-linecap="round" stroke-linejoin="round"/>
<path d="M2 15.1667V9.83333C2 8.94928 2.35119 8.10143 2.97631 7.47631C3.60143 6.85119 4.44928 6.5 5.33333 6.5H10.6667C11.5507 6.5 12.3986 6.85119 13.0237 7.47631C13.6488 8.10143 14 8.94928 14 9.83333V15.1667C14 16.0507 13.6488 16.8986 13.0237 17.5237C12.3986 18.1488 11.5507 18.5 10.6667 18.5H5.33333C4.44928 18.5 3.60143 18.1488 2.97631 17.5237C2.35119 16.8986 2 16.0507 2 15.1667Z" stroke="black" stroke-width="1.5"/>
<path d="M11.6666 8.84089L11.6741 8.83264" stroke="black" stroke-width="1.5" stroke-linecap="round" stroke-linejoin="round"/>
<path d="M27.2184 16.467C26.5814 16.467 26.2044 16.142 26.1134 15.687C25.6324 16.168 25.0214 16.467 24.2544 16.467C22.7074 16.467 21.9794 15.05 22.3954 13.399C22.7594 11.917 24.1244 10.747 25.6714 10.747C26.3734 10.747 26.8284 10.994 27.0884 11.41L28.0114 10.747H28.3754L27.3224 14.959C27.2184 15.401 27.1794 15.856 27.7644 15.856C28.9084 15.856 30.2084 14.4 30.2084 12.476C30.2084 9.733 28.1154 8.511 25.7754 8.511C22.8764 8.511 20.2374 10.838 20.2374 13.659C20.2374 16.831 22.4864 18.729 25.4114 18.729C26.9844 18.729 28.2714 18.157 29.4544 17.325L29.7274 17.741C28.5444 18.56 27.2444 19.236 25.3984 19.236C22.2784 19.236 19.6914 17.247 19.6914 13.659C19.6914 10.656 22.5904 8.017 25.7624 8.017C28.5574 8.017 30.7024 9.629 30.7024 12.476C30.7024 14.777 29.1164 16.467 27.2184 16.467ZM24.6054 15.895C25.2424 15.895 25.7624 15.57 26.1264 15.037L26.8804 12.034C26.7504 11.566 26.3994 11.306 25.7624 11.306C24.6184 11.306 23.9814 12.268 23.6564 13.607C23.3184 14.946 23.4614 15.895 24.6054 15.895ZM33.9988 8.108C34.4538 8.108 34.7658 8.446 34.7658 8.849C34.7658 9.239 34.4538 9.577 33.9988 9.577C33.5308 9.577 33.2318 9.239 33.2318 8.849C33.2318 8.446 33.5308 8.108 33.9988 8.108ZM31.1518 18.859C31.1518 18.534 31.4248 18.274 31.7498 18.274C32.3088 18.274 32.2828 18.898 32.7248 18.898C33.1018 18.898 33.4008 18.612 33.4008 17.923V12.645C33.4008 12.333 33.2838 12.216 32.9978 12.216H32.5168V11.956L34.1418 10.942H34.5448V16.766C34.5448 18.69 33.5048 19.587 32.1528 19.587C31.5938 19.587 31.1518 19.34 31.1518 18.859ZM36.997 14.062C36.997 12.294 38.219 10.942 40.052 10.942C41.885 10.942 43.12 12.294 43.12 14.062C43.12 15.843 41.885 17.195 40.052 17.195C38.219 17.195 36.997 15.843 36.997 14.062ZM38.245 14.062C38.245 15.57 38.739 16.688 40.052 16.688C41.365 16.688 41.872 15.57 41.872 14.062C41.872 12.554 41.365 11.449 40.052 11.449C38.739 11.449 38.245 12.554 38.245 14.062ZM48.5022 8.719L50.1142 7.705H50.5172V15.999C50.5172 16.467 50.6862 16.61 51.4012 16.675V17C50.7382 17 50.0362 17.065 49.3732 17.195V16.519C48.9832 16.948 48.4112 17.195 47.6442 17.195C45.9152 17.195 44.9402 15.83 44.9402 14.062C44.9402 12.307 45.9152 10.942 47.6442 10.942C48.4112 10.942 48.9832 11.189 49.3732 11.618V9.408C49.3732 9.096 49.2562 8.979 48.9572 8.979H48.5022V8.719ZM47.9302 16.636C48.5672 16.636 49.0482 16.363 49.3732 15.921V12.216C49.0482 11.774 48.5672 11.501 47.9302 11.501C46.6302 11.501 46.1882 12.554 46.1882 14.062C46.1882 15.57 46.6302 16.636 47.9302 16.636ZM55.5042 18.131C55.1142 19.106 54.4902 19.587 53.6842 19.587C52.9952 19.587 52.4232 19.275 52.4232 18.768C52.4232 18.443 52.6832 18.157 53.0602 18.157C53.6192 18.157 53.6972 18.794 54.1522 18.794C54.5032 18.794 54.7892 18.43 54.9842 17.91L55.2832 17.143L53.5542 12.593C53.2552 11.8 53.1382 11.527 52.5272 11.462V11.137H55.3872V11.462C54.4772 11.527 54.5032 11.787 54.7892 12.593L55.9202 15.583L57.1162 12.593C57.4282 11.8 57.2202 11.527 56.4792 11.462V11.137H58.7802V11.462C58.2862 11.527 58.0522 11.8 57.7272 12.593L55.5042 18.131ZM62.3429 18.131C61.9529 19.106 61.3289 19.587 60.5229 19.587C59.8339 19.587 59.2619 19.275 59.2619 18.768C59.2619 18.443 59.5219 18.157 59.8989 18.157C60.4579 18.157 60.5359 18.794 60.9909 18.794C61.3419 18.794 61.6279 18.43 61.8229 17.91L62.1219 17.143L60.3929 12.593C60.0939 11.8 59.9769 11.527 59.3659 11.462V11.137H62.2259V11.462C61.3159 11.527 61.3419 11.787 61.6279 12.593L62.7589 15.583L63.9549 12.593C64.2669 11.8 64.0589 11.527 63.3179 11.462V11.137H65.6189V11.462C65.1249 11.527 64.8909 11.8 64.5659 12.593L62.3429 18.131ZM69.1816 18.131C68.7916 19.106 68.1676 19.587 67.3616 19.587C66.6726 19.587 66.1006 19.275 66.1006 18.768C66.1006 18.443 66.3606 18.157 66.7376 18.157C67.2966 18.157 67.3746 18.794 67.8296 18.794C68.1806 18.794 68.4666 18.43 68.6616 17.91L68.9606 17.143L67.2316 12.593C66.9326 11.8 66.8156 11.527 66.2046 11.462V11.137H69.0646V11.462C68.1546 11.527 68.1806 11.787 68.4666 12.593L69.5976 15.583L70.7936 12.593C71.1056 11.8 70.8976 11.527 70.1566 11.462V11.137H72.4576V11.462C71.9636 11.527 71.7296 11.8 71.4046 12.593L69.1816 18.131ZM78.6058 17.143C78.0858 17.143 77.6958 16.896 77.5918 16.337C76.9938 16.753 76.2268 17.169 75.4338 17.169C74.3548 17.169 73.6788 16.688 73.6788 15.778C73.6788 14.374 75.3428 13.893 77.5658 13.529V12.749C77.5658 11.8 77.3578 11.436 76.6298 11.436C75.8758 11.436 75.4338 11.748 75.2778 12.385C75.1608 12.827 74.9138 13.009 74.6278 13.009C74.3028 13.009 74.1208 12.814 74.1208 12.424C74.1208 11.683 75.1088 10.942 76.6948 10.942C77.7998 10.942 78.7228 11.345 78.7228 12.775V15.83C78.7228 16.311 78.8528 16.532 79.1388 16.532C79.2688 16.532 79.4248 16.493 79.6198 16.389V16.857C79.3468 17.039 79.0348 17.143 78.6058 17.143ZM75.8498 16.506C76.4348 16.506 77.0068 16.22 77.5658 15.83V14.023C75.9798 14.257 74.9268 14.621 74.9268 15.622C74.9268 16.233 75.3168 16.506 75.8498 16.506ZM84.0473 15.531C83.3453 15.531 83.1763 15.349 82.7343 15.349C82.2663 15.349 82.0453 15.57 82.0453 15.804C82.0453 16.233 82.5913 16.311 84.5933 16.376C86.5953 16.441 87.2193 16.922 87.2193 17.858C87.2193 18.963 86.0883 19.587 84.3203 19.587C82.6043 19.587 81.3303 19.262 81.3303 18.196C81.3303 17.702 81.6293 17.364 82.0453 17.143C81.5253 16.922 81.3433 16.584 81.3433 16.09C81.3433 15.414 81.7853 15.037 82.3053 14.959C81.8113 14.543 81.5513 13.932 81.5513 13.243C81.5513 11.93 82.4613 10.942 84.0473 10.942C84.6843 10.942 85.2173 11.111 85.6333 11.397C85.9843 10.864 86.5173 10.5 87.0373 10.5C87.4533 10.5 87.7653 10.721 87.7653 11.098C87.7653 11.358 87.5963 11.605 87.2713 11.605C86.8813 11.605 86.8423 11.28 86.5173 11.28C86.2833 11.28 86.1403 11.462 85.9973 11.735C86.3483 12.125 86.5303 12.658 86.5303 13.243C86.5303 14.53 85.6203 15.531 84.0473 15.531ZM84.0473 15.024C85.0613 15.024 85.3473 14.27 85.3473 13.243C85.3473 12.216 85.0613 11.449 84.0473 11.449C83.0203 11.449 82.7343 12.216 82.7343 13.243C82.7343 14.27 83.0203 15.024 84.0473 15.024ZM82.1363 18.079C82.1363 18.742 82.9683 19.08 84.3203 19.08C85.6593 19.08 86.3873 18.651 86.3873 18.144C86.3873 17.611 85.9453 17.546 84.4243 17.507C83.7223 17.481 83.1763 17.429 82.7343 17.351C82.3183 17.507 82.1363 17.754 82.1363 18.079ZM92.6844 11.956L94.3094 10.942H94.7124V15.999C94.7124 16.467 94.8814 16.61 95.5834 16.675V17C94.9204 17 94.2314 17.065 93.5684 17.195V16.558C93.0614 16.87 92.2554 17.195 91.5534 17.195C90.7864 17.195 89.7074 16.896 89.7074 15.44V12.645C89.7074 12.333 89.5904 12.216 89.3044 12.216H88.8364V11.956L90.4614 10.942H90.8514V15.44C90.8514 16.207 91.2674 16.532 91.8784 16.532C92.4764 16.532 93.0354 16.311 93.5684 15.973V12.645C93.5684 12.333 93.4514 12.216 93.1524 12.216H92.6844V11.956ZM100.204 13.347C101.348 13.633 102.544 13.971 102.544 15.271C102.544 16.441 101.543 17.195 100.217 17.195C99.3853 17.195 98.6053 16.922 98.1503 16.571L97.9943 17H97.6563L97.1883 15.037L97.4743 14.946C98.2543 16.181 99.0993 16.688 100.204 16.688C100.893 16.688 101.582 16.376 101.582 15.635C101.582 14.868 100.737 14.673 99.7103 14.452C98.6053 14.192 97.3963 13.88 97.3963 12.645C97.3963 11.709 98.2543 10.942 99.5153 10.942C100.334 10.942 100.919 11.163 101.309 11.462L101.439 11.137H101.764L102.141 12.814L101.855 12.918C101.244 11.839 100.477 11.436 99.5933 11.436C98.8003 11.436 98.4103 11.8 98.4103 12.281C98.4103 12.931 99.1773 13.126 100.204 13.347Z" fill="black"/>
</svg>
