<svg width="120" height="44" viewBox="0 0 120 44" fill="none" xmlns="http://www.w3.org/2000/svg">
<g filter="url(#filter0_d_227_304)">
<ellipse cx="60.0645" cy="20" rx="58.0645" ry="20" fill="white"/>
<path d="M60.0645 1.0752C76.0121 1.0752 90.4048 3.30392 100.772 6.875C105.961 8.66225 110.083 10.7658 112.887 13.0488C115.699 15.3389 117.054 17.6941 117.054 20C117.054 22.3059 115.699 24.6611 112.887 26.9512C110.083 29.2342 105.961 31.3377 100.772 33.125C90.4048 36.6961 76.0121 38.9248 60.0645 38.9248C44.1168 38.9248 29.7241 36.6961 19.3564 33.125C14.1678 31.3377 10.0457 29.2342 7.24219 26.9512C4.43012 24.6611 3.0752 22.3059 3.0752 20C3.0752 17.6941 4.43012 15.3389 7.24219 13.0488C10.0457 10.7658 14.1678 8.66226 19.3564 6.875C29.7241 3.30392 44.1168 1.0752 60.0645 1.0752Z" stroke="#0FA44B" stroke-width="2.15054"/>
</g>
<mask id="path-3-outside-1_227_304" maskUnits="userSpaceOnUse" x="43.7202" y="16.1935" width="34" height="8" fill="black">
<rect fill="white" x="43.7202" y="16.1935" width="34" height="8"/>
<path d="M47.0942 19.5376C48.2125 19.8215 49.4426 20.157 49.4426 21.4473C49.4426 22.5484 48.4619 23.3226 47.1028 23.3226C46.363 23.3226 45.7092 23.1333 45.1845 22.8409L45.0383 23.1935H44.7802L44.2211 21.3441L44.4189 21.2839C45.0211 22.428 46.0103 22.9527 47.077 22.9527C47.963 22.9527 48.677 22.4366 48.6684 21.714C48.6598 20.8968 47.8168 20.6645 46.6899 20.372C45.6318 20.0968 44.5565 19.7785 44.5565 18.6258C44.5565 17.7054 45.4684 17.043 46.6125 17.043C47.4039 17.043 47.9716 17.2495 48.3243 17.4731L48.4447 17.172H48.7028L49.2275 18.8495L49.0383 18.9183C48.5651 17.9548 47.8082 17.4129 46.6641 17.4129C45.8125 17.4129 45.3135 17.8516 45.3135 18.3677C45.3135 19.0645 46.1307 19.2882 47.0942 19.5376ZM54.3419 23.1935V22.9785C55.0301 22.9355 55.1763 22.8839 55.1763 22.2301V20.243H52.2774V22.2301C52.2774 22.8839 52.4236 22.9355 53.1118 22.9785V23.1935H50.5914V22.9785C51.2795 22.9355 51.4258 22.8839 51.4258 22.2301V18.1355C51.4258 17.4731 51.2795 17.4301 50.5914 17.3871V17.172H53.1118V17.3871C52.4236 17.4301 52.2774 17.4731 52.2774 18.1355V19.8559H55.1763V18.1355C55.1763 17.4731 55.0301 17.4301 54.3419 17.3871V17.172H56.8623V17.3871C56.1741 17.4301 56.0279 17.4731 56.0279 18.1355V22.2301C56.0279 22.8839 56.1741 22.9355 56.8623 22.9785V23.1935H54.3419ZM60.7768 17.172L62.7467 22.3505C62.893 22.7548 63.065 22.9355 63.4693 22.9785V23.1935H61.2327V22.9785C61.8779 22.9355 62.0241 22.8064 61.8865 22.4452L61.4564 21.3441H59.1166L58.7037 22.4452C58.5747 22.772 58.7725 22.9355 59.4349 22.9785V23.1935H57.5338V22.9785C57.9553 22.9355 58.1618 22.7548 58.2994 22.3935L60.2865 17.172H60.7768ZM60.2779 18.2731L59.2629 20.9656H61.3102L60.2779 18.2731ZM69.5514 18.7032C69.5514 19.6925 68.717 20.1398 67.5815 20.2086L69.1901 22.4624C69.3965 22.7462 69.6202 22.9355 70.1879 22.9785V23.1935H68.717L66.6266 20.2344H65.818V22.2301C65.818 22.8839 65.9643 22.9355 66.6524 22.9785V23.1935H64.132V22.9785C64.8202 22.9355 64.9664 22.8839 64.9664 22.2301V18.1355C64.9664 17.4731 64.8632 17.4301 64.132 17.3871V17.172H67.117C68.5449 17.172 69.5514 17.5849 69.5514 18.7032ZM68.6051 18.7032C68.6051 17.9204 68.0718 17.5591 67.117 17.5591H66.0761C65.9127 17.5591 65.818 17.6538 65.818 17.8172V19.8559H67.1084C68.0718 19.8559 68.6051 19.4946 68.6051 18.7032ZM73.6948 22.8064C74.9938 22.8064 75.6475 22.2731 76.2755 21.4989L76.4561 21.6107L75.6131 23.1935H70.8561V22.9785C71.5443 22.9355 71.6905 22.8839 71.6905 22.2301V18.1355C71.6905 17.4731 71.5443 17.4301 70.8561 17.3871V17.172H75.6217L76.1981 18.5742L76.0174 18.6688C75.4755 17.9376 74.8647 17.5591 73.7637 17.5591H72.8002C72.6368 17.5591 72.5422 17.6538 72.5422 17.8172V19.8559H73.9357C74.5723 19.8559 74.6927 19.572 74.7443 19.0215H74.968V21.0774H74.7443C74.6927 20.5269 74.5723 20.243 73.9357 20.243H72.5422V22.5484C72.5422 22.7118 72.6368 22.8064 72.8002 22.8064H73.6948Z"/>
</mask>
<path d="M47.0942 19.5376C48.2125 19.8215 49.4426 20.157 49.4426 21.4473C49.4426 22.5484 48.4619 23.3226 47.1028 23.3226C46.363 23.3226 45.7092 23.1333 45.1845 22.8409L45.0383 23.1935H44.7802L44.2211 21.3441L44.4189 21.2839C45.0211 22.428 46.0103 22.9527 47.077 22.9527C47.963 22.9527 48.677 22.4366 48.6684 21.714C48.6598 20.8968 47.8168 20.6645 46.6899 20.372C45.6318 20.0968 44.5565 19.7785 44.5565 18.6258C44.5565 17.7054 45.4684 17.043 46.6125 17.043C47.4039 17.043 47.9716 17.2495 48.3243 17.4731L48.4447 17.172H48.7028L49.2275 18.8495L49.0383 18.9183C48.5651 17.9548 47.8082 17.4129 46.6641 17.4129C45.8125 17.4129 45.3135 17.8516 45.3135 18.3677C45.3135 19.0645 46.1307 19.2882 47.0942 19.5376ZM54.3419 23.1935V22.9785C55.0301 22.9355 55.1763 22.8839 55.1763 22.2301V20.243H52.2774V22.2301C52.2774 22.8839 52.4236 22.9355 53.1118 22.9785V23.1935H50.5914V22.9785C51.2795 22.9355 51.4258 22.8839 51.4258 22.2301V18.1355C51.4258 17.4731 51.2795 17.4301 50.5914 17.3871V17.172H53.1118V17.3871C52.4236 17.4301 52.2774 17.4731 52.2774 18.1355V19.8559H55.1763V18.1355C55.1763 17.4731 55.0301 17.4301 54.3419 17.3871V17.172H56.8623V17.3871C56.1741 17.4301 56.0279 17.4731 56.0279 18.1355V22.2301C56.0279 22.8839 56.1741 22.9355 56.8623 22.9785V23.1935H54.3419ZM60.7768 17.172L62.7467 22.3505C62.893 22.7548 63.065 22.9355 63.4693 22.9785V23.1935H61.2327V22.9785C61.8779 22.9355 62.0241 22.8064 61.8865 22.4452L61.4564 21.3441H59.1166L58.7037 22.4452C58.5747 22.772 58.7725 22.9355 59.4349 22.9785V23.1935H57.5338V22.9785C57.9553 22.9355 58.1618 22.7548 58.2994 22.3935L60.2865 17.172H60.7768ZM60.2779 18.2731L59.2629 20.9656H61.3102L60.2779 18.2731ZM69.5514 18.7032C69.5514 19.6925 68.717 20.1398 67.5815 20.2086L69.1901 22.4624C69.3965 22.7462 69.6202 22.9355 70.1879 22.9785V23.1935H68.717L66.6266 20.2344H65.818V22.2301C65.818 22.8839 65.9643 22.9355 66.6524 22.9785V23.1935H64.132V22.9785C64.8202 22.9355 64.9664 22.8839 64.9664 22.2301V18.1355C64.9664 17.4731 64.8632 17.4301 64.132 17.3871V17.172H67.117C68.5449 17.172 69.5514 17.5849 69.5514 18.7032ZM68.6051 18.7032C68.6051 17.9204 68.0718 17.5591 67.117 17.5591H66.0761C65.9127 17.5591 65.818 17.6538 65.818 17.8172V19.8559H67.1084C68.0718 19.8559 68.6051 19.4946 68.6051 18.7032ZM73.6948 22.8064C74.9938 22.8064 75.6475 22.2731 76.2755 21.4989L76.4561 21.6107L75.6131 23.1935H70.8561V22.9785C71.5443 22.9355 71.6905 22.8839 71.6905 22.2301V18.1355C71.6905 17.4731 71.5443 17.4301 70.8561 17.3871V17.172H75.6217L76.1981 18.5742L76.0174 18.6688C75.4755 17.9376 74.8647 17.5591 73.7637 17.5591H72.8002C72.6368 17.5591 72.5422 17.6538 72.5422 17.8172V19.8559H73.9357C74.5723 19.8559 74.6927 19.572 74.7443 19.0215H74.968V21.0774H74.7443C74.6927 20.5269 74.5723 20.243 73.9357 20.243H72.5422V22.5484C72.5422 22.7118 72.6368 22.8064 72.8002 22.8064H73.6948Z" fill="#F9A574"/>
<path d="M47.0942 19.5376L47.0403 19.7458L47.0413 19.7461L47.0942 19.5376ZM45.1845 22.8409L45.2892 22.653L45.0783 22.5355L44.9858 22.7585L45.1845 22.8409ZM45.0383 23.1935V23.4086H45.1819L45.2369 23.2759L45.0383 23.1935ZM44.7802 23.1935L44.5743 23.2558L44.6205 23.4086H44.7802V23.1935ZM44.2211 21.3441L44.1584 21.1383L43.9531 21.2008L44.0152 21.4063L44.2211 21.3441ZM44.4189 21.2839L44.6092 21.1837L44.5264 21.0264L44.3563 21.0781L44.4189 21.2839ZM48.6684 21.714L48.4533 21.7162L48.4533 21.7165L48.6684 21.714ZM46.6899 20.372L46.6357 20.5802L46.6358 20.5802L46.6899 20.372ZM48.3243 17.4731L48.2091 17.6547L48.4278 17.7934L48.524 17.553L48.3243 17.4731ZM48.4447 17.172V16.957H48.2991L48.245 17.0922L48.4447 17.172ZM48.7028 17.172L48.908 17.1078L48.8608 16.957H48.7028V17.172ZM49.2275 18.8495L49.301 19.0516L49.4941 18.9813L49.4328 18.7853L49.2275 18.8495ZM49.0383 18.9183L48.8452 19.0131L48.9303 19.1864L49.1118 19.1204L49.0383 18.9183ZM47.0942 19.5376L47.0413 19.7461C47.6071 19.8897 48.1598 20.0377 48.5734 20.2972C48.9705 20.5463 49.2275 20.8898 49.2275 21.4473H49.4426H49.6576C49.6576 20.7145 49.2996 20.245 48.802 19.9329C48.321 19.6311 47.6995 19.4694 47.1471 19.3292L47.0942 19.5376ZM49.4426 21.4473H49.2275C49.2275 22.3869 48.391 23.1075 47.1028 23.1075V23.3226V23.5376C48.5329 23.5376 49.6576 22.7099 49.6576 21.4473H49.4426ZM47.1028 23.3226V23.1075C46.3999 23.1075 45.7822 22.9278 45.2892 22.653L45.1845 22.8409L45.0798 23.0287C45.6363 23.3389 46.3261 23.5376 47.1028 23.5376V23.3226ZM45.1845 22.8409L44.9858 22.7585L44.8396 23.1112L45.0383 23.1935L45.2369 23.2759L45.3832 22.9232L45.1845 22.8409ZM45.0383 23.1935V22.9785H44.7802V23.1935V23.4086H45.0383V23.1935ZM44.7802 23.1935L44.986 23.1313L44.4269 21.2818L44.2211 21.3441L44.0152 21.4063L44.5743 23.2558L44.7802 23.1935ZM44.2211 21.3441L44.2837 21.5498L44.4815 21.4896L44.4189 21.2839L44.3563 21.0781L44.1584 21.1383L44.2211 21.3441ZM44.4189 21.2839L44.2286 21.384C44.8682 22.5993 45.931 23.1677 47.077 23.1677V22.9527V22.7376C46.0896 22.7376 45.1739 22.2566 44.6092 21.1837L44.4189 21.2839ZM47.077 22.9527V23.1677C48.0216 23.1677 48.8941 22.607 48.8834 21.7114L48.6684 21.714L48.4533 21.7165C48.4599 22.2661 47.9044 22.7376 47.077 22.7376V22.9527ZM48.6684 21.714L48.8834 21.7117C48.8808 21.4678 48.815 21.2575 48.6909 21.0782C48.5686 20.9017 48.398 20.7671 48.2033 20.6584C47.8214 20.4454 47.2988 20.3079 46.7439 20.1639L46.6899 20.372L46.6358 20.5802C47.2079 20.7287 47.6702 20.8535 47.9937 21.034C48.1516 21.1221 48.2638 21.2171 48.3373 21.3231C48.4088 21.4264 48.4516 21.5516 48.4533 21.7162L48.6684 21.714ZM46.6899 20.372L46.744 20.1639C46.2093 20.0248 45.7102 19.8835 45.3428 19.6471C44.992 19.4214 44.7716 19.1166 44.7716 18.6258H44.5565H44.3415C44.3415 19.2877 44.6587 19.7184 45.1101 20.0088C45.5449 20.2886 46.1124 20.444 46.6357 20.5802L46.6899 20.372ZM44.5565 18.6258H44.7716C44.7716 17.876 45.5276 17.2581 46.6125 17.2581V17.043V16.828C45.4091 16.828 44.3415 17.5348 44.3415 18.6258H44.5565ZM46.6125 17.043V17.2581C47.3662 17.2581 47.8934 17.4545 48.2091 17.6547L48.3243 17.4731L48.4395 17.2915C48.0498 17.0444 47.4415 16.828 46.6125 16.828V17.043ZM48.3243 17.4731L48.524 17.553L48.6444 17.2519L48.4447 17.172L48.245 17.0922L48.1246 17.3932L48.3243 17.4731ZM48.4447 17.172V17.3871H48.7028V17.172V16.957H48.4447V17.172ZM48.7028 17.172L48.4975 17.2362L49.0223 18.9137L49.2275 18.8495L49.4328 18.7853L48.908 17.1078L48.7028 17.172ZM49.2275 18.8495L49.154 18.6474L48.9648 18.7162L49.0383 18.9183L49.1118 19.1204L49.301 19.0516L49.2275 18.8495ZM49.0383 18.9183L49.2313 18.8235C48.9817 18.3152 48.651 17.9058 48.2205 17.6243C47.789 17.3422 47.2714 17.1978 46.6641 17.1978V17.4129V17.628C47.2008 17.628 47.6337 17.7546 47.9851 17.9843C48.3374 18.2146 48.6217 18.5579 48.8452 19.0131L49.0383 18.9183ZM46.6641 17.4129V17.1978C45.7541 17.1978 45.0985 17.6803 45.0985 18.3677H45.3135H45.5286C45.5286 18.0229 45.8708 17.628 46.6641 17.628V17.4129ZM45.3135 18.3677H45.0985C45.0985 18.8264 45.3788 19.1157 45.7409 19.3099C46.0931 19.4988 46.566 19.623 47.0403 19.7458L47.0942 19.5376L47.1481 19.3294C46.659 19.2028 46.2415 19.0904 45.9442 18.9309C45.6568 18.7768 45.5286 18.6058 45.5286 18.3677H45.3135ZM54.3419 23.1935H54.1268V23.4086H54.3419V23.1935ZM54.3419 22.9785L54.3285 22.7639L54.1268 22.7765V22.9785H54.3419ZM55.1763 20.243H55.3914V20.028H55.1763V20.243ZM52.2774 20.243V20.028H52.0623V20.243H52.2774ZM53.1118 22.9785H53.3268V22.7765L53.1252 22.7639L53.1118 22.9785ZM53.1118 23.1935V23.4086H53.3268V23.1935H53.1118ZM50.5914 23.1935H50.3763V23.4086H50.5914V23.1935ZM50.5914 22.9785L50.5779 22.7639L50.3763 22.7765V22.9785H50.5914ZM50.5914 17.3871H50.3763V17.5891L50.5779 17.6017L50.5914 17.3871ZM50.5914 17.172V16.957H50.3763V17.172H50.5914ZM53.1118 17.172H53.3268V16.957H53.1118V17.172ZM53.1118 17.3871L53.1252 17.6017L53.3268 17.5891V17.3871H53.1118ZM52.2774 19.8559H52.0623V20.071H52.2774V19.8559ZM55.1763 19.8559V20.071H55.3914V19.8559H55.1763ZM54.3419 17.3871H54.1268V17.5891L54.3285 17.6017L54.3419 17.3871ZM54.3419 17.172V16.957H54.1268V17.172H54.3419ZM56.8623 17.172H57.0774V16.957H56.8623V17.172ZM56.8623 17.3871L56.8757 17.6017L57.0774 17.5891V17.3871H56.8623ZM56.8623 22.9785H57.0774V22.7765L56.8757 22.7639L56.8623 22.9785ZM56.8623 23.1935V23.4086H57.0774V23.1935H56.8623ZM54.3419 23.1935H54.5569V22.9785H54.3419H54.1268V23.1935H54.3419ZM54.3419 22.9785L54.3553 23.1931C54.5264 23.1824 54.6773 23.1706 54.8029 23.1466C54.9286 23.1226 55.0518 23.0826 55.1531 23C55.3639 22.828 55.3914 22.5464 55.3914 22.2301H55.1763H54.9612C54.9612 22.5676 54.9156 22.6387 54.8812 22.6667C54.8599 22.6841 54.8176 22.7059 54.7222 22.7241C54.6269 22.7423 54.5015 22.753 54.3285 22.7639L54.3419 22.9785ZM55.1763 22.2301H55.3914V20.243H55.1763H54.9612V22.2301H55.1763ZM55.1763 20.243V20.028H52.2774V20.243V20.4581H55.1763V20.243ZM52.2774 20.243H52.0623V22.2301H52.2774H52.4924V20.243H52.2774ZM52.2774 22.2301H52.0623C52.0623 22.5464 52.0898 22.828 52.3006 23C52.4018 23.0826 52.5251 23.1226 52.6507 23.1466C52.7763 23.1706 52.9273 23.1824 53.0984 23.1931L53.1118 22.9785L53.1252 22.7639C52.9522 22.753 52.8268 22.7423 52.7314 22.7241C52.6361 22.7059 52.5938 22.6841 52.5725 22.6667C52.5381 22.6387 52.4924 22.5676 52.4924 22.2301H52.2774ZM53.1118 22.9785H52.8967V23.1935H53.1118H53.3268V22.9785H53.1118ZM53.1118 23.1935V22.9785H50.5914V23.1935V23.4086H53.1118V23.1935ZM50.5914 23.1935H50.8064V22.9785H50.5914H50.3763V23.1935H50.5914ZM50.5914 22.9785L50.6048 23.1931C50.7758 23.1824 50.9268 23.1706 51.0524 23.1466C51.178 23.1226 51.3013 23.0826 51.4026 23C51.6134 22.828 51.6408 22.5464 51.6408 22.2301H51.4258H51.2107C51.2107 22.5676 51.165 22.6387 51.1307 22.6667C51.1094 22.6841 51.067 22.7059 50.9717 22.7241C50.8763 22.7423 50.7509 22.753 50.5779 22.7639L50.5914 22.9785ZM51.4258 22.2301H51.6408V18.1355H51.4258H51.2107V22.2301H51.4258ZM51.4258 18.1355H51.6408C51.6408 17.9657 51.6319 17.8173 51.6008 17.693C51.5683 17.5631 51.5088 17.4481 51.4017 17.3617C51.2999 17.2795 51.1763 17.2407 51.0512 17.2176C50.926 17.1944 50.7753 17.1831 50.6048 17.1725L50.5914 17.3871L50.5779 17.6017C50.7515 17.6126 50.8771 17.6228 50.9729 17.6405C51.0688 17.6582 51.1108 17.6796 51.1316 17.6964C51.1471 17.7089 51.1671 17.7315 51.1835 17.7973C51.2014 17.8687 51.2107 17.974 51.2107 18.1355H51.4258ZM50.5914 17.3871H50.8064V17.172H50.5914H50.3763V17.3871H50.5914ZM50.5914 17.172V17.3871H53.1118V17.172V16.957H50.5914V17.172ZM53.1118 17.172H52.8967V17.3871H53.1118H53.3268V17.172H53.1118ZM53.1118 17.3871L53.0984 17.1725C52.9279 17.1831 52.7771 17.1944 52.652 17.2176C52.5269 17.2407 52.4032 17.2795 52.3015 17.3617C52.1944 17.4481 52.1348 17.5631 52.1023 17.693C52.0713 17.8173 52.0623 17.9657 52.0623 18.1355H52.2774H52.4924C52.4924 17.974 52.5018 17.8687 52.5196 17.7973C52.5361 17.7315 52.5561 17.7089 52.5716 17.6964C52.5924 17.6796 52.6343 17.6582 52.7302 17.6405C52.826 17.6228 52.9516 17.6126 53.1252 17.6017L53.1118 17.3871ZM52.2774 18.1355H52.0623V19.8559H52.2774H52.4924V18.1355H52.2774ZM52.2774 19.8559V20.071H55.1763V19.8559V19.6409H52.2774V19.8559ZM55.1763 19.8559H55.3914V18.1355H55.1763H54.9612V19.8559H55.1763ZM55.1763 18.1355H55.3914C55.3914 17.9657 55.3824 17.8173 55.3513 17.693C55.3188 17.5631 55.2593 17.4481 55.1522 17.3617C55.0504 17.2795 54.9268 17.2407 54.8017 17.2176C54.6765 17.1944 54.5258 17.1831 54.3553 17.1725L54.3419 17.3871L54.3285 17.6017C54.5021 17.6126 54.6277 17.6228 54.7235 17.6405C54.8193 17.6582 54.8613 17.6796 54.8821 17.6964C54.8976 17.7089 54.9176 17.7315 54.9341 17.7973C54.9519 17.8687 54.9612 17.974 54.9612 18.1355H55.1763ZM54.3419 17.3871H54.5569V17.172H54.3419H54.1268V17.3871H54.3419ZM54.3419 17.172V17.3871H56.8623V17.172V16.957H54.3419V17.172ZM56.8623 17.172H56.6473V17.3871H56.8623H57.0774V17.172H56.8623ZM56.8623 17.3871L56.8489 17.1725C56.6784 17.1831 56.5277 17.1944 56.4025 17.2176C56.2774 17.2407 56.1538 17.2795 56.052 17.3617C55.9449 17.4481 55.8854 17.5631 55.8529 17.693C55.8218 17.8173 55.8129 17.9657 55.8129 18.1355H56.0279H56.243C56.243 17.974 56.2523 17.8687 56.2701 17.7973C56.2866 17.7315 56.3066 17.7089 56.3221 17.6964C56.3429 17.6796 56.3849 17.6582 56.4807 17.6405C56.5765 17.6228 56.7022 17.6126 56.8757 17.6017L56.8623 17.3871ZM56.0279 18.1355H55.8129V22.2301H56.0279H56.243V18.1355H56.0279ZM56.0279 22.2301H55.8129C55.8129 22.5464 55.8403 22.828 56.0511 23C56.1524 23.0826 56.2756 23.1226 56.4013 23.1466C56.5269 23.1706 56.6778 23.1824 56.8489 23.1931L56.8623 22.9785L56.8757 22.7639C56.7027 22.753 56.5773 22.7423 56.482 22.7241C56.3866 22.7059 56.3443 22.6841 56.323 22.6667C56.2886 22.6387 56.243 22.5676 56.243 22.2301H56.0279ZM56.8623 22.9785H56.6473V23.1935H56.8623H57.0774V22.9785H56.8623ZM56.8623 23.1935V22.9785H54.3419V23.1935V23.4086H56.8623V23.1935ZM60.7768 17.172L60.9778 17.0956L60.9251 16.957H60.7768V17.172ZM62.7467 22.3505L62.949 22.2774L62.9477 22.2741L62.7467 22.3505ZM63.4693 22.9785H63.6844V22.7851L63.4921 22.7646L63.4693 22.9785ZM63.4693 23.1935V23.4086H63.6844V23.1935H63.4693ZM61.2327 23.1935H61.0177V23.4086H61.2327V23.1935ZM61.2327 22.9785L61.2184 22.7639L61.0177 22.7773V22.9785H61.2327ZM61.8865 22.4452L62.0875 22.3686L62.0868 22.3669L61.8865 22.4452ZM61.4564 21.3441L61.6567 21.2658L61.6033 21.129H61.4564V21.3441ZM59.1166 21.3441V21.129H58.9676L58.9153 21.2686L59.1166 21.3441ZM58.7037 22.4452L58.9038 22.5241L58.9051 22.5207L58.7037 22.4452ZM59.4349 22.9785H59.65V22.7769L59.4488 22.7639L59.4349 22.9785ZM59.4349 23.1935V23.4086H59.65V23.1935H59.4349ZM57.5338 23.1935H57.3188V23.4086H57.5338V23.1935ZM57.5338 22.9785L57.512 22.7645L57.3188 22.7843V22.9785H57.5338ZM58.2994 22.3935L58.5004 22.4701L58.5004 22.47L58.2994 22.3935ZM60.2865 17.172V16.957H60.1383L60.0855 17.0955L60.2865 17.172ZM60.2779 18.2731L60.4787 18.1961L60.2762 17.668L60.0767 18.1972L60.2779 18.2731ZM59.2629 20.9656L59.0616 20.8897L58.952 21.1806H59.2629V20.9656ZM61.3102 20.9656V21.1806H61.6229L61.511 20.8886L61.3102 20.9656ZM60.7768 17.172L60.5758 17.2485L62.5457 22.427L62.7467 22.3505L62.9477 22.2741L60.9778 17.0956L60.7768 17.172ZM62.7467 22.3505L62.5445 22.4237C62.6219 22.6376 62.7163 22.8233 62.867 22.9595C63.0228 23.1003 63.2151 23.1677 63.4466 23.1923L63.4693 22.9785L63.4921 22.7646C63.3192 22.7463 63.2234 22.7018 63.1554 22.6405C63.0826 22.5746 63.0178 22.4678 62.949 22.2774L62.7467 22.3505ZM63.4693 22.9785H63.2543V23.1935H63.4693H63.6844V22.9785H63.4693ZM63.4693 23.1935V22.9785H61.2327V23.1935V23.4086H63.4693V23.1935ZM61.2327 23.1935H61.4478V22.9785H61.2327H61.0177V23.1935H61.2327ZM61.2327 22.9785L61.2471 23.1931C61.4132 23.182 61.5565 23.1649 61.6752 23.1373C61.7912 23.1103 61.9031 23.069 61.9903 22.9968C62.0867 22.917 62.1392 22.8107 62.1477 22.6898C62.1553 22.5806 62.1262 22.4704 62.0875 22.3686L61.8865 22.4452L61.6855 22.5217C61.7156 22.6006 61.7199 22.642 61.7186 22.6599C61.7182 22.6661 61.7197 22.6625 61.716 22.6655C61.7032 22.6761 61.6662 22.6978 61.5777 22.7184C61.4918 22.7383 61.3748 22.7535 61.2184 22.7639L61.2327 22.9785ZM61.8865 22.4452L62.0868 22.3669L61.6567 21.2658L61.4564 21.3441L61.2561 21.4223L61.6862 22.5234L61.8865 22.4452ZM61.4564 21.3441V21.129H59.1166V21.3441V21.5591H61.4564V21.3441ZM59.1166 21.3441L58.9153 21.2686L58.5024 22.3696L58.7037 22.4452L58.9051 22.5207L59.318 21.4196L59.1166 21.3441ZM58.7037 22.4452L58.5037 22.3662C58.4634 22.4682 58.4385 22.5819 58.4585 22.6971C58.4798 22.8198 58.5473 22.9182 58.6435 22.9903C58.7342 23.0583 58.8484 23.102 58.9726 23.132C59.0986 23.1624 59.2485 23.1819 59.421 23.1931L59.4349 22.9785L59.4488 22.7639C59.2902 22.7536 59.1669 22.7365 59.0735 22.7139C58.9784 22.691 58.927 22.6653 58.9016 22.6462C58.8816 22.6313 58.8825 22.6248 58.8823 22.6236C58.8808 22.6149 58.8795 22.5855 58.9038 22.5241L58.7037 22.4452ZM59.4349 22.9785H59.2198V23.1935H59.4349H59.65V22.9785H59.4349ZM59.4349 23.1935V22.9785H57.5338V23.1935V23.4086H59.4349V23.1935ZM57.5338 23.1935H57.7489V22.9785H57.5338H57.3188V23.1935H57.5338ZM57.5338 22.9785L57.5557 23.1924C57.793 23.1682 57.9931 23.1027 58.1561 22.9743C58.3187 22.8463 58.4234 22.6723 58.5004 22.4701L58.2994 22.3935L58.0985 22.317C58.0378 22.4761 57.9705 22.573 57.89 22.6364C57.8101 22.6994 57.6961 22.7458 57.512 22.7645L57.5338 22.9785ZM58.2994 22.3935L58.5004 22.47L60.4875 17.2485L60.2865 17.172L60.0855 17.0955L58.0984 22.3171L58.2994 22.3935ZM60.2865 17.172V17.3871H60.7768V17.172V16.957H60.2865V17.172ZM60.2779 18.2731L60.0767 18.1972L59.0616 20.8897L59.2629 20.9656L59.4641 21.0414L60.4791 18.349L60.2779 18.2731ZM59.2629 20.9656V21.1806H61.3102V20.9656V20.7505H59.2629V20.9656ZM61.3102 20.9656L61.511 20.8886L60.4787 18.1961L60.2779 18.2731L60.0771 18.3501L61.1094 21.0426L61.3102 20.9656ZM67.5815 20.2086L67.5685 19.9939L67.1808 20.0174L67.4064 20.3335L67.5815 20.2086ZM69.1901 22.4624L69.015 22.5873L69.0162 22.5888L69.1901 22.4624ZM70.1879 22.9785H70.403V22.7791L70.2042 22.764L70.1879 22.9785ZM70.1879 23.1935V23.4086H70.403V23.1935H70.1879ZM68.717 23.1935L68.5413 23.3176L68.6056 23.4086H68.717V23.1935ZM66.6266 20.2344L66.8023 20.1103L66.738 20.0193H66.6266V20.2344ZM65.818 20.2344V20.0193H65.603V20.2344H65.818ZM66.6524 22.9785H66.8675V22.7765L66.6659 22.7639L66.6524 22.9785ZM66.6524 23.1935V23.4086H66.8675V23.1935H66.6524ZM64.132 23.1935H63.917V23.4086H64.132V23.1935ZM64.132 22.9785L64.1186 22.7639L63.917 22.7765V22.9785H64.132ZM64.132 17.3871H63.917V17.5899L64.1194 17.6018L64.132 17.3871ZM64.132 17.172V16.957H63.917V17.172H64.132ZM65.818 19.8559H65.603V20.071H65.818V19.8559ZM69.5514 18.7032H69.3363C69.3363 19.1263 69.1631 19.42 68.8693 19.6246C68.5642 19.837 68.1164 19.9607 67.5685 19.9939L67.5815 20.2086L67.5945 20.4233C68.1821 20.3876 68.7191 20.2533 69.1151 19.9776C69.5224 19.6939 69.7664 19.2694 69.7664 18.7032H69.5514ZM67.5815 20.2086L67.4064 20.3335L69.015 22.5873L69.1901 22.4624L69.3651 22.3374L67.7565 20.0837L67.5815 20.2086ZM69.1901 22.4624L69.0162 22.5888C69.1279 22.7425 69.2564 22.8875 69.446 22.997C69.6348 23.106 69.8666 23.1698 70.1717 23.1929L70.1879 22.9785L70.2042 22.764C69.9415 22.7442 69.7776 22.6918 69.6611 22.6245C69.5452 22.5576 69.4587 22.4661 69.364 22.3359L69.1901 22.4624ZM70.1879 22.9785H69.9729V23.1935H70.1879H70.403V22.9785H70.1879ZM70.1879 23.1935V22.9785H68.717V23.1935V23.4086H70.1879V23.1935ZM68.717 23.1935L68.8926 23.0695L66.8023 20.1103L66.6266 20.2344L66.451 20.3585L68.5413 23.3176L68.717 23.1935ZM66.6266 20.2344V20.0193H65.818V20.2344V20.4495H66.6266V20.2344ZM65.818 20.2344H65.603V22.2301H65.818H66.0331V20.2344H65.818ZM65.818 22.2301H65.603C65.603 22.5464 65.6304 22.828 65.8412 23C65.9425 23.0826 66.0657 23.1226 66.1914 23.1466C66.317 23.1706 66.4679 23.1824 66.639 23.1931L66.6524 22.9785L66.6659 22.7639C66.4928 22.753 66.3674 22.7423 66.2721 22.7241C66.1768 22.7059 66.1344 22.6841 66.1131 22.6667C66.0788 22.6387 66.0331 22.5676 66.0331 22.2301H65.818ZM66.6524 22.9785H66.4374V23.1935H66.6524H66.8675V22.9785H66.6524ZM66.6524 23.1935V22.9785H64.132V23.1935V23.4086H66.6524V23.1935ZM64.132 23.1935H64.3471V22.9785H64.132H63.917V23.1935H64.132ZM64.132 22.9785L64.1454 23.1931C64.3165 23.1824 64.4674 23.1706 64.5931 23.1466C64.7187 23.1226 64.8419 23.0826 64.9432 23C65.154 22.828 65.1815 22.5464 65.1815 22.2301H64.9664H64.7514C64.7514 22.5676 64.7057 22.6387 64.6713 22.6667C64.65 22.6841 64.6077 22.7059 64.5124 22.7241C64.417 22.7423 64.2916 22.753 64.1186 22.7639L64.132 22.9785ZM64.9664 22.2301H65.1815V18.1355H64.9664H64.7514V22.2301H64.9664ZM64.9664 18.1355H65.1815C65.1815 17.9686 65.1754 17.8218 65.1491 17.6998C65.1216 17.5725 65.0684 17.4544 64.9621 17.3647C64.8612 17.2795 64.7361 17.2405 64.6093 17.2174C64.482 17.1943 64.3258 17.1831 64.1446 17.1724L64.132 17.3871L64.1194 17.6018C64.3038 17.6126 64.4347 17.6229 64.5324 17.6406C64.6306 17.6585 64.6684 17.6796 64.6847 17.6934C64.6956 17.7026 64.7139 17.7221 64.7286 17.7905C64.7445 17.8642 64.7514 17.9712 64.7514 18.1355H64.9664ZM64.132 17.3871H64.3471V17.172H64.132H63.917V17.3871H64.132ZM64.132 17.172V17.3871H67.117V17.172V16.957H64.132V17.172ZM67.117 17.172V17.3871C67.817 17.3871 68.3815 17.4895 68.7639 17.7055C69.129 17.9118 69.3363 18.2245 69.3363 18.7032H69.5514H69.7664C69.7664 18.0637 69.4705 17.6108 68.9754 17.331C68.4976 17.0611 67.8449 16.957 67.117 16.957V17.172ZM68.6051 18.7032H68.8202C68.8202 18.2578 68.665 17.9016 68.3476 17.6651C68.0417 17.4374 67.6155 17.3441 67.117 17.3441V17.5591V17.7742C67.5733 17.7742 67.8912 17.8616 68.0907 18.0101C68.2786 18.15 68.3901 18.3658 68.3901 18.7032H68.6051ZM67.117 17.5591V17.3441H66.0761V17.5591V17.7742H67.117V17.5591ZM66.0761 17.5591V17.3441C65.9532 17.3441 65.8281 17.3804 65.7337 17.4748C65.6393 17.5692 65.603 17.6943 65.603 17.8172H65.818H66.0331C66.0331 17.7968 66.0361 17.7854 66.0378 17.7805C66.0393 17.7762 66.0399 17.7769 66.0378 17.7789C66.0358 17.781 66.0351 17.7804 66.0394 17.7789C66.0443 17.7772 66.0557 17.7742 66.0761 17.7742V17.5591ZM65.818 17.8172H65.603V19.8559H65.818H66.0331V17.8172H65.818ZM65.818 19.8559V20.071H67.1084V19.8559V19.6409H65.818V19.8559ZM67.1084 19.8559V20.071C67.6108 20.071 68.0394 19.9778 68.3466 19.7487C68.6655 19.5109 68.8202 19.1522 68.8202 18.7032H68.6051H68.3901C68.3901 19.0456 68.2781 19.2633 68.0895 19.4039C67.8891 19.5533 67.5693 19.6409 67.1084 19.6409V19.8559ZM76.2755 21.4989L76.3887 21.3161L76.2277 21.2164L76.1085 21.3634L76.2755 21.4989ZM76.4561 21.6107L76.6459 21.7118L76.7407 21.534L76.5693 21.4279L76.4561 21.6107ZM75.6131 23.1935V23.4086H75.7422L75.8029 23.2946L75.6131 23.1935ZM70.8561 23.1935H70.6411V23.4086H70.8561V23.1935ZM70.8561 22.9785L70.8427 22.7639L70.6411 22.7765V22.9785H70.8561ZM70.8561 17.3871H70.6411V17.5891L70.8427 17.6017L70.8561 17.3871ZM70.8561 17.172V16.957H70.6411V17.172H70.8561ZM75.6217 17.172L75.8206 17.0903L75.7658 16.957H75.6217V17.172ZM76.1981 18.5742L76.2979 18.7647L76.4715 18.6737L76.397 18.4924L76.1981 18.5742ZM76.0174 18.6688L75.8447 18.7969L75.9542 18.9447L76.1172 18.8593L76.0174 18.6688ZM72.5422 19.8559H72.3271V20.071H72.5422V19.8559ZM74.7443 19.0215V18.8064H74.5485L74.5302 19.0014L74.7443 19.0215ZM74.968 19.0215H75.183V18.8064H74.968V19.0215ZM74.968 21.0774V21.2925H75.183V21.0774H74.968ZM74.7443 21.0774L74.5302 21.0975L74.5485 21.2925H74.7443V21.0774ZM72.5422 20.243V20.028H72.3271V20.243H72.5422ZM73.6948 22.8064V23.0215C74.3759 23.0215 74.9018 22.8811 75.3432 22.6299C75.7814 22.3805 76.1217 22.0298 76.4425 21.6344L76.2755 21.4989L76.1085 21.3634C75.8013 21.7422 75.5008 22.0453 75.1304 22.2561C74.7632 22.4651 74.3128 22.5914 73.6948 22.5914V22.8064ZM76.2755 21.4989L76.1623 21.6818L76.3429 21.7936L76.4561 21.6107L76.5693 21.4279L76.3887 21.3161L76.2755 21.4989ZM76.4561 21.6107L76.2663 21.5097L75.4233 23.0924L75.6131 23.1935L75.8029 23.2946L76.6459 21.7118L76.4561 21.6107ZM75.6131 23.1935V22.9785H70.8561V23.1935V23.4086H75.6131V23.1935ZM70.8561 23.1935H71.0712V22.9785H70.8561H70.6411V23.1935H70.8561ZM70.8561 22.9785L70.8695 23.1931C71.0406 23.1824 71.1916 23.1706 71.3172 23.1466C71.4428 23.1226 71.5661 23.0826 71.6673 23C71.8782 22.828 71.9056 22.5464 71.9056 22.2301H71.6905H71.4755C71.4755 22.5676 71.4298 22.6387 71.3955 22.6667C71.3742 22.6841 71.3318 22.7059 71.2365 22.7241C71.1411 22.7423 71.0157 22.753 70.8427 22.7639L70.8561 22.9785ZM71.6905 22.2301H71.9056V18.1355H71.6905H71.4755V22.2301H71.6905ZM71.6905 18.1355H71.9056C71.9056 17.9657 71.8966 17.8173 71.8656 17.693C71.8331 17.5631 71.7736 17.4481 71.6665 17.3617C71.5647 17.2795 71.441 17.2407 71.3159 17.2176C71.1908 17.1944 71.0401 17.1831 70.8695 17.1725L70.8561 17.3871L70.8427 17.6017C71.0163 17.6126 71.1419 17.6228 71.2377 17.6405C71.3336 17.6582 71.3755 17.6796 71.3963 17.6964C71.4118 17.7089 71.4319 17.7315 71.4483 17.7973C71.4662 17.8687 71.4755 17.974 71.4755 18.1355H71.6905ZM70.8561 17.3871H71.0712V17.172H70.8561H70.6411V17.3871H70.8561ZM70.8561 17.172V17.3871H75.6217V17.172V16.957H70.8561V17.172ZM75.6217 17.172L75.4228 17.2538L75.9992 18.6559L76.1981 18.5742L76.397 18.4924L75.8206 17.0903L75.6217 17.172ZM76.1981 18.5742L76.0983 18.3837L75.9176 18.4783L76.0174 18.6688L76.1172 18.8593L76.2979 18.7647L76.1981 18.5742ZM76.0174 18.6688L76.1902 18.5408C75.9067 18.1582 75.5952 17.8546 75.1994 17.6489C74.8033 17.4432 74.3393 17.3441 73.7637 17.3441V17.5591V17.7742C74.2891 17.7742 74.681 17.8643 75.0011 18.0306C75.3214 18.197 75.5862 18.4482 75.8447 18.7969L76.0174 18.6688ZM73.7637 17.5591V17.3441H72.8002V17.5591V17.7742H73.7637V17.5591ZM72.8002 17.5591V17.3441C72.6773 17.3441 72.5522 17.3804 72.4578 17.4748C72.3634 17.5692 72.3271 17.6943 72.3271 17.8172H72.5422H72.7572C72.7572 17.7968 72.7602 17.7854 72.7619 17.7805C72.7635 17.7762 72.764 17.7769 72.762 17.7789C72.7599 17.781 72.7593 17.7804 72.7635 17.7789C72.7684 17.7772 72.7798 17.7742 72.8002 17.7742V17.5591ZM72.5422 17.8172H72.3271V19.8559H72.5422H72.7572V17.8172H72.5422ZM72.5422 19.8559V20.071H73.9357V19.8559V19.6409H72.5422V19.8559ZM73.9357 19.8559V20.071C74.2809 20.071 74.5489 19.9943 74.7248 19.7826C74.8878 19.5864 74.9328 19.3148 74.9584 19.0416L74.7443 19.0215L74.5302 19.0014C74.5042 19.2788 74.4632 19.4244 74.3939 19.5077C74.3375 19.5756 74.227 19.6409 73.9357 19.6409V19.8559ZM74.7443 19.0215V19.2366H74.968V19.0215V18.8064H74.7443V19.0215ZM74.968 19.0215H74.7529V21.0774H74.968H75.183V19.0215H74.968ZM74.968 21.0774V20.8624H74.7443V21.0774V21.2925H74.968V21.0774ZM74.7443 21.0774L74.9584 21.0573C74.9328 20.7842 74.8878 20.5125 74.7248 20.3163C74.5489 20.1047 74.2809 20.028 73.9357 20.028V20.243V20.4581C74.227 20.4581 74.3375 20.5233 74.3939 20.5912C74.4632 20.6746 74.5042 20.8201 74.5302 21.0975L74.7443 21.0774ZM73.9357 20.243V20.028H72.5422V20.243V20.4581H73.9357V20.243ZM72.5422 20.243H72.3271V22.5484H72.5422H72.7572V20.243H72.5422ZM72.5422 22.5484H72.3271C72.3271 22.6713 72.3634 22.7964 72.4578 22.8908C72.5522 22.9852 72.6773 23.0215 72.8002 23.0215V22.8064V22.5914C72.7798 22.5914 72.7684 22.5884 72.7635 22.5867C72.7593 22.5851 72.7599 22.5846 72.762 22.5866C72.764 22.5887 72.7635 22.5893 72.7619 22.5851C72.7602 22.5802 72.7572 22.5688 72.7572 22.5484H72.5422ZM72.8002 22.8064V23.0215H73.6948V22.8064V22.5914H72.8002V22.8064Z" fill="black" mask="url(#path-3-outside-1_227_304)"/>
<defs>
<filter id="filter0_d_227_304" x="0.27957" y="0" width="119.57" height="43.4409" filterUnits="userSpaceOnUse" color-interpolation-filters="sRGB">
<feFlood flood-opacity="0" result="BackgroundImageFix"/>
<feColorMatrix in="SourceAlpha" type="matrix" values="0 0 0 0 0 0 0 0 0 0 0 0 0 0 0 0 0 0 127 0" result="hardAlpha"/>
<feOffset dy="1.72043"/>
<feGaussianBlur stdDeviation="0.860215"/>
<feComposite in2="hardAlpha" operator="out"/>
<feColorMatrix type="matrix" values="0 0 0 0 0 0 0 0 0 0 0 0 0 0 0 0 0 0 0.25 0"/>
<feBlend mode="normal" in2="BackgroundImageFix" result="effect1_dropShadow_227_304"/>
<feBlend mode="normal" in="SourceGraphic" in2="effect1_dropShadow_227_304" result="shape"/>
</filter>
</defs>
</svg>
