<svg width="120" height="24" viewBox="0 0 120 24" fill="none" xmlns="http://www.w3.org/2000/svg">
<path d="M110.452 6.57999L111.513 5.51999L117.292 11.297C117.385 11.3896 117.459 11.4996 117.51 11.6209C117.56 11.7421 117.586 11.8722 117.586 12.0035C117.586 12.1348 117.56 12.2648 117.51 12.3861C117.459 12.5073 117.385 12.6174 117.292 12.71L111.513 18.49L110.453 17.43L115.877 12.005L110.452 6.57999Z" fill="black"/>
<path d="M2.17 13.9401C2.17 15.1601 3 15.6901 4.15 15.6901C5.14 15.6901 5.97 15.1401 5.97 13.9601V10.1201C5.97 9.35006 5.8 9.30006 5 9.25006V9.00006H7.45V9.25006C6.65 9.30006 6.48 9.35006 6.48 10.1201V13.9601C6.48 15.1401 5.67 16.1501 3.98 16.1501C2.24 16.1501 1.18 15.4101 1.18 13.9601V10.1201C1.18 9.35006 1.01 9.30006 0.21 9.25006V9.00006H3.14V9.25006C2.34 9.30006 2.17 9.35006 2.17 10.1201V13.9401ZM8.04672 17.8401V17.5901C8.59672 17.5401 8.72672 17.4301 8.72672 17.0701V12.6501C8.72672 12.4101 8.63672 12.3201 8.41672 12.3201H8.01672V12.1201L9.29672 11.3401H9.60672V11.8501C9.91672 11.5301 10.3567 11.3401 10.9367 11.3401C12.2667 11.3401 13.0167 12.3901 13.0167 13.7401C13.0167 15.1001 12.2667 16.1501 10.8767 16.1501C10.3167 16.1501 9.90672 15.9801 9.60672 15.6901V17.0701C9.60672 17.4301 9.73672 17.5401 10.2767 17.5901V17.8401H8.04672ZM9.60672 12.3201V15.1701C9.85672 15.5101 10.2267 15.7201 10.7167 15.7201C11.7167 15.7201 12.0567 14.9001 12.0567 13.7401C12.0567 12.5801 11.7167 11.7701 10.7167 11.7701C10.2267 11.7701 9.85672 11.9801 9.60672 12.3201ZM13.8241 16.0001V15.7501C14.3741 15.7001 14.5041 15.5901 14.5041 15.2301V10.1601C14.5041 9.92006 14.4141 9.83006 14.1941 9.83006H13.8241V9.63006L15.0741 8.85006H15.3841V15.2301C15.3841 15.5901 15.5141 15.7001 16.0541 15.7501V16.0001H13.8241ZM16.8777 13.7401C16.8777 12.3801 17.8177 11.3401 19.2277 11.3401C20.6377 11.3401 21.5877 12.3801 21.5877 13.7401C21.5877 15.1101 20.6377 16.1501 19.2277 16.1501C17.8177 16.1501 16.8777 15.1101 16.8777 13.7401ZM17.8377 13.7401C17.8377 14.9001 18.2177 15.7601 19.2277 15.7601C20.2377 15.7601 20.6277 14.9001 20.6277 13.7401C20.6277 12.5801 20.2377 11.7301 19.2277 11.7301C18.2177 11.7301 17.8377 12.5801 17.8377 13.7401ZM26.2779 16.1101C25.8779 16.1101 25.5779 15.9201 25.4979 15.4901C25.0379 15.8101 24.4479 16.1301 23.8379 16.1301C23.0079 16.1301 22.4879 15.7601 22.4879 15.0601C22.4879 13.9801 23.7679 13.6101 25.4779 13.3301V12.7301C25.4779 12.0001 25.3179 11.7201 24.7579 11.7201C24.1779 11.7201 23.8379 11.9601 23.7179 12.4501C23.6279 12.7901 23.4379 12.9301 23.2179 12.9301C22.9679 12.9301 22.8279 12.7801 22.8279 12.4801C22.8279 11.9101 23.5879 11.3401 24.8079 11.3401C25.6579 11.3401 26.3679 11.6501 26.3679 12.7501V15.1001C26.3679 15.4701 26.4679 15.6401 26.6879 15.6401C26.7879 15.6401 26.9079 15.6101 27.0579 15.5301V15.8901C26.8479 16.0301 26.6079 16.1101 26.2779 16.1101ZM24.1579 15.6201C24.6079 15.6201 25.0479 15.4001 25.4779 15.1001V13.7101C24.2579 13.8901 23.4479 14.1701 23.4479 14.9401C23.4479 15.4101 23.7479 15.6201 24.1579 15.6201ZM30.6037 9.63006L31.8437 8.85006H32.1537V15.2301C32.1537 15.5901 32.2837 15.7001 32.8337 15.7501V16.0001C32.3237 16.0001 31.7837 16.0501 31.2737 16.1501V15.6301C30.9737 15.9601 30.5337 16.1501 29.9437 16.1501C28.6137 16.1501 27.8637 15.1001 27.8637 13.7401C27.8637 12.3901 28.6137 11.3401 29.9437 11.3401C30.5337 11.3401 30.9737 11.5301 31.2737 11.8601V10.1601C31.2737 9.92006 31.1837 9.83006 30.9537 9.83006H30.6037V9.63006ZM30.1637 15.7201C30.6537 15.7201 31.0237 15.5101 31.2737 15.1701V12.3201C31.0237 11.9801 30.6537 11.7701 30.1637 11.7701C29.1637 11.7701 28.8237 12.5801 28.8237 13.7401C28.8237 14.9001 29.1637 15.7201 30.1637 15.7201ZM38.1996 16.8701C37.8996 17.6201 37.4196 17.9901 36.7996 17.9901C36.2696 17.9901 35.8296 17.7501 35.8296 17.3601C35.8296 17.1101 36.0296 16.8901 36.3196 16.8901C36.7496 16.8901 36.8096 17.3801 37.1596 17.3801C37.4296 17.3801 37.6496 17.1001 37.7996 16.7001L38.0296 16.1101L36.6996 12.6101C36.4696 12.0001 36.3796 11.7901 35.9096 11.7401V11.4901H38.1096V11.7401C37.4096 11.7901 37.4296 11.9901 37.6496 12.6101L38.5196 14.9101L39.4396 12.6101C39.6796 12.0001 39.5196 11.7901 38.9496 11.7401V11.4901H40.7196V11.7401C40.3396 11.7901 40.1596 12.0001 39.9096 12.6101L38.1996 16.8701ZM41.0809 13.7401C41.0809 12.3801 42.0209 11.3401 43.4309 11.3401C44.8409 11.3401 45.7909 12.3801 45.7909 13.7401C45.7909 15.1101 44.8409 16.1501 43.4309 16.1501C42.0209 16.1501 41.0809 15.1101 41.0809 13.7401ZM42.0409 13.7401C42.0409 14.9001 42.4209 15.7601 43.4309 15.7601C44.4409 15.7601 44.8309 14.9001 44.8309 13.7401C44.8309 12.5801 44.4409 11.7301 43.4309 11.7301C42.4209 11.7301 42.0409 12.5801 42.0409 13.7401ZM49.481 12.1201L50.731 11.3401H51.041V15.2301C51.041 15.5901 51.171 15.7001 51.711 15.7501V16.0001C51.201 16.0001 50.671 16.0501 50.161 16.1501V15.6601C49.771 15.9001 49.151 16.1501 48.611 16.1501C48.021 16.1501 47.191 15.9201 47.191 14.8001V12.6501C47.191 12.4101 47.101 12.3201 46.881 12.3201H46.521V12.1201L47.771 11.3401H48.071V14.8001C48.071 15.3901 48.391 15.6401 48.861 15.6401C49.321 15.6401 49.751 15.4701 50.161 15.2101V12.6501C50.161 12.4101 50.071 12.3201 49.841 12.3201H49.481V12.1201ZM56.1055 11.9501C56.1055 12.2701 55.9055 12.4601 55.6155 12.4601C55.1855 12.4601 55.1255 12.0001 54.7955 12.0001C54.5555 12.0001 54.2355 12.1601 54.0055 12.5101V15.2301C54.0055 15.5901 54.1355 15.7001 54.6755 15.7501V16.0001H52.4455V15.7501C52.9955 15.7001 53.1255 15.5901 53.1255 15.2301V12.6501C53.1255 12.4101 53.0355 12.3201 52.8155 12.3201H52.4455V12.1201L53.6955 11.3401H54.0055V12.0001C54.3555 11.5801 54.8855 11.3401 55.3355 11.3401C55.8855 11.3401 56.1055 11.6301 56.1055 11.9501ZM64.819 16.0001V15.7501C65.629 15.7001 65.789 15.6401 65.789 14.8801V9.75006L63.509 16.0001H63.179L60.899 9.76006V14.8801C60.899 15.6401 61.069 15.7001 61.869 15.7501V16.0001H59.409V15.7501C60.209 15.7001 60.389 15.6401 60.389 14.8801V10.1201C60.389 9.35006 60.209 9.30006 59.409 9.25006V9.00006H61.679L63.599 14.2701L65.529 9.00006H67.749V9.25006C66.949 9.30006 66.779 9.35006 66.779 10.1201V14.8801C66.779 15.6401 66.949 15.7001 67.749 15.7501V16.0001H64.819ZM68.448 13.7401C68.448 12.3801 69.388 11.3401 70.798 11.3401C72.208 11.3401 73.158 12.3801 73.158 13.7401C73.158 15.1101 72.208 16.1501 70.798 16.1501C69.388 16.1501 68.448 15.1101 68.448 13.7401ZM69.408 13.7401C69.408 14.9001 69.788 15.7601 70.798 15.7601C71.808 15.7601 72.198 14.9001 72.198 13.7401C72.198 12.5801 71.808 11.7301 70.798 11.7301C69.788 11.7301 69.408 12.5801 69.408 13.7401ZM76.9382 16.0001V15.7501C77.4882 15.7001 77.6082 15.5901 77.6082 15.2301V12.6901C77.6082 12.1001 77.2982 11.8501 76.8282 11.8501C76.3682 11.8501 75.9182 12.0101 75.5282 12.2801V15.2301C75.5282 15.5901 75.6582 15.7001 76.1982 15.7501V16.0001H73.9682V15.7501C74.5182 15.7001 74.6482 15.5901 74.6482 15.2301V12.6501C74.6482 12.4101 74.5582 12.3201 74.3382 12.3201H73.9682V12.1201L75.2182 11.3401H75.5282V11.8401C75.9182 11.6001 76.5282 11.3401 77.0782 11.3401C77.4982 11.3401 78.0582 11.4601 78.3282 11.9401C78.7682 11.6301 79.4782 11.3401 80.0382 11.3401C80.6382 11.3401 81.4582 11.5701 81.4582 12.6901V15.2301C81.4582 15.5901 81.5882 15.7001 82.1382 15.7501V16.0001H79.9082V15.7501C80.4482 15.7001 80.5782 15.5901 80.5782 15.2301V12.6901C80.5782 12.1001 80.2682 11.8501 79.7982 11.8501C79.3182 11.8501 78.8582 12.0201 78.4482 12.3001C78.4782 12.4201 78.4982 12.5501 78.4982 12.6901V15.2301C78.4982 15.5901 78.6282 15.7001 79.1682 15.7501V16.0001H76.9382ZM83.9296 13.2601C83.9196 13.4201 83.9096 13.5801 83.9096 13.7401C83.9096 14.9001 84.3196 15.7301 85.4696 15.7301C86.1196 15.7301 86.6796 15.2901 86.9796 14.5801L87.3496 14.7501C86.9996 15.5801 86.3596 16.1501 85.4096 16.1501C83.8096 16.1501 82.9496 15.1101 82.9496 13.7401C82.9496 12.3801 83.7996 11.3401 85.2096 11.3401C86.3796 11.3401 87.1796 12.0301 87.1796 13.2601H83.9296ZM85.2196 11.7301C84.4496 11.7301 84.1096 12.1701 83.9796 12.8601H86.2896C86.2896 12.1301 85.8296 11.7301 85.2196 11.7301ZM91.1175 16.0001V15.7501C91.6675 15.7001 91.7875 15.5901 91.7875 15.2301V12.6901C91.7875 12.1001 91.4775 11.8501 91.0075 11.8501C90.5475 11.8501 90.0975 12.0101 89.7075 12.2801V15.2301C89.7075 15.5901 89.8375 15.7001 90.3775 15.7501V16.0001H88.1475V15.7501C88.6975 15.7001 88.8275 15.5901 88.8275 15.2301V12.6501C88.8275 12.4101 88.7375 12.3201 88.5175 12.3201H88.1475V12.1201L89.3975 11.3401H89.7075V11.8401C90.0975 11.6001 90.7075 11.3401 91.2575 11.3401C91.8475 11.3401 92.6775 11.5701 92.6775 12.6901V15.2301C92.6775 15.5901 92.8075 15.7001 93.3475 15.7501V16.0001H91.1175ZM96.7402 15.9201C96.5102 16.0301 96.1502 16.1101 95.8302 16.1101C95.1602 16.1101 94.6602 15.8501 94.6602 14.9401V11.9001H93.9902V11.6901C94.7702 11.4101 95.0802 10.8701 95.2302 10.0101H95.5402V11.4901H96.7402V11.9001H95.5402V14.9501C95.5402 15.4301 95.7102 15.6501 96.1202 15.6501C96.3302 15.6501 96.5302 15.6101 96.7402 15.5301V15.9201Z" fill="black"/>
</svg>
