<svg width="120" height="44" viewBox="0 0 120 44" fill="none" xmlns="http://www.w3.org/2000/svg">
<g filter="url(#filter0_d_227_312)">
<ellipse cx="60.0645" cy="20" rx="58.0645" ry="20" fill="white"/>
<path d="M60.0645 1.0752C76.0121 1.0752 90.4048 3.30392 100.772 6.875C105.961 8.66225 110.083 10.7658 112.887 13.0488C115.699 15.3389 117.054 17.6941 117.054 20C117.054 22.3059 115.699 24.6611 112.887 26.9512C110.083 29.2342 105.961 31.3377 100.772 33.125C90.4048 36.6961 76.0121 38.9248 60.0645 38.9248C44.1168 38.9248 29.7241 36.6961 19.3564 33.125C14.1678 31.3377 10.0457 29.2342 7.24219 26.9512C4.43012 24.6611 3.0752 22.3059 3.0752 20C3.0752 17.6941 4.43012 15.3389 7.24219 13.0488C10.0457 10.7658 14.1678 8.66226 19.3564 6.875C29.7241 3.30392 44.1168 1.0752 60.0645 1.0752Z" stroke="#0FA44B" stroke-width="2.15054"/>
</g>
<mask id="path-3-outside-1_227_312" maskUnits="userSpaceOnUse" x="22.7202" y="16.1935" width="74" height="8" fill="black">
<rect fill="white" x="22.7202" y="16.1935" width="74" height="8"/>
<path d="M26.5827 23.1935L24.6128 18.015C24.4579 17.6107 24.2859 17.4301 23.8902 17.3871V17.172H26.1267V17.3871C25.4816 17.4301 25.3353 17.5505 25.473 17.9118L27.0816 22.0839L28.6558 17.9118C28.7762 17.5935 28.587 17.4301 27.916 17.3871V17.172H29.8257V17.3871C29.3956 17.4301 29.1891 17.6107 29.0515 17.972L27.073 23.1935H26.5827ZM30.4884 23.1935V22.9785C31.1765 22.9355 31.3228 22.8839 31.3228 22.2301V18.1355C31.3228 17.4731 31.1765 17.4301 30.4884 17.3871V17.172H33.0088V17.3871C32.3206 17.4301 32.1744 17.4731 32.1744 18.1355V22.2301C32.1744 22.8839 32.3206 22.9355 33.0088 22.9785V23.1935H30.4884ZM36.8758 22.8064C38.1747 22.8064 38.8285 22.2731 39.4564 21.4989L39.6371 21.6107L38.7941 23.1935H34.0371V22.9785C34.7253 22.9355 34.8715 22.8839 34.8715 22.2301V18.1355C34.8715 17.4731 34.7253 17.4301 34.0371 17.3871V17.172H38.8027L39.379 18.5742L39.1984 18.6688C38.6564 17.9376 38.0457 17.5591 36.9446 17.5591H35.9812C35.8177 17.5591 35.7231 17.6538 35.7231 17.8172V19.8559H37.1167C37.7532 19.8559 37.8736 19.572 37.9253 19.0215H38.1489V21.0774H37.9253C37.8736 20.5269 37.7532 20.243 37.1167 20.243H35.7231V22.5484C35.7231 22.7118 35.8177 22.8064 35.9812 22.8064H36.8758ZM45.6839 23.1935L44.2302 18.643L42.7678 23.1935H42.2861L40.6689 18.1355C40.4968 17.6107 40.3936 17.4301 39.9463 17.3871V17.172H42.2087V17.3871C41.5205 17.4301 41.3915 17.6107 41.5635 18.1355L42.7592 21.8602L44.0151 17.9892C43.8689 17.5763 43.7484 17.4215 43.3441 17.3871V17.172H45.6065V17.3871C44.9097 17.4301 44.7893 17.6107 44.9613 18.1355L46.157 21.8602L47.3613 18.1355C47.5334 17.6021 47.4216 17.4301 46.7334 17.3871V17.172H48.5484V17.3871C48.1269 17.4301 47.9721 17.6107 47.7915 18.1355L46.1656 23.1935H45.6839ZM56.6739 22.7032C56.2954 23.0559 55.7019 23.3226 54.8675 23.3226C53.19 23.3226 52.0029 21.9978 52.0029 20.1828C52.0029 18.3677 53.19 17.043 54.8761 17.043C55.5298 17.043 56.0374 17.2237 56.3814 17.4731L56.5019 17.172H56.7599L57.2847 18.8495L57.0868 18.9183C56.5535 17.9462 55.8481 17.4129 54.9363 17.4129C53.5599 17.4129 52.9492 18.5742 52.9492 20.1828C52.9492 21.7914 53.5599 22.9441 54.9105 22.9441C55.6675 22.9441 56.2266 22.5742 56.4072 22.3333V21.4043C56.4072 20.7505 56.2696 20.6989 55.5814 20.6559V20.4409H58.0675V20.6559C57.4137 20.6989 57.2589 20.7505 57.2589 21.4043V23.1935H57.0008L56.6739 22.7032ZM61.8076 17.172L63.7775 22.3505C63.9237 22.7548 64.0958 22.9355 64.5001 22.9785V23.1935H62.2635V22.9785C62.9087 22.9355 63.0549 22.8064 62.9173 22.4452L62.4872 21.3441H60.1474L59.7345 22.4452C59.6054 22.772 59.8033 22.9355 60.4656 22.9785V23.1935H58.5646V22.9785C58.9861 22.9355 59.1925 22.7548 59.3302 22.3935L61.3173 17.172H61.8076ZM61.3087 18.2731L60.2936 20.9656H62.3409L61.3087 18.2731ZM67.666 22.8064C68.8789 22.8064 69.5326 22.2731 70.1606 21.4989L70.3326 21.6107L69.4896 23.1935H65.1628V22.9785C65.8509 22.9355 65.9972 22.8839 65.9972 22.2301V18.1355C65.9972 17.4731 65.8509 17.4301 65.1628 17.3871V17.172H67.6832V17.3871C66.995 17.4301 66.8488 17.4731 66.8488 18.1355V22.5484C66.8488 22.7118 66.9434 22.8064 67.1068 22.8064H67.666ZM73.6761 22.8064C74.889 22.8064 75.5427 22.2731 76.1707 21.4989L76.3427 21.6107L75.4997 23.1935H71.1728V22.9785C71.861 22.9355 72.0072 22.8839 72.0072 22.2301V18.1355C72.0072 17.4731 71.861 17.4301 71.1728 17.3871V17.172H73.6933V17.3871C73.0051 17.4301 72.8589 17.4731 72.8589 18.1355V22.5484C72.8589 22.7118 72.9535 22.8064 73.1169 22.8064H73.6761ZM80.0216 22.8064C81.3205 22.8064 81.9743 22.2731 82.6023 21.4989L82.7829 21.6107L81.9399 23.1935H77.1829V22.9785C77.8711 22.9355 78.0173 22.8839 78.0173 22.2301V18.1355C78.0173 17.4731 77.8711 17.4301 77.1829 17.3871V17.172H81.9485L82.5249 18.5742L82.3442 18.6688C81.8023 17.9376 81.1915 17.5591 80.0904 17.5591H79.127C78.9636 17.5591 78.8689 17.6538 78.8689 17.8172V19.8559H80.2625C80.899 19.8559 81.0195 19.572 81.0711 19.0215H81.2947V21.0774H81.0711C81.0195 20.5269 80.899 20.243 80.2625 20.243H78.8689V22.5484C78.8689 22.7118 78.9636 22.8064 79.127 22.8064H80.0216ZM89.0408 18.7032C89.0408 19.6925 88.2064 20.1398 87.0709 20.2086L88.6795 22.4624C88.8859 22.7462 89.1096 22.9355 89.6773 22.9785V23.1935H88.2064L86.116 20.2344H85.3074V22.2301C85.3074 22.8839 85.4537 22.9355 86.1419 22.9785V23.1935H83.6214V22.9785C84.3096 22.9355 84.4558 22.8839 84.4558 22.2301V18.1355C84.4558 17.4731 84.3526 17.4301 83.6214 17.3871V17.172H86.6064C88.0343 17.172 89.0408 17.5849 89.0408 18.7032ZM88.0945 18.7032C88.0945 17.9204 87.5612 17.5591 86.6064 17.5591H85.5655C85.4021 17.5591 85.3074 17.6538 85.3074 17.8172V19.8559H86.5978C87.5612 19.8559 88.0945 19.4946 88.0945 18.7032ZM91.4997 22.9785C92.1878 22.9355 92.3341 22.8839 92.3341 22.2301V20.6817L90.7685 18.1355C90.433 17.5849 90.3212 17.4301 89.9255 17.3871V17.172H92.1792V17.3871C91.5857 17.4301 91.4308 17.628 91.7319 18.1269L92.9878 20.2L94.1835 18.1355C94.476 17.628 94.3126 17.4301 93.7104 17.3871V17.172H95.5599V17.3871C95.0781 17.4301 94.9405 17.628 94.648 18.1355L93.1857 20.6645V22.2301C93.1857 22.8839 93.3319 22.9355 94.0201 22.9785V23.1935H91.4997V22.9785Z"/>
</mask>
<path d="M26.5827 23.1935L24.6128 18.015C24.4579 17.6107 24.2859 17.4301 23.8902 17.3871V17.172H26.1267V17.3871C25.4816 17.4301 25.3353 17.5505 25.473 17.9118L27.0816 22.0839L28.6558 17.9118C28.7762 17.5935 28.587 17.4301 27.916 17.3871V17.172H29.8257V17.3871C29.3956 17.4301 29.1891 17.6107 29.0515 17.972L27.073 23.1935H26.5827ZM30.4884 23.1935V22.9785C31.1765 22.9355 31.3228 22.8839 31.3228 22.2301V18.1355C31.3228 17.4731 31.1765 17.4301 30.4884 17.3871V17.172H33.0088V17.3871C32.3206 17.4301 32.1744 17.4731 32.1744 18.1355V22.2301C32.1744 22.8839 32.3206 22.9355 33.0088 22.9785V23.1935H30.4884ZM36.8758 22.8064C38.1747 22.8064 38.8285 22.2731 39.4564 21.4989L39.6371 21.6107L38.7941 23.1935H34.0371V22.9785C34.7253 22.9355 34.8715 22.8839 34.8715 22.2301V18.1355C34.8715 17.4731 34.7253 17.4301 34.0371 17.3871V17.172H38.8027L39.379 18.5742L39.1984 18.6688C38.6564 17.9376 38.0457 17.5591 36.9446 17.5591H35.9812C35.8177 17.5591 35.7231 17.6538 35.7231 17.8172V19.8559H37.1167C37.7532 19.8559 37.8736 19.572 37.9253 19.0215H38.1489V21.0774H37.9253C37.8736 20.5269 37.7532 20.243 37.1167 20.243H35.7231V22.5484C35.7231 22.7118 35.8177 22.8064 35.9812 22.8064H36.8758ZM45.6839 23.1935L44.2302 18.643L42.7678 23.1935H42.2861L40.6689 18.1355C40.4968 17.6107 40.3936 17.4301 39.9463 17.3871V17.172H42.2087V17.3871C41.5205 17.4301 41.3915 17.6107 41.5635 18.1355L42.7592 21.8602L44.0151 17.9892C43.8689 17.5763 43.7484 17.4215 43.3441 17.3871V17.172H45.6065V17.3871C44.9097 17.4301 44.7893 17.6107 44.9613 18.1355L46.157 21.8602L47.3613 18.1355C47.5334 17.6021 47.4216 17.4301 46.7334 17.3871V17.172H48.5484V17.3871C48.1269 17.4301 47.9721 17.6107 47.7915 18.1355L46.1656 23.1935H45.6839ZM56.6739 22.7032C56.2954 23.0559 55.7019 23.3226 54.8675 23.3226C53.19 23.3226 52.0029 21.9978 52.0029 20.1828C52.0029 18.3677 53.19 17.043 54.8761 17.043C55.5298 17.043 56.0374 17.2237 56.3814 17.4731L56.5019 17.172H56.7599L57.2847 18.8495L57.0868 18.9183C56.5535 17.9462 55.8481 17.4129 54.9363 17.4129C53.5599 17.4129 52.9492 18.5742 52.9492 20.1828C52.9492 21.7914 53.5599 22.9441 54.9105 22.9441C55.6675 22.9441 56.2266 22.5742 56.4072 22.3333V21.4043C56.4072 20.7505 56.2696 20.6989 55.5814 20.6559V20.4409H58.0675V20.6559C57.4137 20.6989 57.2589 20.7505 57.2589 21.4043V23.1935H57.0008L56.6739 22.7032ZM61.8076 17.172L63.7775 22.3505C63.9237 22.7548 64.0958 22.9355 64.5001 22.9785V23.1935H62.2635V22.9785C62.9087 22.9355 63.0549 22.8064 62.9173 22.4452L62.4872 21.3441H60.1474L59.7345 22.4452C59.6054 22.772 59.8033 22.9355 60.4656 22.9785V23.1935H58.5646V22.9785C58.9861 22.9355 59.1925 22.7548 59.3302 22.3935L61.3173 17.172H61.8076ZM61.3087 18.2731L60.2936 20.9656H62.3409L61.3087 18.2731ZM67.666 22.8064C68.8789 22.8064 69.5326 22.2731 70.1606 21.4989L70.3326 21.6107L69.4896 23.1935H65.1628V22.9785C65.8509 22.9355 65.9972 22.8839 65.9972 22.2301V18.1355C65.9972 17.4731 65.8509 17.4301 65.1628 17.3871V17.172H67.6832V17.3871C66.995 17.4301 66.8488 17.4731 66.8488 18.1355V22.5484C66.8488 22.7118 66.9434 22.8064 67.1068 22.8064H67.666ZM73.6761 22.8064C74.889 22.8064 75.5427 22.2731 76.1707 21.4989L76.3427 21.6107L75.4997 23.1935H71.1728V22.9785C71.861 22.9355 72.0072 22.8839 72.0072 22.2301V18.1355C72.0072 17.4731 71.861 17.4301 71.1728 17.3871V17.172H73.6933V17.3871C73.0051 17.4301 72.8589 17.4731 72.8589 18.1355V22.5484C72.8589 22.7118 72.9535 22.8064 73.1169 22.8064H73.6761ZM80.0216 22.8064C81.3205 22.8064 81.9743 22.2731 82.6023 21.4989L82.7829 21.6107L81.9399 23.1935H77.1829V22.9785C77.8711 22.9355 78.0173 22.8839 78.0173 22.2301V18.1355C78.0173 17.4731 77.8711 17.4301 77.1829 17.3871V17.172H81.9485L82.5249 18.5742L82.3442 18.6688C81.8023 17.9376 81.1915 17.5591 80.0904 17.5591H79.127C78.9636 17.5591 78.8689 17.6538 78.8689 17.8172V19.8559H80.2625C80.899 19.8559 81.0195 19.572 81.0711 19.0215H81.2947V21.0774H81.0711C81.0195 20.5269 80.899 20.243 80.2625 20.243H78.8689V22.5484C78.8689 22.7118 78.9636 22.8064 79.127 22.8064H80.0216ZM89.0408 18.7032C89.0408 19.6925 88.2064 20.1398 87.0709 20.2086L88.6795 22.4624C88.8859 22.7462 89.1096 22.9355 89.6773 22.9785V23.1935H88.2064L86.116 20.2344H85.3074V22.2301C85.3074 22.8839 85.4537 22.9355 86.1419 22.9785V23.1935H83.6214V22.9785C84.3096 22.9355 84.4558 22.8839 84.4558 22.2301V18.1355C84.4558 17.4731 84.3526 17.4301 83.6214 17.3871V17.172H86.6064C88.0343 17.172 89.0408 17.5849 89.0408 18.7032ZM88.0945 18.7032C88.0945 17.9204 87.5612 17.5591 86.6064 17.5591H85.5655C85.4021 17.5591 85.3074 17.6538 85.3074 17.8172V19.8559H86.5978C87.5612 19.8559 88.0945 19.4946 88.0945 18.7032ZM91.4997 22.9785C92.1878 22.9355 92.3341 22.8839 92.3341 22.2301V20.6817L90.7685 18.1355C90.433 17.5849 90.3212 17.4301 89.9255 17.3871V17.172H92.1792V17.3871C91.5857 17.4301 91.4308 17.628 91.7319 18.1269L92.9878 20.2L94.1835 18.1355C94.476 17.628 94.3126 17.4301 93.7104 17.3871V17.172H95.5599V17.3871C95.0781 17.4301 94.9405 17.628 94.648 18.1355L93.1857 20.6645V22.2301C93.1857 22.8839 93.3319 22.9355 94.0201 22.9785V23.1935H91.4997V22.9785Z" fill="#F9A574"/>
<path d="M26.5827 23.1935L26.3816 23.27L26.4344 23.4086H26.5827V23.1935ZM24.6128 18.015L24.8138 17.9386L24.8136 17.9381L24.6128 18.015ZM23.8902 17.3871H23.6751V17.58L23.8669 17.6009L23.8902 17.3871ZM23.8902 17.172V16.957H23.6751V17.172H23.8902ZM26.1267 17.172H26.3418V16.957H26.1267V17.172ZM26.1267 17.3871L26.141 17.6017L26.3418 17.5883V17.3871H26.1267ZM25.473 17.9118L25.272 17.9884L25.2723 17.9892L25.473 17.9118ZM27.0816 22.0839L26.8809 22.1612L27.0837 22.6873L27.2828 22.1598L27.0816 22.0839ZM28.6558 17.9118L28.4546 17.8357L28.4546 17.8359L28.6558 17.9118ZM27.916 17.3871H27.7009V17.5888L27.9022 17.6017L27.916 17.3871ZM27.916 17.172V16.957H27.7009V17.172H27.916ZM29.8257 17.172H30.0407V16.957H29.8257V17.172ZM29.8257 17.3871L29.8471 17.6011L30.0407 17.5817V17.3871H29.8257ZM29.0515 17.972L28.8505 17.8955L28.8504 17.8958L29.0515 17.972ZM27.073 23.1935V23.4086H27.2215L27.2741 23.2697L27.073 23.1935ZM26.5827 23.1935L26.7837 23.1171L24.8138 17.9386L24.6128 18.015L24.4118 18.0915L26.3816 23.27L26.5827 23.1935ZM24.6128 18.015L24.8136 17.9381C24.732 17.7251 24.6354 17.5411 24.486 17.406C24.3311 17.2661 24.1417 17.1981 23.9134 17.1733L23.8902 17.3871L23.8669 17.6009C24.0343 17.6191 24.1288 17.663 24.1976 17.7251C24.2718 17.7922 24.3387 17.9007 24.4119 18.092L24.6128 18.015ZM23.8902 17.3871H24.1052V17.172H23.8902H23.6751V17.3871H23.8902ZM23.8902 17.172V17.3871H26.1267V17.172V16.957H23.8902V17.172ZM26.1267 17.172H25.9117V17.3871H26.1267H26.3418V17.172H26.1267ZM26.1267 17.3871L26.1124 17.1725C25.9467 17.1836 25.804 17.2001 25.6859 17.2266C25.5706 17.2525 25.4588 17.2922 25.3713 17.3627C25.274 17.4412 25.2204 17.547 25.2118 17.6683C25.2041 17.7772 25.2334 17.8871 25.272 17.9884L25.473 17.9118L25.6739 17.8353C25.6437 17.7559 25.6397 17.7153 25.6409 17.6986C25.6412 17.6944 25.6386 17.6997 25.6413 17.6975C25.6538 17.6874 25.6909 17.6663 25.7802 17.6462C25.8667 17.6268 25.9841 17.6121 26.141 17.6017L26.1267 17.3871ZM25.473 17.9118L25.2723 17.9892L26.8809 22.1612L27.0816 22.0839L27.2822 22.0065L25.6736 17.8345L25.473 17.9118ZM27.0816 22.0839L27.2828 22.1598L28.857 17.9877L28.6558 17.9118L28.4546 17.8359L26.8804 22.0079L27.0816 22.0839ZM28.6558 17.9118L28.8569 17.9879C28.8947 17.888 28.9179 17.776 28.8968 17.6623C28.8743 17.5414 28.8066 17.4445 28.7107 17.3734C28.6201 17.3064 28.5062 17.2631 28.3816 17.2333C28.2552 17.2031 28.1043 17.1837 27.9297 17.1725L27.916 17.3871L27.9022 17.6017C28.0631 17.612 28.1875 17.6292 28.2816 17.6516C28.3774 17.6745 28.429 17.7001 28.4546 17.719C28.4749 17.734 28.4738 17.7403 28.4739 17.7409C28.4754 17.7487 28.4771 17.7765 28.4546 17.8357L28.6558 17.9118ZM27.916 17.3871H28.131V17.172H27.916H27.7009V17.3871H27.916ZM27.916 17.172V17.3871H29.8257V17.172V16.957H27.916V17.172ZM29.8257 17.172H29.6106V17.3871H29.8257H30.0407V17.172H29.8257ZM29.8257 17.3871L29.8043 17.1731C29.5633 17.1972 29.361 17.2623 29.1965 17.3907C29.0324 17.5188 28.9275 17.6932 28.8505 17.8955L29.0515 17.972L29.2524 18.0486C29.313 17.8895 29.3802 17.793 29.4612 17.7297C29.5419 17.6667 29.6579 17.62 29.8471 17.6011L29.8257 17.3871ZM29.0515 17.972L28.8504 17.8958L26.8719 23.1173L27.073 23.1935L27.2741 23.2697L29.2526 18.0482L29.0515 17.972ZM27.073 23.1935V22.9785H26.5827V23.1935V23.4086H27.073V23.1935ZM30.4884 23.1935H30.2733V23.4086H30.4884V23.1935ZM30.4884 22.9785L30.4749 22.7639L30.2733 22.7765V22.9785H30.4884ZM30.4884 17.3871H30.2733V17.5891L30.4749 17.6017L30.4884 17.3871ZM30.4884 17.172V16.957H30.2733V17.172H30.4884ZM33.0088 17.172H33.2238V16.957H33.0088V17.172ZM33.0088 17.3871L33.0222 17.6017L33.2238 17.5891V17.3871H33.0088ZM33.0088 22.9785H33.2238V22.7765L33.0222 22.7639L33.0088 22.9785ZM33.0088 23.1935V23.4086H33.2238V23.1935H33.0088ZM30.4884 23.1935H30.7034V22.9785H30.4884H30.2733V23.1935H30.4884ZM30.4884 22.9785L30.5018 23.1931C30.6729 23.1824 30.8238 23.1706 30.9494 23.1466C31.0751 23.1226 31.1983 23.0826 31.2996 23C31.5104 22.828 31.5378 22.5464 31.5378 22.2301H31.3228H31.1077C31.1077 22.5676 31.062 22.6387 31.0277 22.6667C31.0064 22.6841 30.964 22.7059 30.8687 22.7241C30.7734 22.7423 30.648 22.753 30.4749 22.7639L30.4884 22.9785ZM31.3228 22.2301H31.5378V18.1355H31.3228H31.1077V22.2301H31.3228ZM31.3228 18.1355H31.5378C31.5378 17.9657 31.5289 17.8173 31.4978 17.693C31.4653 17.5631 31.4058 17.4481 31.2987 17.3617C31.1969 17.2795 31.0733 17.2407 30.9482 17.2176C30.823 17.1944 30.6723 17.1831 30.5018 17.1725L30.4884 17.3871L30.4749 17.6017C30.6485 17.6126 30.7741 17.6228 30.87 17.6405C30.9658 17.6582 31.0078 17.6796 31.0286 17.6964C31.0441 17.7089 31.0641 17.7315 31.0805 17.7973C31.0984 17.8687 31.1077 17.974 31.1077 18.1355H31.3228ZM30.4884 17.3871H30.7034V17.172H30.4884H30.2733V17.3871H30.4884ZM30.4884 17.172V17.3871H33.0088V17.172V16.957H30.4884V17.172ZM33.0088 17.172H32.7937V17.3871H33.0088H33.2238V17.172H33.0088ZM33.0088 17.3871L32.9954 17.1725C32.8249 17.1831 32.6741 17.1944 32.549 17.2176C32.4239 17.2407 32.3002 17.2795 32.1985 17.3617C32.0914 17.4481 32.0318 17.5631 31.9994 17.693C31.9683 17.8173 31.9593 17.9657 31.9593 18.1355H32.1744H32.3894C32.3894 17.974 32.3988 17.8687 32.4166 17.7973C32.4331 17.7315 32.4531 17.7089 32.4686 17.6964C32.4894 17.6796 32.5313 17.6582 32.6272 17.6405C32.723 17.6228 32.8486 17.6126 33.0222 17.6017L33.0088 17.3871ZM32.1744 18.1355H31.9593V22.2301H32.1744H32.3894V18.1355H32.1744ZM32.1744 22.2301H31.9593C31.9593 22.5464 31.9868 22.828 32.1976 23C32.2989 23.0826 32.4221 23.1226 32.5477 23.1466C32.6734 23.1706 32.8243 23.1824 32.9954 23.1931L33.0088 22.9785L33.0222 22.7639C32.8492 22.753 32.7238 22.7423 32.6284 22.7241C32.5331 22.7059 32.4908 22.6841 32.4695 22.6667C32.4351 22.6387 32.3894 22.5676 32.3894 22.2301H32.1744ZM33.0088 22.9785H32.7937V23.1935H33.0088H33.2238V22.9785H33.0088ZM33.0088 23.1935V22.9785H30.4884V23.1935V23.4086H33.0088V23.1935ZM39.4564 21.4989L39.5696 21.3161L39.4087 21.2164L39.2894 21.3634L39.4564 21.4989ZM39.6371 21.6107L39.8269 21.7118L39.9216 21.534L39.7503 21.4279L39.6371 21.6107ZM38.7941 23.1935V23.4086H38.9232L38.9839 23.2946L38.7941 23.1935ZM34.0371 23.1935H33.822V23.4086H34.0371V23.1935ZM34.0371 22.9785L34.0237 22.7639L33.822 22.7765V22.9785H34.0371ZM34.0371 17.3871H33.822V17.5891L34.0237 17.6017L34.0371 17.3871ZM34.0371 17.172V16.957H33.822V17.172H34.0371ZM38.8027 17.172L39.0016 17.0903L38.9468 16.957H38.8027V17.172ZM39.379 18.5742L39.4788 18.7647L39.6525 18.6737L39.5779 18.4924L39.379 18.5742ZM39.1984 18.6688L39.0256 18.7969L39.1352 18.9447L39.2982 18.8593L39.1984 18.6688ZM35.7231 19.8559H35.5081V20.071H35.7231V19.8559ZM37.9253 19.0215V18.8064H37.7294L37.7111 19.0014L37.9253 19.0215ZM38.1489 19.0215H38.364V18.8064H38.1489V19.0215ZM38.1489 21.0774V21.2925H38.364V21.0774H38.1489ZM37.9253 21.0774L37.7111 21.0975L37.7294 21.2925H37.9253V21.0774ZM35.7231 20.243V20.028H35.5081V20.243H35.7231ZM36.8758 22.8064V23.0215C37.5568 23.0215 38.0827 22.8811 38.5241 22.6299C38.9624 22.3805 39.3027 22.0298 39.6235 21.6344L39.4564 21.4989L39.2894 21.3634C38.9822 21.7422 38.6817 22.0453 38.3114 22.2561C37.9441 22.4651 37.4937 22.5914 36.8758 22.5914V22.8064ZM39.4564 21.4989L39.3432 21.6818L39.5239 21.7936L39.6371 21.6107L39.7503 21.4279L39.5696 21.3161L39.4564 21.4989ZM39.6371 21.6107L39.4473 21.5097L38.6043 23.0924L38.7941 23.1935L38.9839 23.2946L39.8269 21.7118L39.6371 21.6107ZM38.7941 23.1935V22.9785H34.0371V23.1935V23.4086H38.7941V23.1935ZM34.0371 23.1935H34.2521V22.9785H34.0371H33.822V23.1935H34.0371ZM34.0371 22.9785L34.0505 23.1931C34.2216 23.1824 34.3725 23.1706 34.4981 23.1466C34.6238 23.1226 34.747 23.0826 34.8483 23C35.0591 22.828 35.0865 22.5464 35.0865 22.2301H34.8715H34.6564C34.6564 22.5676 34.6108 22.6387 34.5764 22.6667C34.5551 22.6841 34.5128 22.7059 34.4174 22.7241C34.3221 22.7423 34.1967 22.753 34.0237 22.7639L34.0371 22.9785ZM34.8715 22.2301H35.0865V18.1355H34.8715H34.6564V22.2301H34.8715ZM34.8715 18.1355H35.0865C35.0865 17.9657 35.0776 17.8173 35.0465 17.693C35.014 17.5631 34.9545 17.4481 34.8474 17.3617C34.7456 17.2795 34.622 17.2407 34.4969 17.2176C34.3717 17.1944 34.221 17.1831 34.0505 17.1725L34.0371 17.3871L34.0237 17.6017C34.1973 17.6126 34.3229 17.6228 34.4187 17.6405C34.5145 17.6582 34.5565 17.6796 34.5773 17.6964C34.5928 17.7089 34.6128 17.7315 34.6293 17.7973C34.6471 17.8687 34.6564 17.974 34.6564 18.1355H34.8715ZM34.0371 17.3871H34.2521V17.172H34.0371H33.822V17.3871H34.0371ZM34.0371 17.172V17.3871H38.8027V17.172V16.957H34.0371V17.172ZM38.8027 17.172L38.6038 17.2538L39.1801 18.6559L39.379 18.5742L39.5779 18.4924L39.0016 17.0903L38.8027 17.172ZM39.379 18.5742L39.2792 18.3837L39.0986 18.4783L39.1984 18.6688L39.2982 18.8593L39.4788 18.7647L39.379 18.5742ZM39.1984 18.6688L39.3711 18.5408C39.0876 18.1582 38.7762 17.8546 38.3803 17.6489C37.9842 17.4432 37.5203 17.3441 36.9446 17.3441V17.5591V17.7742C37.47 17.7742 37.862 17.8643 38.182 18.0306C38.5023 18.197 38.7672 18.4482 39.0256 18.7969L39.1984 18.6688ZM36.9446 17.5591V17.3441H35.9812V17.5591V17.7742H36.9446V17.5591ZM35.9812 17.5591V17.3441C35.8583 17.3441 35.7332 17.3804 35.6388 17.4748C35.5444 17.5692 35.5081 17.6943 35.5081 17.8172H35.7231H35.9382C35.9382 17.7968 35.9411 17.7854 35.9429 17.7805C35.9444 17.7762 35.945 17.7769 35.9429 17.7789C35.9408 17.781 35.9402 17.7804 35.9445 17.7789C35.9494 17.7772 35.9608 17.7742 35.9812 17.7742V17.5591ZM35.7231 17.8172H35.5081V19.8559H35.7231H35.9382V17.8172H35.7231ZM35.7231 19.8559V20.071H37.1167V19.8559V19.6409H35.7231V19.8559ZM37.1167 19.8559V20.071C37.4619 20.071 37.7299 19.9943 37.9057 19.7826C38.0687 19.5864 38.1138 19.3148 38.1394 19.0416L37.9253 19.0215L37.7111 19.0014C37.6851 19.2788 37.6442 19.4244 37.5749 19.5077C37.5185 19.5756 37.408 19.6409 37.1167 19.6409V19.8559ZM37.9253 19.0215V19.2366H38.1489V19.0215V18.8064H37.9253V19.0215ZM38.1489 19.0215H37.9339V21.0774H38.1489H38.364V19.0215H38.1489ZM38.1489 21.0774V20.8624H37.9253V21.0774V21.2925H38.1489V21.0774ZM37.9253 21.0774L38.1394 21.0573C38.1138 20.7842 38.0687 20.5125 37.9057 20.3163C37.7299 20.1047 37.4619 20.028 37.1167 20.028V20.243V20.4581C37.408 20.4581 37.5185 20.5233 37.5749 20.5912C37.6442 20.6746 37.6851 20.8201 37.7111 21.0975L37.9253 21.0774ZM37.1167 20.243V20.028H35.7231V20.243V20.4581H37.1167V20.243ZM35.7231 20.243H35.5081V22.5484H35.7231H35.9382V20.243H35.7231ZM35.7231 22.5484H35.5081C35.5081 22.6713 35.5444 22.7964 35.6388 22.8908C35.7332 22.9852 35.8583 23.0215 35.9812 23.0215V22.8064V22.5914C35.9608 22.5914 35.9494 22.5884 35.9445 22.5867C35.9402 22.5851 35.9408 22.5846 35.9429 22.5866C35.945 22.5887 35.9444 22.5893 35.9429 22.5851C35.9411 22.5802 35.9382 22.5688 35.9382 22.5484H35.7231ZM35.9812 22.8064V23.0215H36.8758V22.8064V22.5914H35.9812V22.8064ZM45.6839 23.1935L45.4791 23.259L45.5269 23.4086H45.6839V23.1935ZM44.2302 18.643L44.435 18.5776L44.2308 17.9382L44.0254 18.5772L44.2302 18.643ZM42.7678 23.1935V23.4086H42.9246L42.9725 23.2593L42.7678 23.1935ZM42.2861 23.1935L42.0812 23.259L42.1291 23.4086H42.2861V23.1935ZM40.6689 18.1355L40.8737 18.07L40.8732 18.0685L40.6689 18.1355ZM39.9463 17.3871H39.7312V17.5825L39.9257 17.6012L39.9463 17.3871ZM39.9463 17.172V16.957H39.7312V17.172H39.9463ZM42.2087 17.172H42.4237V16.957H42.2087V17.172ZM42.2087 17.3871L42.2221 17.6017L42.4237 17.5891V17.3871H42.2087ZM41.5635 18.1355L41.7683 18.0697L41.7678 18.0685L41.5635 18.1355ZM42.7592 21.8602L42.5544 21.9259L42.7581 22.5604L42.9638 21.9266L42.7592 21.8602ZM44.0151 17.9892L44.2197 18.0556L44.2422 17.9862L44.2178 17.9174L44.0151 17.9892ZM43.3441 17.3871H43.1291V17.5846L43.3259 17.6014L43.3441 17.3871ZM43.3441 17.172V16.957H43.1291V17.172H43.3441ZM45.6065 17.172H45.8216V16.957H45.6065V17.172ZM45.6065 17.3871L45.6198 17.6017L45.8216 17.5893V17.3871H45.6065ZM44.9613 18.1355L45.1661 18.0697L45.1657 18.0685L44.9613 18.1355ZM46.157 21.8602L45.9523 21.9259L46.1563 22.5615L46.3617 21.9264L46.157 21.8602ZM47.3613 18.1355L47.566 18.2016L47.566 18.2015L47.3613 18.1355ZM46.7334 17.3871H46.5183V17.5891L46.72 17.6017L46.7334 17.3871ZM46.7334 17.172V16.957H46.5183V17.172H46.7334ZM48.5484 17.172H48.7635V16.957H48.5484V17.172ZM48.5484 17.3871L48.5703 17.601L48.7635 17.5813V17.3871H48.5484ZM47.7915 18.1355L47.5881 18.0655L47.5867 18.0697L47.7915 18.1355ZM46.1656 23.1935V23.4086H46.3224L46.3704 23.2594L46.1656 23.1935ZM45.6839 23.1935L45.8888 23.1281L44.435 18.5776L44.2302 18.643L44.0253 18.7084L45.4791 23.259L45.6839 23.1935ZM44.2302 18.643L44.0254 18.5772L42.5631 23.1277L42.7678 23.1935L42.9725 23.2593L44.4349 18.7088L44.2302 18.643ZM42.7678 23.1935V22.9785H42.2861V23.1935V23.4086H42.7678V23.1935ZM42.2861 23.1935L42.4909 23.128L40.8737 18.07L40.6689 18.1355L40.464 18.201L42.0812 23.259L42.2861 23.1935ZM40.6689 18.1355L40.8732 18.0685C40.7895 17.8131 40.7092 17.5927 40.5715 17.4378C40.418 17.2651 40.2186 17.1972 39.9669 17.173L39.9463 17.3871L39.9257 17.6012C40.1213 17.62 40.1971 17.664 40.2501 17.7235C40.3188 17.8009 40.3762 17.9331 40.4645 18.2025L40.6689 18.1355ZM39.9463 17.3871H40.1613V17.172H39.9463H39.7312V17.3871H39.9463ZM39.9463 17.172V17.3871H42.2087V17.172V16.957H39.9463V17.172ZM42.2087 17.172H41.9936V17.3871H42.2087H42.4237V17.172H42.2087ZM42.2087 17.3871L42.1952 17.1725C42.0167 17.1836 41.8613 17.2043 41.7327 17.242C41.6044 17.2797 41.4843 17.3398 41.3983 17.443C41.2195 17.6576 41.2745 17.9443 41.3591 18.2025L41.5635 18.1355L41.7678 18.0685C41.6804 17.8019 41.714 17.736 41.7287 17.7183C41.7395 17.7053 41.7699 17.6794 41.8539 17.6547C41.9377 17.6301 42.0566 17.6121 42.2221 17.6017L42.2087 17.3871ZM41.5635 18.1355L41.3587 18.2012L42.5544 21.9259L42.7592 21.8602L42.964 21.7945L41.7683 18.0697L41.5635 18.1355ZM42.7592 21.8602L42.9638 21.9266L44.2197 18.0556L44.0151 17.9892L43.8106 17.9229L42.5546 21.7938L42.7592 21.8602ZM44.0151 17.9892L44.2178 17.9174C44.1444 17.7101 44.0642 17.5239 43.9251 17.3908C43.7763 17.2486 43.5891 17.1921 43.3624 17.1728L43.3441 17.3871L43.3259 17.6014C43.5035 17.6165 43.5786 17.6547 43.6278 17.7016C43.6865 17.7578 43.7396 17.8555 43.8124 18.061L44.0151 17.9892ZM43.3441 17.3871H43.5592V17.172H43.3441H43.1291V17.3871H43.3441ZM43.3441 17.172V17.3871H45.6065V17.172V16.957H43.3441V17.172ZM45.6065 17.172H45.3915V17.3871H45.6065H45.8216V17.172H45.6065ZM45.6065 17.3871L45.5933 17.1724C45.4127 17.1836 45.2562 17.2042 45.1272 17.242C44.9984 17.2797 44.8779 17.3399 44.7922 17.4439C44.703 17.552 44.6738 17.6802 44.6766 17.808C44.6793 17.9308 44.7116 18.0641 44.757 18.2025L44.9613 18.1355L45.1657 18.0685C45.125 17.9445 45.1079 17.8584 45.1066 17.7985C45.1054 17.7434 45.1175 17.7254 45.1241 17.7174C45.1341 17.7053 45.1635 17.6795 45.2479 17.6548C45.3321 17.6302 45.452 17.6121 45.6198 17.6017L45.6065 17.3871ZM44.9613 18.1355L44.7566 18.2012L45.9523 21.9259L46.157 21.8602L46.3618 21.7945L45.1661 18.0697L44.9613 18.1355ZM46.157 21.8602L46.3617 21.9264L47.566 18.2016L47.3613 18.1355L47.1567 18.0693L45.9524 21.794L46.157 21.8602ZM47.3613 18.1355L47.566 18.2015C47.6111 18.0619 47.6436 17.9285 47.6475 17.8065C47.6516 17.6801 47.6251 17.5516 47.5376 17.4427C47.4531 17.3376 47.3332 17.2778 47.2063 17.2407C47.0792 17.2036 46.9248 17.1836 46.7468 17.1725L46.7334 17.3871L46.72 17.6017C46.8861 17.6121 47.0037 17.6297 47.0858 17.6536C47.168 17.6776 47.1943 17.7022 47.2023 17.7121C47.2072 17.7182 47.2195 17.7354 47.2176 17.7927C47.2157 17.8543 47.1977 17.9424 47.1567 18.0695L47.3613 18.1355ZM46.7334 17.3871H46.9484V17.172H46.7334H46.5183V17.3871H46.7334ZM46.7334 17.172V17.3871H48.5484V17.172V16.957H46.7334V17.172ZM48.5484 17.172H48.3334V17.3871H48.5484H48.7635V17.172H48.5484ZM48.5484 17.3871L48.5266 17.1731C48.2862 17.1977 48.0873 17.2658 47.9261 17.43C47.7758 17.5832 47.6794 17.8002 47.5881 18.0655L47.7915 18.1355L47.9948 18.2055C48.0841 17.946 48.1555 17.8104 48.2331 17.7313C48.2999 17.6632 48.3892 17.6195 48.5703 17.601L48.5484 17.3871ZM47.7915 18.1355L47.5867 18.0697L45.9609 23.1277L46.1656 23.1935L46.3704 23.2594L47.9962 18.2013L47.7915 18.1355ZM46.1656 23.1935V22.9785H45.6839V23.1935V23.4086H46.1656V23.1935ZM56.6739 22.7032L56.8528 22.5839L56.7125 22.3734L56.5273 22.5459L56.6739 22.7032ZM56.3814 17.4731L56.2552 17.6472L56.4786 17.8092L56.5811 17.553L56.3814 17.4731ZM56.5019 17.172V16.957H56.3563L56.3022 17.0922L56.5019 17.172ZM56.7599 17.172L56.9652 17.1078L56.918 16.957H56.7599V17.172ZM57.2847 18.8495L57.3553 19.0526L57.5521 18.9841L57.4899 18.7853L57.2847 18.8495ZM57.0868 18.9183L56.8983 19.0217L56.9857 19.1811L57.1575 19.1214L57.0868 18.9183ZM56.4072 22.3333L56.5793 22.4624L56.6223 22.405V22.3333H56.4072ZM55.5814 20.6559H55.3664V20.8579L55.568 20.8705L55.5814 20.6559ZM55.5814 20.4409V20.2258H55.3664V20.4409H55.5814ZM58.0675 20.4409H58.2825V20.2258H58.0675V20.4409ZM58.0675 20.6559L58.0816 20.8705L58.2825 20.8573V20.6559H58.0675ZM57.2589 23.1935V23.4086H57.4739V23.1935H57.2589ZM57.0008 23.1935L56.8219 23.3128L56.8857 23.4086H57.0008V23.1935ZM56.6739 22.7032L56.5273 22.5459C56.1933 22.8571 55.6542 23.1075 54.8675 23.1075V23.3226V23.5376C55.7495 23.5376 56.3975 23.2547 56.8205 22.8606L56.6739 22.7032ZM54.8675 23.3226V23.1075C53.328 23.1075 52.218 21.8992 52.218 20.1828H52.0029H51.7879C51.7879 22.0965 53.0521 23.5376 54.8675 23.5376V23.3226ZM52.0029 20.1828H52.218C52.218 18.4668 53.3276 17.2581 54.8761 17.2581V17.043V16.828C53.0525 16.828 51.7879 18.2686 51.7879 20.1828H52.0029ZM54.8761 17.043V17.2581C55.4904 17.2581 55.9523 17.4276 56.2552 17.6472L56.3814 17.4731L56.5077 17.299C56.1224 17.0197 55.5693 16.828 54.8761 16.828V17.043ZM56.3814 17.4731L56.5811 17.553L56.7015 17.2519L56.5019 17.172L56.3022 17.0922L56.1818 17.3932L56.3814 17.4731ZM56.5019 17.172V17.3871H56.7599V17.172V16.957H56.5019V17.172ZM56.7599 17.172L56.5547 17.2362L57.0794 18.9137L57.2847 18.8495L57.4899 18.7853L56.9652 17.1078L56.7599 17.172ZM57.2847 18.8495L57.214 18.6463L57.0162 18.7152L57.0868 18.9183L57.1575 19.1214L57.3553 19.0526L57.2847 18.8495ZM57.0868 18.9183L57.2754 18.8148C56.7189 17.8007 55.953 17.1978 54.9363 17.1978V17.4129V17.628C55.7432 17.628 56.388 18.0918 56.8983 19.0217L57.0868 18.9183ZM54.9363 17.4129V17.1978C54.1768 17.1978 53.6122 17.5237 53.2472 18.0761C52.8902 18.6163 52.7341 19.3565 52.7341 20.1828H52.9492H53.1642C53.1642 19.4005 53.3136 18.7557 53.606 18.3132C53.8905 17.8828 54.3194 17.628 54.9363 17.628V17.4129ZM52.9492 20.1828H52.7341C52.7341 21.0092 52.8902 21.7469 53.2437 22.2848C53.605 22.8346 54.1629 23.1591 54.9105 23.1591V22.9441V22.729C54.3075 22.729 53.8848 22.4772 53.6031 22.0486C53.3136 21.608 53.1642 20.965 53.1642 20.1828H52.9492ZM54.9105 22.9441V23.1591C55.7291 23.1591 56.3545 22.762 56.5793 22.4624L56.4072 22.3333L56.2352 22.2043C56.0987 22.3863 55.6058 22.729 54.9105 22.729V22.9441ZM56.4072 22.3333H56.6223V21.4043H56.4072H56.1922V22.3333H56.4072ZM56.4072 21.4043H56.6223C56.6223 21.2371 56.6139 21.0902 56.584 20.9669C56.5527 20.8382 56.4951 20.7231 56.3898 20.6356C56.2893 20.5522 56.1665 20.5119 56.0414 20.4879C55.9165 20.4638 55.7659 20.452 55.5949 20.4413L55.5814 20.6559L55.568 20.8705C55.7411 20.8814 55.8658 20.8921 55.9602 20.9102C56.0545 20.9284 56.0951 20.95 56.115 20.9665C56.1301 20.9791 56.1499 21.0021 56.166 21.0683C56.1834 21.1399 56.1922 21.2447 56.1922 21.4043H56.4072ZM55.5814 20.6559H55.7965V20.4409H55.5814H55.3664V20.6559H55.5814ZM55.5814 20.4409V20.6559H58.0675V20.4409V20.2258H55.5814V20.4409ZM58.0675 20.4409H57.8524V20.6559H58.0675H58.2825V20.4409H58.0675ZM58.0675 20.6559L58.0533 20.4413C57.8908 20.452 57.7455 20.4639 57.6235 20.4881C57.5011 20.5124 57.3803 20.5528 57.2806 20.6356C57.0742 20.807 57.0438 21.0856 57.0438 21.4043H57.2589H57.4739C57.4739 21.0692 57.5209 20.9952 57.5554 20.9665C57.5761 20.9493 57.6166 20.9279 57.7071 20.91C57.7981 20.892 57.9172 20.8813 58.0816 20.8705L58.0675 20.6559ZM57.2589 21.4043H57.0438V23.1935H57.2589H57.4739V21.4043H57.2589ZM57.2589 23.1935V22.9785H57.0008V23.1935V23.4086H57.2589V23.1935ZM57.0008 23.1935L57.1797 23.0743L56.8528 22.5839L56.6739 22.7032L56.495 22.8225L56.8219 23.3128L57.0008 23.1935ZM61.8076 17.172L62.0086 17.0956L61.9559 16.957H61.8076V17.172ZM63.7775 22.3505L63.9797 22.2774L63.9785 22.2741L63.7775 22.3505ZM64.5001 22.9785H64.7151V22.7851L64.5228 22.7646L64.5001 22.9785ZM64.5001 23.1935V23.4086H64.7151V23.1935H64.5001ZM62.2635 23.1935H62.0484V23.4086H62.2635V23.1935ZM62.2635 22.9785L62.2492 22.7639L62.0484 22.7773V22.9785H62.2635ZM62.9173 22.4452L63.1182 22.3686L63.1176 22.3669L62.9173 22.4452ZM62.4872 21.3441L62.6875 21.2658L62.634 21.129H62.4872V21.3441ZM60.1474 21.3441V21.129H59.9983L59.946 21.2686L60.1474 21.3441ZM59.7345 22.4452L59.9345 22.5241L59.9358 22.5207L59.7345 22.4452ZM60.4656 22.9785H60.6807V22.7769L60.4796 22.7639L60.4656 22.9785ZM60.4656 23.1935V23.4086H60.6807V23.1935H60.4656ZM58.5646 23.1935H58.3495V23.4086H58.5646V23.1935ZM58.5646 22.9785L58.5427 22.7645L58.3495 22.7843V22.9785H58.5646ZM59.3302 22.3935L59.5311 22.4701L59.5312 22.47L59.3302 22.3935ZM61.3173 17.172V16.957H61.169L61.1163 17.0955L61.3173 17.172ZM61.3087 18.2731L61.5095 18.1961L61.307 17.668L61.1074 18.1972L61.3087 18.2731ZM60.2936 20.9656L60.0924 20.8897L59.9827 21.1806H60.2936V20.9656ZM62.3409 20.9656V21.1806H62.6537L62.5417 20.8886L62.3409 20.9656ZM61.8076 17.172L61.6066 17.2485L63.5765 22.427L63.7775 22.3505L63.9785 22.2741L62.0086 17.0956L61.8076 17.172ZM63.7775 22.3505L63.5752 22.4237C63.6526 22.6376 63.747 22.8233 63.8978 22.9595C64.0535 23.1003 64.2458 23.1677 64.4773 23.1923L64.5001 22.9785L64.5228 22.7646C64.35 22.7463 64.2541 22.7018 64.1862 22.6405C64.1133 22.5746 64.0486 22.4678 63.9797 22.2774L63.7775 22.3505ZM64.5001 22.9785H64.285V23.1935H64.5001H64.7151V22.9785H64.5001ZM64.5001 23.1935V22.9785H62.2635V23.1935V23.4086H64.5001V23.1935ZM62.2635 23.1935H62.4785V22.9785H62.2635H62.0484V23.1935H62.2635ZM62.2635 22.9785L62.2778 23.1931C62.444 23.182 62.5872 23.1649 62.7059 23.1373C62.822 23.1103 62.9339 23.069 63.0211 22.9968C63.1174 22.917 63.17 22.8107 63.1784 22.6898C63.1861 22.5806 63.157 22.4704 63.1182 22.3686L62.9173 22.4452L62.7163 22.5217C62.7463 22.6006 62.7506 22.642 62.7494 22.6599C62.7489 22.6661 62.7504 22.6625 62.7468 22.6655C62.734 22.6761 62.6969 22.6978 62.6085 22.7184C62.5225 22.7383 62.4056 22.7535 62.2492 22.7639L62.2635 22.9785ZM62.9173 22.4452L63.1176 22.3669L62.6875 21.2658L62.4872 21.3441L62.2868 21.4223L62.7169 22.5234L62.9173 22.4452ZM62.4872 21.3441V21.129H60.1474V21.3441V21.5591H62.4872V21.3441ZM60.1474 21.3441L59.946 21.2686L59.5331 22.3696L59.7345 22.4452L59.9358 22.5207L60.3487 21.4196L60.1474 21.3441ZM59.7345 22.4452L59.5344 22.3662C59.4942 22.4682 59.4692 22.5819 59.4892 22.6971C59.5105 22.8198 59.5781 22.9182 59.6742 22.9903C59.7649 23.0583 59.8791 23.102 60.0033 23.132C60.1293 23.1624 60.2792 23.1819 60.4517 23.1931L60.4656 22.9785L60.4796 22.7639C60.3209 22.7536 60.1977 22.7365 60.1043 22.7139C60.0091 22.691 59.9577 22.6653 59.9323 22.6462C59.9123 22.6313 59.9132 22.6248 59.913 22.6236C59.9115 22.6149 59.9103 22.5855 59.9345 22.5241L59.7345 22.4452ZM60.4656 22.9785H60.2506V23.1935H60.4656H60.6807V22.9785H60.4656ZM60.4656 23.1935V22.9785H58.5646V23.1935V23.4086H60.4656V23.1935ZM58.5646 23.1935H58.7796V22.9785H58.5646H58.3495V23.1935H58.5646ZM58.5646 22.9785L58.5864 23.1924C58.8238 23.1682 59.0238 23.1027 59.1869 22.9743C59.3494 22.8463 59.4541 22.6723 59.5311 22.4701L59.3302 22.3935L59.1292 22.317C59.0686 22.4761 59.0013 22.573 58.9208 22.6364C58.8408 22.6994 58.7269 22.7458 58.5427 22.7645L58.5646 22.9785ZM59.3302 22.3935L59.5312 22.47L61.5182 17.2485L61.3173 17.172L61.1163 17.0955L59.1292 22.3171L59.3302 22.3935ZM61.3173 17.172V17.3871H61.8076V17.172V16.957H61.3173V17.172ZM61.3087 18.2731L61.1074 18.1972L60.0924 20.8897L60.2936 20.9656L60.4948 21.0414L61.5099 18.349L61.3087 18.2731ZM60.2936 20.9656V21.1806H62.3409V20.9656V20.7505H60.2936V20.9656ZM62.3409 20.9656L62.5417 20.8886L61.5095 18.1961L61.3087 18.2731L61.1079 18.3501L62.1401 21.0426L62.3409 20.9656ZM70.1606 21.4989L70.2778 21.3186L70.1155 21.2131L69.9936 21.3634L70.1606 21.4989ZM70.3326 21.6107L70.5225 21.7118L70.6151 21.5379L70.4498 21.4304L70.3326 21.6107ZM69.4896 23.1935V23.4086H69.6188L69.6794 23.2946L69.4896 23.1935ZM65.1628 23.1935H64.9477V23.4086H65.1628V23.1935ZM65.1628 22.9785L65.1493 22.7639L64.9477 22.7765V22.9785H65.1628ZM65.1628 17.3871H64.9477V17.5891L65.1493 17.6017L65.1628 17.3871ZM65.1628 17.172V16.957H64.9477V17.172H65.1628ZM67.6832 17.172H67.8982V16.957H67.6832V17.172ZM67.6832 17.3871L67.6966 17.6017L67.8982 17.5891V17.3871H67.6832ZM67.666 22.8064V23.0215C68.3066 23.0215 68.8115 22.8799 69.2412 22.6287C69.6673 22.3795 70.007 22.0297 70.3276 21.6344L70.1606 21.4989L69.9936 21.3634C69.6863 21.7423 69.3851 22.0463 69.0241 22.2574C68.6667 22.4663 68.2382 22.5914 67.666 22.5914V22.8064ZM70.1606 21.4989L70.0434 21.6792L70.2154 21.7911L70.3326 21.6107L70.4498 21.4304L70.2778 21.3186L70.1606 21.4989ZM70.3326 21.6107L70.1428 21.5097L69.2998 23.0924L69.4896 23.1935L69.6794 23.2946L70.5225 21.7118L70.3326 21.6107ZM69.4896 23.1935V22.9785H65.1628V23.1935V23.4086H69.4896V23.1935ZM65.1628 23.1935H65.3778V22.9785H65.1628H64.9477V23.1935H65.1628ZM65.1628 22.9785L65.1762 23.1931C65.3472 23.1824 65.4982 23.1706 65.6238 23.1466C65.7495 23.1226 65.8727 23.0826 65.974 23C66.1848 22.828 66.2122 22.5464 66.2122 22.2301H65.9972H65.7821C65.7821 22.5676 65.7364 22.6387 65.7021 22.6667C65.6808 22.6841 65.6384 22.7059 65.5431 22.7241C65.4477 22.7423 65.3223 22.753 65.1493 22.7639L65.1628 22.9785ZM65.9972 22.2301H66.2122V18.1355H65.9972H65.7821V22.2301H65.9972ZM65.9972 18.1355H66.2122C66.2122 17.9657 66.2033 17.8173 66.1722 17.693C66.1397 17.5631 66.0802 17.4481 65.9731 17.3617C65.8713 17.2795 65.7477 17.2407 65.6226 17.2176C65.4974 17.1944 65.3467 17.1831 65.1762 17.1725L65.1628 17.3871L65.1493 17.6017C65.3229 17.6126 65.4485 17.6228 65.5443 17.6405C65.6402 17.6582 65.6822 17.6796 65.703 17.6964C65.7185 17.7089 65.7385 17.7315 65.7549 17.7973C65.7728 17.8687 65.7821 17.974 65.7821 18.1355H65.9972ZM65.1628 17.3871H65.3778V17.172H65.1628H64.9477V17.3871H65.1628ZM65.1628 17.172V17.3871H67.6832V17.172V16.957H65.1628V17.172ZM67.6832 17.172H67.4681V17.3871H67.6832H67.8982V17.172H67.6832ZM67.6832 17.3871L67.6698 17.1725C67.4993 17.1831 67.3485 17.1944 67.2234 17.2176C67.0983 17.2407 66.9746 17.2795 66.8729 17.3617C66.7658 17.4481 66.7062 17.5631 66.6737 17.693C66.6427 17.8173 66.6337 17.9657 66.6337 18.1355H66.8488H67.0638C67.0638 17.974 67.0732 17.8687 67.091 17.7973C67.1075 17.7315 67.1275 17.7089 67.143 17.6964C67.1638 17.6796 67.2057 17.6582 67.3016 17.6405C67.3974 17.6228 67.523 17.6126 67.6966 17.6017L67.6832 17.3871ZM66.8488 18.1355H66.6337V22.5484H66.8488H67.0638V18.1355H66.8488ZM66.8488 22.5484H66.6337C66.6337 22.6713 66.6701 22.7964 66.7645 22.8908C66.8589 22.9852 66.984 23.0215 67.1068 23.0215V22.8064V22.5914C67.0865 22.5914 67.075 22.5884 67.0702 22.5867C67.0659 22.5851 67.0665 22.5846 67.0686 22.5866C67.0707 22.5887 67.0701 22.5893 67.0685 22.5851C67.0668 22.5802 67.0638 22.5688 67.0638 22.5484H66.8488ZM67.1068 22.8064V23.0215H67.666V22.8064V22.5914H67.1068V22.8064ZM76.1707 21.4989L76.2879 21.3186L76.1256 21.2131L76.0037 21.3634L76.1707 21.4989ZM76.3427 21.6107L76.5325 21.7118L76.6252 21.5379L76.4599 21.4304L76.3427 21.6107ZM75.4997 23.1935V23.4086H75.6288L75.6895 23.2946L75.4997 23.1935ZM71.1728 23.1935H70.9578V23.4086H71.1728V23.1935ZM71.1728 22.9785L71.1594 22.7639L70.9578 22.7765V22.9785H71.1728ZM71.1728 17.3871H70.9578V17.5891L71.1594 17.6017L71.1728 17.3871ZM71.1728 17.172V16.957H70.9578V17.172H71.1728ZM73.6933 17.172H73.9083V16.957H73.6933V17.172ZM73.6933 17.3871L73.7067 17.6017L73.9083 17.5891V17.3871H73.6933ZM73.6761 22.8064V23.0215C74.3167 23.0215 74.8215 22.8799 75.2513 22.6287C75.6774 22.3795 76.0171 22.0297 76.3377 21.6344L76.1707 21.4989L76.0037 21.3634C75.6963 21.7423 75.3951 22.0463 75.0342 22.2574C74.6768 22.4663 74.2483 22.5914 73.6761 22.5914V22.8064ZM76.1707 21.4989L76.0535 21.6792L76.2255 21.7911L76.3427 21.6107L76.4599 21.4304L76.2879 21.3186L76.1707 21.4989ZM76.3427 21.6107L76.1529 21.5097L75.3099 23.0924L75.4997 23.1935L75.6895 23.2946L76.5325 21.7118L76.3427 21.6107ZM75.4997 23.1935V22.9785H71.1728V23.1935V23.4086H75.4997V23.1935ZM71.1728 23.1935H71.3879V22.9785H71.1728H70.9578V23.1935H71.1728ZM71.1728 22.9785L71.1863 23.1931C71.3573 23.1824 71.5083 23.1706 71.6339 23.1466C71.7595 23.1226 71.8828 23.0826 71.984 23C72.1949 22.828 72.2223 22.5464 72.2223 22.2301H72.0072H71.7922C71.7922 22.5676 71.7465 22.6387 71.7122 22.6667C71.6909 22.6841 71.6485 22.7059 71.5532 22.7241C71.4578 22.7423 71.3324 22.753 71.1594 22.7639L71.1728 22.9785ZM72.0072 22.2301H72.2223V18.1355H72.0072H71.7922V22.2301H72.0072ZM72.0072 18.1355H72.2223C72.2223 17.9657 72.2134 17.8173 72.1823 17.693C72.1498 17.5631 72.0903 17.4481 71.9832 17.3617C71.8814 17.2795 71.7577 17.2407 71.6326 17.2176C71.5075 17.1944 71.3568 17.1831 71.1863 17.1725L71.1728 17.3871L71.1594 17.6017C71.333 17.6126 71.4586 17.6228 71.5544 17.6405C71.6503 17.6582 71.6922 17.6796 71.713 17.6964C71.7285 17.7089 71.7486 17.7315 71.765 17.7973C71.7829 17.8687 71.7922 17.974 71.7922 18.1355H72.0072ZM71.1728 17.3871H71.3879V17.172H71.1728H70.9578V17.3871H71.1728ZM71.1728 17.172V17.3871H73.6933V17.172V16.957H71.1728V17.172ZM73.6933 17.172H73.4782V17.3871H73.6933H73.9083V17.172H73.6933ZM73.6933 17.3871L73.6799 17.1725C73.5093 17.1831 73.3586 17.1944 73.2335 17.2176C73.1084 17.2407 72.9847 17.2795 72.8829 17.3617C72.7759 17.4481 72.7163 17.5631 72.6838 17.693C72.6528 17.8173 72.6438 17.9657 72.6438 18.1355H72.8589H73.0739C73.0739 17.974 73.0832 17.8687 73.1011 17.7973C73.1175 17.7315 73.1376 17.7089 73.1531 17.6964C73.1739 17.6796 73.2158 17.6582 73.3117 17.6405C73.4075 17.6228 73.5331 17.6126 73.7067 17.6017L73.6933 17.3871ZM72.8589 18.1355H72.6438V22.5484H72.8589H73.0739V18.1355H72.8589ZM72.8589 22.5484H72.6438C72.6438 22.6713 72.6801 22.7964 72.7745 22.8908C72.8689 22.9852 72.994 23.0215 73.1169 23.0215V22.8064V22.5914C73.0965 22.5914 73.0851 22.5884 73.0802 22.5867C73.076 22.5851 73.0766 22.5846 73.0787 22.5866C73.0807 22.5887 73.0802 22.5893 73.0786 22.5851C73.0769 22.5802 73.0739 22.5688 73.0739 22.5484H72.8589ZM73.1169 22.8064V23.0215H73.6761V22.8064V22.5914H73.1169V22.8064ZM82.6023 21.4989L82.7155 21.3161L82.5545 21.2164L82.4352 21.3634L82.6023 21.4989ZM82.7829 21.6107L82.9727 21.7118L83.0675 21.534L82.8961 21.4279L82.7829 21.6107ZM81.9399 23.1935V23.4086H82.069L82.1297 23.2946L81.9399 23.1935ZM77.1829 23.1935H76.9679V23.4086H77.1829V23.1935ZM77.1829 22.9785L77.1695 22.7639L76.9679 22.7765V22.9785H77.1829ZM77.1829 17.3871H76.9679V17.5891L77.1695 17.6017L77.1829 17.3871ZM77.1829 17.172V16.957H76.9679V17.172H77.1829ZM81.9485 17.172L82.1474 17.0903L82.0926 16.957H81.9485V17.172ZM82.5248 18.5742L82.6246 18.7647L82.7983 18.6737L82.7238 18.4924L82.5248 18.5742ZM82.3442 18.6688L82.1714 18.7969L82.281 18.9447L82.444 18.8593L82.3442 18.6688ZM78.8689 19.8559H78.6539V20.071H78.8689V19.8559ZM81.0711 19.0215V18.8064H80.8753L80.857 19.0014L81.0711 19.0215ZM81.2947 19.0215H81.5098V18.8064H81.2947V19.0215ZM81.2947 21.0774V21.2925H81.5098V21.0774H81.2947ZM81.0711 21.0774L80.857 21.0975L80.8753 21.2925H81.0711V21.0774ZM78.8689 20.243V20.028H78.6539V20.243H78.8689ZM80.0216 22.8064V23.0215C80.7026 23.0215 81.2286 22.8811 81.6699 22.6299C82.1082 22.3805 82.4485 22.0298 82.7693 21.6344L82.6023 21.4989L82.4352 21.3634C82.1281 21.7422 81.8275 22.0453 81.4572 22.2561C81.09 22.4651 80.6395 22.5914 80.0216 22.5914V22.8064ZM82.6023 21.4989L82.4891 21.6818L82.6697 21.7936L82.7829 21.6107L82.8961 21.4279L82.7155 21.3161L82.6023 21.4989ZM82.7829 21.6107L82.5931 21.5097L81.7501 23.0924L81.9399 23.1935L82.1297 23.2946L82.9727 21.7118L82.7829 21.6107ZM81.9399 23.1935V22.9785H77.1829V23.1935V23.4086H81.9399V23.1935ZM77.1829 23.1935H77.398V22.9785H77.1829H76.9679V23.1935H77.1829ZM77.1829 22.9785L77.1963 23.1931C77.3674 23.1824 77.5184 23.1706 77.644 23.1466C77.7696 23.1226 77.8928 23.0826 77.9941 23C78.2049 22.828 78.2324 22.5464 78.2324 22.2301H78.0173H77.8023C77.8023 22.5676 77.7566 22.6387 77.7222 22.6667C77.7009 22.6841 77.6586 22.7059 77.5633 22.7241C77.4679 22.7423 77.3425 22.753 77.1695 22.7639L77.1829 22.9785ZM78.0173 22.2301H78.2324V18.1355H78.0173H77.8023V22.2301H78.0173ZM78.0173 18.1355H78.2324C78.2324 17.9657 78.2234 17.8173 78.1924 17.693C78.1599 17.5631 78.1003 17.4481 77.9932 17.3617C77.8915 17.2795 77.7678 17.2407 77.6427 17.2176C77.5176 17.1944 77.3668 17.1831 77.1963 17.1725L77.1829 17.3871L77.1695 17.6017C77.3431 17.6126 77.4687 17.6228 77.5645 17.6405C77.6604 17.6582 77.7023 17.6796 77.7231 17.6964C77.7386 17.7089 77.7586 17.7315 77.7751 17.7973C77.7929 17.8687 77.8023 17.974 77.8023 18.1355H78.0173ZM77.1829 17.3871H77.398V17.172H77.1829H76.9679V17.3871H77.1829ZM77.1829 17.172V17.3871H81.9485V17.172V16.957H77.1829V17.172ZM81.9485 17.172L81.7496 17.2538L82.3259 18.6559L82.5248 18.5742L82.7238 18.4924L82.1474 17.0903L81.9485 17.172ZM82.5248 18.5742L82.4251 18.3837L82.2444 18.4783L82.3442 18.6688L82.444 18.8593L82.6246 18.7647L82.5248 18.5742ZM82.3442 18.6688L82.517 18.5408C82.2335 18.1582 81.922 17.8546 81.5261 17.6489C81.1301 17.4432 80.6661 17.3441 80.0904 17.3441V17.5591V17.7742C80.6159 17.7742 81.0078 17.8643 81.3279 18.0306C81.6481 18.197 81.913 18.4482 82.1714 18.7969L82.3442 18.6688ZM80.0904 17.5591V17.3441H79.127V17.5591V17.7742H80.0904V17.5591ZM79.127 17.5591V17.3441C79.0041 17.3441 78.879 17.3804 78.7846 17.4748C78.6902 17.5692 78.6539 17.6943 78.6539 17.8172H78.8689H79.084C79.084 17.7968 79.087 17.7854 79.0887 17.7805C79.0902 17.7762 79.0908 17.7769 79.0887 17.7789C79.0867 17.781 79.086 17.7804 79.0903 17.7789C79.0952 17.7772 79.1066 17.7742 79.127 17.7742V17.5591ZM78.8689 17.8172H78.6539V19.8559H78.8689H79.084V17.8172H78.8689ZM78.8689 19.8559V20.071H80.2625V19.8559V19.6409H78.8689V19.8559ZM80.2625 19.8559V20.071C80.6077 20.071 80.8757 19.9943 81.0516 19.7826C81.2146 19.5864 81.2596 19.3148 81.2852 19.0416L81.0711 19.0215L80.857 19.0014C80.831 19.2788 80.79 19.4244 80.7207 19.5077C80.6643 19.5756 80.5538 19.6409 80.2625 19.6409V19.8559ZM81.0711 19.0215V19.2366H81.2947V19.0215V18.8064H81.0711V19.0215ZM81.2947 19.0215H81.0797V21.0774H81.2947H81.5098V19.0215H81.2947ZM81.2947 21.0774V20.8624H81.0711V21.0774V21.2925H81.2947V21.0774ZM81.0711 21.0774L81.2852 21.0573C81.2596 20.7842 81.2146 20.5125 81.0516 20.3163C80.8757 20.1047 80.6077 20.028 80.2625 20.028V20.243V20.4581C80.5538 20.4581 80.6643 20.5233 80.7207 20.5912C80.79 20.6746 80.831 20.8201 80.857 21.0975L81.0711 21.0774ZM80.2625 20.243V20.028H78.8689V20.243V20.4581H80.2625V20.243ZM78.8689 20.243H78.6539V22.5484H78.8689H79.084V20.243H78.8689ZM78.8689 22.5484H78.6539C78.6539 22.6713 78.6902 22.7964 78.7846 22.8908C78.879 22.9852 79.0041 23.0215 79.127 23.0215V22.8064V22.5914C79.1066 22.5914 79.0952 22.5884 79.0903 22.5867C79.086 22.5851 79.0867 22.5846 79.0887 22.5866C79.0908 22.5887 79.0902 22.5893 79.0887 22.5851C79.087 22.5802 79.084 22.5688 79.084 22.5484H78.8689ZM79.127 22.8064V23.0215H80.0216V22.8064V22.5914H79.127V22.8064ZM87.0709 20.2086L87.0579 19.9939L86.6702 20.0174L86.8958 20.3335L87.0709 20.2086ZM88.6795 22.4624L88.5044 22.5873L88.5056 22.5888L88.6795 22.4624ZM89.6773 22.9785H89.8924V22.7791L89.6936 22.764L89.6773 22.9785ZM89.6773 23.1935V23.4086H89.8924V23.1935H89.6773ZM88.2064 23.1935L88.0307 23.3176L88.095 23.4086H88.2064V23.1935ZM86.1161 20.2344L86.2917 20.1103L86.2274 20.0193H86.1161V20.2344ZM85.3074 20.2344V20.0193H85.0924V20.2344H85.3074ZM86.1419 22.9785H86.3569V22.7765L86.1553 22.7639L86.1419 22.9785ZM86.1419 23.1935V23.4086H86.3569V23.1935H86.1419ZM83.6214 23.1935H83.4064V23.4086H83.6214V23.1935ZM83.6214 22.9785L83.608 22.7639L83.4064 22.7765V22.9785H83.6214ZM83.6214 17.3871H83.4064V17.5899L83.6088 17.6018L83.6214 17.3871ZM83.6214 17.172V16.957H83.4064V17.172H83.6214ZM85.3074 19.8559H85.0924V20.071H85.3074V19.8559ZM89.0408 18.7032H88.8257C88.8257 19.1263 88.6525 19.42 88.3587 19.6246C88.0536 19.837 87.6058 19.9607 87.0579 19.9939L87.0709 20.2086L87.0839 20.4233C87.6715 20.3876 88.2086 20.2533 88.6045 19.9776C89.0118 19.6939 89.2558 19.2694 89.2558 18.7032H89.0408ZM87.0709 20.2086L86.8958 20.3335L88.5044 22.5873L88.6795 22.4624L88.8545 22.3374L87.2459 20.0837L87.0709 20.2086ZM88.6795 22.4624L88.5056 22.5888C88.6173 22.7425 88.7458 22.8875 88.9354 22.997C89.1242 23.106 89.356 23.1698 89.6611 23.1929L89.6773 22.9785L89.6936 22.764C89.4309 22.7442 89.2671 22.6918 89.1505 22.6245C89.0346 22.5576 88.9481 22.4661 88.8534 22.3359L88.6795 22.4624ZM89.6773 22.9785H89.4623V23.1935H89.6773H89.8924V22.9785H89.6773ZM89.6773 23.1935V22.9785H88.2064V23.1935V23.4086H89.6773V23.1935ZM88.2064 23.1935L88.382 23.0695L86.2917 20.1103L86.1161 20.2344L85.9404 20.3585L88.0307 23.3176L88.2064 23.1935ZM86.1161 20.2344V20.0193H85.3074V20.2344V20.4495H86.1161V20.2344ZM85.3074 20.2344H85.0924V22.2301H85.3074H85.5225V20.2344H85.3074ZM85.3074 22.2301H85.0924C85.0924 22.5464 85.1198 22.828 85.3306 23C85.4319 23.0826 85.5552 23.1226 85.6808 23.1466C85.8064 23.1706 85.9574 23.1824 86.1284 23.1931L86.1419 22.9785L86.1553 22.7639C85.9823 22.753 85.8569 22.7423 85.7615 22.7241C85.6662 22.7059 85.6238 22.6841 85.6025 22.6667C85.5682 22.6387 85.5225 22.5676 85.5225 22.2301H85.3074ZM86.1419 22.9785H85.9268V23.1935H86.1419H86.3569V22.9785H86.1419ZM86.1419 23.1935V22.9785H83.6214V23.1935V23.4086H86.1419V23.1935ZM83.6214 23.1935H83.8365V22.9785H83.6214H83.4064V23.1935H83.6214ZM83.6214 22.9785L83.6348 23.1931C83.8059 23.1824 83.9569 23.1706 84.0825 23.1466C84.2081 23.1226 84.3314 23.0826 84.4326 23C84.6434 22.828 84.6709 22.5464 84.6709 22.2301H84.4558H84.2408C84.2408 22.5676 84.1951 22.6387 84.1608 22.6667C84.1394 22.6841 84.0971 22.7059 84.0018 22.7241C83.9064 22.7423 83.781 22.753 83.608 22.7639L83.6214 22.9785ZM84.4558 22.2301H84.6709V18.1355H84.4558H84.2408V22.2301H84.4558ZM84.4558 18.1355H84.6709C84.6709 17.9686 84.6648 17.8218 84.6385 17.6998C84.611 17.5725 84.5578 17.4544 84.4515 17.3647C84.3506 17.2795 84.2255 17.2405 84.0987 17.2174C83.9714 17.1943 83.8152 17.1831 83.6341 17.1724L83.6214 17.3871L83.6088 17.6018C83.7932 17.6126 83.9241 17.6229 84.0218 17.6406C84.1201 17.6585 84.1578 17.6796 84.1741 17.6934C84.185 17.7026 84.2033 17.7221 84.2181 17.7905C84.234 17.8642 84.2408 17.9712 84.2408 18.1355H84.4558ZM83.6214 17.3871H83.8365V17.172H83.6214H83.4064V17.3871H83.6214ZM83.6214 17.172V17.3871H86.6064V17.172V16.957H83.6214V17.172ZM86.6064 17.172V17.3871C87.3064 17.3871 87.8709 17.4895 88.2533 17.7055C88.6184 17.9118 88.8257 18.2245 88.8257 18.7032H89.0408H89.2558C89.2558 18.0637 88.9599 17.6108 88.4649 17.331C87.987 17.0611 87.3343 16.957 86.6064 16.957V17.172ZM88.0945 18.7032H88.3096C88.3096 18.2578 88.1544 17.9016 87.837 17.6651C87.5311 17.4374 87.1049 17.3441 86.6064 17.3441V17.5591V17.7742C87.0627 17.7742 87.3806 17.8616 87.5801 18.0101C87.768 18.15 87.8795 18.3658 87.8795 18.7032H88.0945ZM86.6064 17.5591V17.3441H85.5655V17.5591V17.7742H86.6064V17.5591ZM85.5655 17.5591V17.3441C85.4426 17.3441 85.3175 17.3804 85.2231 17.4748C85.1287 17.5692 85.0924 17.6943 85.0924 17.8172H85.3074H85.5225C85.5225 17.7968 85.5255 17.7854 85.5272 17.7805C85.5287 17.7762 85.5293 17.7769 85.5273 17.7789C85.5252 17.781 85.5246 17.7804 85.5288 17.7789C85.5337 17.7772 85.5451 17.7742 85.5655 17.7742V17.5591ZM85.3074 17.8172H85.0924V19.8559H85.3074H85.5225V17.8172H85.3074ZM85.3074 19.8559V20.071H86.5978V19.8559V19.6409H85.3074V19.8559ZM86.5978 19.8559V20.071C87.1002 20.071 87.5288 19.9778 87.836 19.7487C88.1549 19.5109 88.3096 19.1522 88.3096 18.7032H88.0945H87.8795C87.8795 19.0456 87.7675 19.2633 87.5789 19.4039C87.3786 19.5533 87.0588 19.6409 86.5978 19.6409V19.8559ZM91.4997 22.9785L91.4862 22.7639L91.2846 22.7765V22.9785H91.4997ZM92.3341 20.6817H92.5491V20.6209L92.5173 20.5691L92.3341 20.6817ZM90.7685 18.1355L90.5848 18.2474L90.5853 18.2481L90.7685 18.1355ZM89.9255 17.3871H89.7104V17.58L89.9022 17.6009L89.9255 17.3871ZM89.9255 17.172V16.957H89.7104V17.172H89.9255ZM92.1792 17.172H92.3943V16.957H92.1792V17.172ZM92.1792 17.3871L92.1948 17.6016L92.3943 17.5871V17.3871H92.1792ZM91.7319 18.1269L91.5478 18.238L91.548 18.2383L91.7319 18.1269ZM92.9878 20.2L92.8039 20.3114L92.992 20.6219L93.1739 20.3078L92.9878 20.2ZM94.1835 18.1355L94.3696 18.2433L94.3699 18.2429L94.1835 18.1355ZM93.7104 17.3871H93.4954V17.5873L93.6951 17.6016L93.7104 17.3871ZM93.7104 17.172V16.957H93.4954V17.172H93.7104ZM95.5599 17.172H95.7749V16.957H95.5599V17.172ZM95.5599 17.3871L95.579 17.6013L95.7749 17.5838V17.3871H95.5599ZM94.648 18.1355L94.8342 18.2431L94.8344 18.2429L94.648 18.1355ZM93.1857 20.6645L92.9995 20.5569L92.9706 20.6068V20.6645H93.1857ZM94.0201 22.9785H94.2351V22.7765L94.0335 22.7639L94.0201 22.9785ZM94.0201 23.1935V23.4086H94.2351V23.1935H94.0201ZM91.4997 23.1935H91.2846V23.4086H91.4997V23.1935ZM91.4997 22.9785L91.5131 23.1931C91.6842 23.1824 91.8351 23.1706 91.9607 23.1466C92.0863 23.1226 92.2096 23.0826 92.3109 23C92.5217 22.828 92.5491 22.5464 92.5491 22.2301H92.3341H92.119C92.119 22.5676 92.0733 22.6387 92.039 22.6667C92.0177 22.6841 91.9753 22.7059 91.88 22.7241C91.7846 22.7423 91.6592 22.753 91.4862 22.7639L91.4997 22.9785ZM92.3341 22.2301H92.5491V20.6817H92.3341H92.119V22.2301H92.3341ZM92.3341 20.6817L92.5173 20.5691L90.9517 18.0228L90.7685 18.1355L90.5853 18.2481L92.1509 20.7944L92.3341 20.6817ZM90.7685 18.1355L90.9521 18.0236C90.7893 17.7563 90.662 17.5516 90.5173 17.4147C90.3546 17.2608 90.1788 17.1983 89.9487 17.1733L89.9255 17.3871L89.9022 17.6009C90.0678 17.6189 90.1458 17.6553 90.2218 17.7272C90.3158 17.8161 90.4122 17.9641 90.5848 18.2474L90.7685 18.1355ZM89.9255 17.3871H90.1405V17.172H89.9255H89.7104V17.3871H89.9255ZM89.9255 17.172V17.3871H92.1792V17.172V16.957H89.9255V17.172ZM92.1792 17.172H91.9642V17.3871H92.1792H92.3943V17.172H92.1792ZM92.1792 17.3871L92.1637 17.1726C92.0066 17.184 91.8646 17.2063 91.746 17.2475C91.628 17.2885 91.5126 17.3554 91.4391 17.4698C91.3628 17.5887 91.3543 17.7231 91.3808 17.8505C91.4064 17.9739 91.4668 18.1038 91.5478 18.238L91.7319 18.1269L91.916 18.0158C91.8465 17.9005 91.8134 17.8185 91.8019 17.7632C91.7964 17.7368 91.7968 17.7209 91.7979 17.7128C91.7988 17.7058 91.8003 17.7034 91.801 17.7022C91.8029 17.6994 91.8186 17.6776 91.8871 17.6538C91.9551 17.6302 92.055 17.6117 92.1948 17.6016L92.1792 17.3871ZM91.7319 18.1269L91.548 18.2383L92.8039 20.3114L92.9878 20.2L93.1718 20.0886L91.9158 18.0154L91.7319 18.1269ZM92.9878 20.2L93.1739 20.3078L94.3696 18.2433L94.1835 18.1355L93.9974 18.0277L92.8017 20.0922L92.9878 20.2ZM94.1835 18.1355L94.3699 18.2429C94.4486 18.1061 94.5066 17.974 94.5293 17.8488C94.5528 17.7191 94.5399 17.5846 94.4609 17.4671C94.385 17.3543 94.2686 17.2881 94.1489 17.2472C94.0286 17.2062 93.8848 17.1839 93.7257 17.1726L93.7104 17.3871L93.6951 17.6016C93.8371 17.6117 93.9395 17.6303 94.0101 17.6544C94.0812 17.6786 94.1003 17.7016 94.104 17.7071C94.1045 17.7079 94.1154 17.7207 94.106 17.7722C94.0959 17.8281 94.0646 17.9111 93.9972 18.0281L94.1835 18.1355ZM93.7104 17.3871H93.9255V17.172H93.7104H93.4954V17.3871H93.7104ZM93.7104 17.172V17.3871H95.5599V17.172V16.957H93.7104V17.172ZM95.5599 17.172H95.3448V17.3871H95.5599H95.7749V17.172H95.5599ZM95.5599 17.3871L95.5407 17.1729C95.2685 17.1972 95.0645 17.2691 94.889 17.4274C94.7278 17.5727 94.604 17.7811 94.4617 18.0281L94.648 18.1355L94.8344 18.2429C94.9845 17.9823 95.0758 17.8381 95.177 17.7468C95.2638 17.6685 95.3695 17.62 95.579 17.6013L95.5599 17.3871ZM94.648 18.1355L94.4619 18.0278L92.9995 20.5569L93.1857 20.6645L93.3718 20.7722L94.8342 18.2431L94.648 18.1355ZM93.1857 20.6645H92.9706V22.2301H93.1857H93.4007V20.6645H93.1857ZM93.1857 22.2301H92.9706C92.9706 22.5464 92.9981 22.828 93.2089 23C93.3102 23.0826 93.4334 23.1226 93.559 23.1466C93.6846 23.1706 93.8356 23.1824 94.0067 23.1931L94.0201 22.9785L94.0335 22.7639C93.8605 22.753 93.7351 22.7423 93.6397 22.7241C93.5444 22.7059 93.5021 22.6841 93.4808 22.6667C93.4464 22.6387 93.4007 22.5676 93.4007 22.2301H93.1857ZM94.0201 22.9785H93.805V23.1935H94.0201H94.2351V22.9785H94.0201ZM94.0201 23.1935V22.9785H91.4997V23.1935V23.4086H94.0201V23.1935ZM91.4997 23.1935H91.7147V22.9785H91.4997H91.2846V23.1935H91.4997Z" fill="black" mask="url(#path-3-outside-1_227_312)"/>
<defs>
<filter id="filter0_d_227_312" x="0.27957" y="0" width="119.57" height="43.4409" filterUnits="userSpaceOnUse" color-interpolation-filters="sRGB">
<feFlood flood-opacity="0" result="BackgroundImageFix"/>
<feColorMatrix in="SourceAlpha" type="matrix" values="0 0 0 0 0 0 0 0 0 0 0 0 0 0 0 0 0 0 127 0" result="hardAlpha"/>
<feOffset dy="1.72043"/>
<feGaussianBlur stdDeviation="0.860215"/>
<feComposite in2="hardAlpha" operator="out"/>
<feColorMatrix type="matrix" values="0 0 0 0 0 0 0 0 0 0 0 0 0 0 0 0 0 0 0.25 0"/>
<feBlend mode="normal" in2="BackgroundImageFix" result="effect1_dropShadow_227_312"/>
<feBlend mode="normal" in="SourceGraphic" in2="effect1_dropShadow_227_312" result="shape"/>
</filter>
</defs>
</svg>
